<svg xmlns="http://www.w3.org/2000/svg" viewBox="0 0 104.51 107.88"><defs><style>.cls-1{fill:#fff;}.cls-2{fill:#c4ab5b;}</style></defs><g id="Layer_2" data-name="Layer 2"><g id="Text"><path class="cls-1" d="M67.62,54.08h0a.37.37,0,0,1-.33-.24,26.34,26.34,0,0,0-9.6-11.68.42.42,0,0,1-.18-.35.39.39,0,0,1,.22-.33,11.25,11.25,0,0,0,4.19-3.54,11,11,0,0,0,1.7-4.57,17.76,17.76,0,0,1,1.69-5.12,21.22,21.22,0,0,1,3.4-4.47C73.11,19.23,83.44,18.13,95,21a.39.39,0,0,1,.3.36,48.1,48.1,0,0,1-.7,10.89c-1,5.34-1.8,10-5.56,13.29a15.64,15.64,0,0,1-6.42,3.34,18.05,18.05,0,0,1-5.46.47,10,10,0,0,0-5,.72A9.92,9.92,0,0,0,68,53.9.4.4,0,0,1,67.62,54.08Zm-9-12.21a27.08,27.08,0,0,1,9.06,11,10.52,10.52,0,0,1,4.11-3.53,10.79,10.79,0,0,1,5.37-.79,16.64,16.64,0,0,0,5.24-.45,14.7,14.7,0,0,0,6.09-3.16c3.56-3.15,4.33-7.43,5.32-12.84a47.45,47.45,0,0,0,.69-10.41,45.83,45.83,0,0,0-15.22-1.3c-4.52.47-8,1.83-10.05,3.94A20.93,20.93,0,0,0,66,28.62a17,17,0,0,0-1.62,4.91,10.89,10.89,0,0,1-5.73,8.34Z"/><path class="cls-1" d="M67.62,54.42h-.06a.75.75,0,0,1-.62-.45,26,26,0,0,0-9.47-11.53.72.72,0,0,1-.32-.65.71.71,0,0,1,.39-.61,10.87,10.87,0,0,0,4.07-3.44,10.69,10.69,0,0,0,1.65-4.43A18.23,18.23,0,0,1,65,28.09a22,22,0,0,1,3.45-4.55c4.52-4.63,15-5.76,26.64-2.88a.74.74,0,0,1,.56.68,48.14,48.14,0,0,1-.71,11c-1,5.4-1.82,10.07-5.67,13.49a16,16,0,0,1-6.55,3.4,17.84,17.84,0,0,1-5.56.48,9.86,9.86,0,0,0-4.87.7,9.55,9.55,0,0,0-4,3.71A.75.75,0,0,1,67.62,54.42ZM82.88,19.75c-6.2,0-11.23,1.46-14,4.26a21.07,21.07,0,0,0-3.34,4.4,17.77,17.77,0,0,0-1.66,5,11.5,11.5,0,0,1-1.75,4.69,11.59,11.59,0,0,1-4.32,3.65.05.05,0,0,0,0,0,.09.09,0,0,0,0,.05,26.25,26.25,0,0,1,5.46,4.9,26.56,26.56,0,0,1,4.26,6.93s0,0,0,0h0l0,0a10.22,10.22,0,0,1,4.32-4A10.34,10.34,0,0,1,77.16,49a17.43,17.43,0,0,0,5.37-.46,15.28,15.28,0,0,0,6.27-3.26c3.68-3.26,4.5-7.82,5.46-13.1A47.39,47.39,0,0,0,95,21.37a0,0,0,0,0,0-.05A50.35,50.35,0,0,0,82.88,19.75ZM67.63,53.55,67.38,53a27.1,27.1,0,0,0-4-6.31,26.77,26.77,0,0,0-5-4.55L58,41.84l.46-.26a11.41,11.41,0,0,0,3.8-3.39A11.45,11.45,0,0,0,64,33.47a17.14,17.14,0,0,1,1.65-5A21.11,21.11,0,0,1,69,24.09c2.1-2.16,5.65-3.56,10.26-4a46.25,46.25,0,0,1,15.33,1.31l.25.06v.25a47.52,47.52,0,0,1-.7,10.49c-1,5.48-1.78,9.8-5.42,13a15.31,15.31,0,0,1-6.23,3.23,17.35,17.35,0,0,1-5.34.46,10.47,10.47,0,0,0-5.22.76,10.06,10.06,0,0,0-4,3.42ZM59.25,41.9a27.63,27.63,0,0,1,4.67,4.37,27.32,27.32,0,0,1,3.84,5.94A10.56,10.56,0,0,1,71.65,49a11.05,11.05,0,0,1,5.53-.83,16.57,16.57,0,0,0,5.15-.43,14.64,14.64,0,0,0,6-3.09c3.47-3.08,4.23-7.3,5.2-12.65A47,47,0,0,0,94.19,22a45.41,45.41,0,0,0-14.86-1.22c-4.45.46-7.85,1.79-9.85,3.83a20.63,20.63,0,0,0-3.2,4.22A16.62,16.62,0,0,0,64.7,33.6a12.38,12.38,0,0,1-1.88,5A11.89,11.89,0,0,1,59.25,41.9Z"/><path class="cls-1" d="M57.51,42.46a8.48,8.48,0,0,0-3.29-1,14.5,14.5,0,0,0-1.75,0l-.92,0a5.27,5.27,0,0,1-1-.06,2.26,2.26,0,0,1-1-.39,2,2,0,0,1-.39-.42,1.68,1.68,0,0,1-.25-.5.56.56,0,0,1,0-.12l0-.05V39.8l0-.13,0-.13a3,3,0,0,1,0-.52A3.69,3.69,0,0,1,49,38a6.25,6.25,0,0,1,.89-1.7A15.08,15.08,0,0,1,51,34.88c.21-.22.43-.45.65-.66L52,33.9l.36-.3a13.49,13.49,0,0,1,1.52-1.08,23.52,23.52,0,0,1,3.28-1.67c1.13-.47,2.28-.87,3.45-1.23s2.35-.65,3.55-.9l-.07,0,.14,0,.13-.07a1.65,1.65,0,0,0,.25-.15,1.53,1.53,0,0,0,.42-.42,1.65,1.65,0,0,0,.26-1.21,1.55,1.55,0,0,0-.78-1,1.66,1.66,0,0,0-1.34-.14.2.2,0,0,1-.24-.13.19.19,0,0,1,.07-.21l.07,0a1.89,1.89,0,0,1,1.81-.19,2.13,2.13,0,0,1,.83.57,2.2,2.2,0,0,1,.28.44,2.11,2.11,0,0,1,.14.49,2.73,2.73,0,0,1,0,1,5.77,5.77,0,0,1-.26.9.56.56,0,0,0,0,.12.36.36,0,0,0,0,.11l0,.13,0,.12,0,.13,0,.13a1.59,1.59,0,0,1-.12.27,1.57,1.57,0,0,1-.34.47l-.12.1a.5.5,0,0,1-.12.08,2.1,2.1,0,0,1-.26.13l-.09,0h-.06a45.6,45.6,0,0,0-6.73,2c-.54.21-1.08.43-1.6.67s-1,.5-1.53.78a13.74,13.74,0,0,0-1.42.91l-.34.26-.31.27-.31.27-.08.08-.07.07-.16.16A12.1,12.1,0,0,0,50.83,37a5.16,5.16,0,0,0-.8,1.36,2.5,2.5,0,0,0-.16.67c0,.11,0,.22,0,.32v.24l0,.09a1.08,1.08,0,0,0,.1.24,1,1,0,0,0,.16.19,1.13,1.13,0,0,0,.54.22,4.81,4.81,0,0,0,.8.08h.89a17.22,17.22,0,0,1,1.88.11,9.19,9.19,0,0,1,1.85.43,10.22,10.22,0,0,1,1.71.79h0a.4.4,0,0,1-.39.69Z"/><path class="cls-1" d="M67.29,53.48a8.63,8.63,0,0,1,.36,3.42,15.08,15.08,0,0,1-.3,1.74c-.07.29-.14.58-.2.89a5.72,5.72,0,0,0-.14.95,2.41,2.41,0,0,0,.19,1.07,2.21,2.21,0,0,0,.33.47,2,2,0,0,0,.44.34l.11.06,0,0,.06,0,.12.06.13.05a4.1,4.1,0,0,0,.5.14,3.88,3.88,0,0,0,1,0,5.94,5.94,0,0,0,1.84-.54,12.79,12.79,0,0,0,1.64-.87c.26-.16.53-.33.79-.51l.38-.27.36-.29A16.46,16.46,0,0,0,76.33,59a23.35,23.35,0,0,0,2.28-2.89c.69-1,1.31-2.07,1.89-3.14s1.1-2.18,1.58-3.3l0,.06.08-.12.09-.12a1.31,1.31,0,0,1,.2-.21,1.56,1.56,0,0,1,.5-.33,1.63,1.63,0,0,1,1.23,0,1.57,1.57,0,0,1,.86,1,1.65,1.65,0,0,1-.13,1.34.19.19,0,0,0,.08.26.18.18,0,0,0,.21,0l.07-.06a1.91,1.91,0,0,0,.55-1.74,2.11,2.11,0,0,0-.4-.92,1.8,1.8,0,0,0-.37-.36,2.05,2.05,0,0,0-.46-.25,2.74,2.74,0,0,0-1-.16,5.86,5.86,0,0,0-.94.08l-.12,0h-.25l-.13,0-.14,0-.13,0a1.5,1.5,0,0,0-.29.06,1.52,1.52,0,0,0-.53.25.47.47,0,0,0-.12.09l-.1.1a1.3,1.3,0,0,0-.18.23l0,.08,0,.06a45.27,45.27,0,0,1-3.26,6.21c-.31.49-.63,1-1,1.44s-.7.91-1.07,1.34a15.13,15.13,0,0,1-1.18,1.22l-.32.27-.32.26c-.11.09-.22.16-.33.24l-.09.06-.09.07-.18.12a13.06,13.06,0,0,1-1.47.86,5.49,5.49,0,0,1-1.49.51,2.37,2.37,0,0,1-.7,0,1.16,1.16,0,0,1-.31-.07l-.07,0-.07,0,0,0,0,0-.08,0a.77.77,0,0,1-.22-.15.9.9,0,0,1-.15-.19,1.17,1.17,0,0,1-.11-.58,4.6,4.6,0,0,1,.08-.79c0-.29.11-.58.17-.88A15.71,15.71,0,0,0,68.55,57a9.29,9.29,0,0,0-.06-1.9,10.49,10.49,0,0,0-.44-1.84h0a.4.4,0,0,0-.76.24Z"/><path class="cls-1" d="M83.94,43.87a2.21,2.21,0,0,1-1.75-1,5.13,5.13,0,0,1-.68-2.23v-.06a4,4,0,0,0-.63-1.9,4.1,4.1,0,0,0-2.15-1.11,4.83,4.83,0,0,1-2.54-1.36,5,5,0,0,1-.83-2.72,3.65,3.65,0,0,0-.81-2.4,3.67,3.67,0,0,0-1.44-.65,5.21,5.21,0,0,1-1.46-.59,2.93,2.93,0,0,1-.93-3.73.39.39,0,0,1,.53-.16.41.41,0,0,1,.16.54,2.14,2.14,0,0,0,.67,2.69,4.66,4.66,0,0,0,1.25.49,4.28,4.28,0,0,1,1.75.83,4.21,4.21,0,0,1,1.06,2.9,4.36,4.36,0,0,0,.67,2.3,4.1,4.1,0,0,0,2.14,1.1,4.85,4.85,0,0,1,2.55,1.38,4.62,4.62,0,0,1,.79,2.28v.06a4.72,4.72,0,0,0,.55,1.9,1.25,1.25,0,0,0,1.43.57.4.4,0,0,1,.52.19.39.39,0,0,1-.19.53A1.54,1.54,0,0,1,83.94,43.87Z"/><path class="cls-1" d="M86.38,41.62a2.23,2.23,0,0,1-1.75-1A5.26,5.26,0,0,1,84,38.4v-.06a3.93,3.93,0,0,0-.62-1.9,4.17,4.17,0,0,0-2.16-1.11A4.8,4.8,0,0,1,78.63,34a5,5,0,0,1-.84-2.72,3.6,3.6,0,0,0-.81-2.4,3.53,3.53,0,0,0-1.44-.65,5,5,0,0,1-1.45-.59,2.92,2.92,0,0,1-.94-3.73.41.41,0,0,1,.54-.16.4.4,0,0,1,.15.54A2.14,2.14,0,0,0,74.52,27a4.66,4.66,0,0,0,1.25.49,4.18,4.18,0,0,1,1.74.83,4.26,4.26,0,0,1,1.07,2.9,4.27,4.27,0,0,0,.66,2.3,4.24,4.24,0,0,0,2.15,1.1A4.78,4.78,0,0,1,83.93,36a4.53,4.53,0,0,1,.79,2.28v.06a4.58,4.58,0,0,0,.56,1.9,1.24,1.24,0,0,0,1.42.57.4.4,0,0,1,.34.72A1.58,1.58,0,0,1,86.38,41.62Z"/><path class="cls-1" d="M89.58,39.51a2.24,2.24,0,0,1-1.76-1,5.18,5.18,0,0,1-.68-2.23v-.05a4,4,0,0,0-.63-1.9,4.18,4.18,0,0,0-2.16-1.12,4.8,4.8,0,0,1-2.53-1.36A5,5,0,0,1,81,29.14a3.65,3.65,0,0,0-.8-2.4,3.59,3.59,0,0,0-1.44-.65,5.29,5.29,0,0,1-1.46-.6,2.92,2.92,0,0,1-.94-3.73.4.4,0,0,1,.7.38,2.12,2.12,0,0,0,.67,2.69,4.67,4.67,0,0,0,1.25.5,4.26,4.26,0,0,1,1.75.82,4.22,4.22,0,0,1,1.06,2.9,4.27,4.27,0,0,0,.66,2.3,4.25,4.25,0,0,0,2.15,1.11,4.72,4.72,0,0,1,2.55,1.38,4.73,4.73,0,0,1,.79,2.27v.06a4.49,4.49,0,0,0,.56,1.9,1.24,1.24,0,0,0,1.42.58.39.39,0,1,1,.34.71A1.55,1.55,0,0,1,89.58,39.51Z"/><path class="cls-1" d="M48.32,102a11.11,11.11,0,0,1-2.73-.35,12.53,12.53,0,0,1-6.39-4.08,11,11,0,0,1-2.62-7.3,11.66,11.66,0,0,1,2.15-6.35A9.71,9.71,0,0,1,44.35,80c3.17-.76,7.55-.07,9.68,3.26a8.9,8.9,0,0,1,.82,7.25,6.47,6.47,0,0,1-3.43,4.2c-2.74,1.16-6.57-.1-7.74-2.55a4.44,4.44,0,0,1,.17-4.07,3.87,3.87,0,0,1,3.87-1.8,3.79,3.79,0,0,1,3,3.08.4.4,0,1,1-.78.14,3,3,0,0,0-2.36-2.44,3.08,3.08,0,0,0-3.07,1.45,3.73,3.73,0,0,0-.12,3.31c1,2.06,4.37,3.15,6.72,2.16a5.79,5.79,0,0,0,3-3.72,8.1,8.1,0,0,0-.73-6.59c-1.93-3-5.93-3.61-8.83-2.91C40,81.86,37.47,86.5,37.37,90.3c-.15,5.43,4.23,9.51,8.42,10.59,6.49,1.68,11.36-3.65,11.57-3.87,1.88-2.1,2.85-4.65,3.25-8.56.81-7.87-1.34-13.73-3.23-18.91s-3.44-9.42-1.62-14.15c1.27-3.26,4-6,8-8.26a.39.39,0,0,1,.53.16.38.38,0,0,1-.15.53C60.27,50,57.69,52.6,56.5,55.69c-1.72,4.45-.17,8.69,1.62,13.59,1.92,5.25,4.1,11.21,3.28,19.26-.28,2.71-.92,6.19-3.46,9C57.76,97.75,53.86,102,48.32,102Z"/><path class="cls-1" d="M62.82,97.83a11.15,11.15,0,0,1-4.65-1,.38.38,0,0,1-.19-.52.39.39,0,0,1,.52-.19,9.95,9.95,0,0,0,11.87-2.57,12.31,12.31,0,0,0,3-7.63c.34-5.27-2.84-8.92-6.2-12.77-3.14-3.61-6.38-7.34-6.36-12.46,0-3.54,1.63-7.14,4.8-10.69a.41.41,0,0,1,.56,0,.4.4,0,0,1,0,.56c-3,3.4-4.58,6.82-4.6,10.16,0,4.82,3,8.28,6.17,11.94,3.32,3.81,6.74,7.75,6.39,13.34A13.11,13.11,0,0,1,71,94a11,11,0,0,1-5.7,3.51A10.76,10.76,0,0,1,62.82,97.83Z"/><path class="cls-1" d="M67.78,54.6l-.15,0a11.8,11.8,0,0,1-2.25-1.26,12,12,0,0,1-1.23-1,.4.4,0,0,1,.54-.58,11.6,11.6,0,0,0,1.15,1,11.05,11.05,0,0,0,2.1,1.17.4.4,0,0,1-.16.76Z"/><path class="cls-1" d="M62.62,92a7.27,7.27,0,0,1-2.11-.32.4.4,0,0,1-.26-.5.39.39,0,0,1,.49-.26,6,6,0,0,0,3.66,0,6.35,6.35,0,0,0,4.11-5.45c.2-2.15-.61-4.83-2.87-6a5.93,5.93,0,0,0-4.86,0,.4.4,0,0,1-.52-.21.4.4,0,0,1,.21-.52,6.74,6.74,0,0,1,5.53.07c2.59,1.33,3.52,4.36,3.3,6.77a7.16,7.16,0,0,1-4.65,6.13A6.32,6.32,0,0,1,62.62,92Z"/><path class="cls-1" d="M64.09,87.11a.38.38,0,0,1-.33-.18.38.38,0,0,1,.12-.54,2.27,2.27,0,0,0,1-1.55,2.21,2.21,0,0,0-1.38-2.17,2.51,2.51,0,0,0-2.2.28.39.39,0,1,1-.45-.64,3.26,3.26,0,0,1,2.94-.37,2.84,2.84,0,0,1,.5,5.11A.42.42,0,0,1,64.09,87.11Z"/><path class="cls-1" d="M49.34,80.84a.36.36,0,0,1-.2-.06.38.38,0,0,1-.13-.54,15.84,15.84,0,0,0,2.11-5.52,12.27,12.27,0,0,0-.52-6.07,20.47,20.47,0,0,1-.87-5c-.06-1.85.09-8.3,4.69-13.33a17.59,17.59,0,0,1,8-4.89.4.4,0,0,1,.49.27.4.4,0,0,1-.27.49A16.79,16.79,0,0,0,55,50.82c-4.51,4.93-4.52,11.51-4.48,12.78a19.49,19.49,0,0,0,.84,4.84,13.11,13.11,0,0,1,.53,6.41,16.22,16.22,0,0,1-2.21,5.8A.39.39,0,0,1,49.34,80.84Z"/><path class="cls-1" d="M42.53,81.49a.39.39,0,0,1-.35-.57A19.39,19.39,0,0,0,44,75.45a20.39,20.39,0,0,0-.11-6.76,28.58,28.58,0,0,1-.34-6.26,23.72,23.72,0,0,1,1.66-7.53c3.06-7.06,10.93-10.13,15.34-11.33a.4.4,0,0,1,.49.28.39.39,0,0,1-.28.48c-4.28,1.17-11.9,4.13-14.82,10.89a23.72,23.72,0,0,0-1.61,7.26,28.38,28.38,0,0,0,.35,6.1,21.3,21.3,0,0,1,.1,7,20.39,20.39,0,0,1-1.87,5.7A.4.4,0,0,1,42.53,81.49Z"/><path class="cls-1" d="M39.37,64.14a.39.39,0,0,1-.39-.38,20.15,20.15,0,0,1,4.84-13.83c6.16-7,14.88-6.73,16.57-6.6a.39.39,0,0,1,.36.42.39.39,0,0,1-.42.36c-1.62-.12-10-.38-15.91,6.34a19.38,19.38,0,0,0-4.66,13.28.39.39,0,0,1-.38.41Z"/><path class="cls-1" d="M34.24,100a11.87,11.87,0,0,1-5.31-1.21A13.16,13.16,0,0,1,22.75,92,12.16,12.16,0,0,1,34.66,75a12.5,12.5,0,0,1,8.57,5,.4.4,0,0,1-.09.55.39.39,0,0,1-.55-.09,11.69,11.69,0,0,0-8-4.7A11.44,11.44,0,0,0,23.3,83.05c-2.17,5.45.56,12.33,6,15,4.89,2.43,9.92.27,10.88-.19a.4.4,0,0,1,.53.19.39.39,0,0,1-.19.52A15.23,15.23,0,0,1,34.24,100Z"/><path class="cls-1" d="M34.24,94.38a8.66,8.66,0,0,1-7.67-4.14c-1.55-2.72-1.58-7,1.05-9.37A7.65,7.65,0,0,1,32.9,79a4.11,4.11,0,0,1,3,1.27,4.34,4.34,0,0,1,.3,5.31,4.44,4.44,0,0,1-5.35,1.3.39.39,0,0,1-.2-.52.4.4,0,0,1,.52-.21,3.63,3.63,0,0,0,4.39-1,3.58,3.58,0,0,0-.25-4.32,3.39,3.39,0,0,0-2.41-1,6.91,6.91,0,0,0-4.71,1.7c-2.34,2.14-2.29,6-.9,8.4,1.81,3.19,6,4.56,10,3.26a.38.38,0,0,1,.49.25.39.39,0,0,1-.25.5A10.76,10.76,0,0,1,34.24,94.38Z"/><path class="cls-1" d="M28.12,77.33a.38.38,0,0,1-.33-.18c-.29-.43-2.76-4.38-1.09-8.68a9.16,9.16,0,0,1,4.14-4.64,9.28,9.28,0,0,1,5.87-1.12c.83.12,5,.92,6.12,4.41a6.78,6.78,0,0,1-.6,5.17,4.7,4.7,0,0,1-2.88,2.39c-1.83.46-4.76-.32-5.39-2.63a3.76,3.76,0,0,1,1.91-4.28,3.84,3.84,0,0,1,4.94,1.71.4.4,0,0,1-.15.54.41.41,0,0,1-.54-.16,3.08,3.08,0,0,0-3.91-1.38,3,3,0,0,0-1.49,3.36c.5,1.83,3,2.45,4.43,2.08a4,4,0,0,0,2.39-2,6,6,0,0,0,.54-4.56c-1-3-4.74-3.75-5.49-3.86a8.73,8.73,0,0,0-9.15,5.27c-1.53,3.92.74,7.56,1,8a.39.39,0,0,1-.33.61Z"/><path class="cls-2" d="M34.59,25l-.26.28c-.87,1-1.73,2-2.6,2.91-.38.42-.76.83-1.15,1.23a3.06,3.06,0,0,1-.49.4,1.16,1.16,0,0,1-1.8-.59A11.47,11.47,0,0,1,27.94,28c-.21-1-.41-1.93-.61-2.89,0,0,0-.09,0-.16l-.17.19L25.52,27c-.2.22-.39.45-.59.68L23,29.79a1.61,1.61,0,0,1-.87.55A1.2,1.2,0,0,1,21,29.93a1.71,1.71,0,0,1-.36-.71c-.17-.66-.34-1.33-.48-2s-.24-1.28-.35-1.92L19.71,25l-.21.19c-.72.72-1.38,1.5-2,2.28L15.39,30l-.2.25a1,1,0,0,1-1.32.21,1,1,0,0,1-.35-1.28,1.77,1.77,0,0,1,.28-.43c1-1.21,2-2.43,3-3.62.64-.74,1.35-1.42,2-2.12a2.37,2.37,0,0,1,.57-.43A1.27,1.27,0,0,1,21.2,23a3,3,0,0,1,.29.7c.24.88.38,1.78.54,2.68.06.39.15.78.23,1.2l.17-.15.13-.14,2.61-3c.36-.42.7-.85,1.07-1.27a5.12,5.12,0,0,1,.59-.55A1.26,1.26,0,0,1,28,22.22a1.28,1.28,0,0,1,.78.66,3.45,3.45,0,0,1,.37,1.05c.22,1,.43,2,.65,3.05a2,2,0,0,0,.06.27l.13-.1c.78-.88,1.55-1.76,2.34-2.63.58-.63,1.18-1.25,1.79-1.87a3.53,3.53,0,0,1,.57-.45,1.15,1.15,0,0,1,1.6.49,3,3,0,0,1,.23.89c0,.4.07.81.09,1.22.08,1.43.15,2.86.22,4.29a1.43,1.43,0,0,1,0,.46,1,1,0,0,1-.95.73,1,1,0,0,1-1-.72,2.23,2.23,0,0,1,0-.36l-.21-4S34.6,25.12,34.59,25Z"/><path class="cls-2" d="M18,35.19c-.05.06-.08.12-.12.17l-2.5,3c-.29.35-.55.73-.84,1.08a4.5,4.5,0,0,1-.64.67.91.91,0,0,1-1,.14,1,1,0,0,1-.39-1.61c.3-.34.57-.69.85-1l2.37-2.86c.41-.5.83-1,1.26-1.49a2.65,2.65,0,0,1,.4-.42,1.1,1.1,0,0,1,1.6.09,2.77,2.77,0,0,1,.4.55c.2.39.38.8.56,1.21.36.83.71,1.66,1.06,2.49a2,2,0,0,0,.15.29c.15-.14.28-.26.4-.39L25.27,33c.12-.13.25-.27.39-.4a1.18,1.18,0,0,1,2,.34c.23.46.45.92.66,1.39.45,1,1,1.91,1.5,2.84l.07.09a1.41,1.41,0,0,0,.17-.18c.8-.94,1.63-1.86,2.36-2.86.43-.57.89-1.12,1.35-1.67a2.27,2.27,0,0,1,.3-.32,1.09,1.09,0,0,1,1.72.33,1.76,1.76,0,0,1,.16.4c.12.33.23.67.33,1,.44,1.43,1,2.82,1.53,4.22a5.58,5.58,0,0,1,.18.58,1,1,0,0,1-1.9.61c-.18-.43-.33-.86-.49-1.3s-.43-1.1-.64-1.66c-.12-.35-.23-.71-.34-1.07,0-.13-.09-.27-.15-.45l-.23.27c-.33.43-.65.87-1,1.3-.87,1.06-1.77,2.1-2.71,3.1l-.12.12a1.08,1.08,0,0,1-1.74-.26c-.12-.19-.19-.4-.29-.59-.17-.34-.34-.67-.52-1l-1.38-2.66-.13-.29-.15.14c-1,1.11-2,2.23-3,3.34-.42.46-.87.89-1.33,1.32a1.12,1.12,0,0,1-1.13.28,1.18,1.18,0,0,1-.63-.49,9.06,9.06,0,0,1-1-1.77c-.33-.8-.67-1.59-1-2.39Z"/><path class="cls-1" d="M84.49,76.88a.11.11,0,0,1,0-.21A6.7,6.7,0,0,0,87,75.23c.71-.74.92-2.27,1.16-3.07a.11.11,0,0,1,.22,0c.14.81.19,2.28,1,3.09A5.6,5.6,0,0,0,92,76.69a.11.11,0,0,1,0,.21,5.59,5.59,0,0,0-2.45,1.27c-.77.79-1,2.38-1.16,3.15a.11.11,0,0,1-.21,0c-.23-.8-.47-2.5-1.36-3.33A5.8,5.8,0,0,0,84.49,76.88Z"/><path class="cls-1" d="M96,55.84a.11.11,0,0,1,0-.21,6.63,6.63,0,0,0,2.52-1.45c.7-.73.92-2.26,1.16-3.07a.11.11,0,0,1,.22,0c.13.81.19,2.28,1,3.09a5.78,5.78,0,0,0,2.66,1.43.11.11,0,0,1,0,.21,5.62,5.62,0,0,0-2.44,1.27c-.77.79-1,2.38-1.16,3.15a.11.11,0,0,1-.22,0c-.22-.8-.46-2.5-1.35-3.34A5.9,5.9,0,0,0,96,55.84Z"/><path class="cls-1" d="M57.8,11.79a.11.11,0,0,1,0-.21,6.7,6.7,0,0,0,2.51-1.44c.71-.74.93-2.27,1.16-3.07a.11.11,0,0,1,.22,0c.14.81.19,2.28,1,3.09a5.69,5.69,0,0,0,2.66,1.43.12.12,0,0,1,0,.22,5.45,5.45,0,0,0-2.45,1.26c-.77.8-1,2.38-1.15,3.15a.11.11,0,0,1-.22,0c-.23-.8-.46-2.5-1.35-3.33A5.77,5.77,0,0,0,57.8,11.79Z"/><path class="cls-1" d="M17,56.08a.11.11,0,0,1,0-.21,6.7,6.7,0,0,0,2.51-1.44c.71-.74.93-2.27,1.16-3.07a.11.11,0,0,1,.22,0c.14.81.19,2.29,1,3.09a5.69,5.69,0,0,0,2.66,1.43.12.12,0,0,1,0,.22,5.45,5.45,0,0,0-2.45,1.26c-.77.8-1,2.38-1.15,3.15a.11.11,0,0,1-.22,0c-.23-.81-.46-2.51-1.35-3.34A5.77,5.77,0,0,0,17,56.08Z"/><path class="cls-1" d="M27,11.69a.11.11,0,0,1,0-.21A6.72,6.72,0,0,0,29.5,10c.71-.74.92-2.27,1.16-3.08a.11.11,0,0,1,.22,0c.14.81.19,2.28.95,3.09A5.67,5.67,0,0,0,34.5,11.5a.11.11,0,0,1,0,.21A5.59,5.59,0,0,0,32.06,13c-.77.79-1,2.38-1.16,3.15a.11.11,0,0,1-.21,0c-.23-.8-.47-2.5-1.36-3.33A5.8,5.8,0,0,0,27,11.69Z"/><path class="cls-1" d="M2.28,67.49a1.15,1.15,0,0,1-1.14,1.15,1.15,1.15,0,1,1,1.14-1.15Z"/><path class="cls-1" d="M36,49.66a1.15,1.15,0,1,1-1.15-1.14A1.15,1.15,0,0,1,36,49.66Z"/><path class="cls-1" d="M81.7,97.7a1.15,1.15,0,0,1-2.29,0,1.15,1.15,0,1,1,2.29,0Z"/><path class="cls-1" d="M104.51,39.79a1.15,1.15,0,1,1-1.14-1.14A1.14,1.14,0,0,1,104.51,39.79Z"/><circle class="cls-1" cx="102.59" cy="73.08" r="1.14"/><path class="cls-1" d="M43.89,5.45A1.14,1.14,0,1,1,42.75,4.3,1.14,1.14,0,0,1,43.89,5.45Z"/><path class="cls-1" d="M51.39,22.41a1.15,1.15,0,1,1-1.15-1.14A1.15,1.15,0,0,1,51.39,22.41Z"/><path class="cls-1" d="M84.76,11a1.14,1.14,0,1,1-1.14-1.14A1.14,1.14,0,0,1,84.76,11Z"/><path class="cls-1" d="M5.82,32.77a1.14,1.14,0,1,1-1.14-1.14A1.14,1.14,0,0,1,5.82,32.77Z"/><path class="cls-1" d="M12.89,84a1.15,1.15,0,1,1-1.15-1.15A1.15,1.15,0,0,1,12.89,84Z"/><path class="cls-1" d="M63.57,107.05a.84.84,0,0,1-.84.83.83.83,0,0,1,0-1.66A.84.84,0,0,1,63.57,107.05Z"/><path class="cls-1" d="M8,52.83A.84.84,0,1,1,7.19,52,.83.83,0,0,1,8,52.83Z"/><circle class="cls-1" cx="57.47" cy="0.83" r="0.83"/><circle class="cls-1" cx="86.1" cy="64" r="0.83"/><path class="cls-1" d="M40.85,105.81a.58.58,0,1,1-.58-.58A.58.58,0,0,1,40.85,105.81Z"/><path class="cls-1" d="M18.65,70.25a.58.58,0,1,1-.57-.58A.58.58,0,0,1,18.65,70.25Z"/><path class="cls-1" d="M77.62,71.34a.57.57,0,0,1-.57.57.58.58,0,1,1,0-1.15A.57.57,0,0,1,77.62,71.34Z"/><path class="cls-1" d="M76.48,5.53a.57.57,0,0,1-.57.58.58.58,0,1,1,0-1.16A.57.57,0,0,1,76.48,5.53Z"/><path class="cls-1" d="M15.76,16.45a.58.58,0,1,1-.58-.58A.58.58,0,0,1,15.76,16.45Z"/><path class="cls-1" d="M16.27,97.69a.58.58,0,1,1-.58-.58A.58.58,0,0,1,16.27,97.69Z"/></g></g></svg>