<svg xmlns="http://www.w3.org/2000/svg" viewBox="0 0 111.09 112.59"><defs><style>.cls-1{fill:#fff;}.cls-2{fill:#c4ab5b;}</style></defs><g id="Layer_2" data-name="Layer 2"><g id="Text"><path class="cls-1" d="M110,72.08h-.06a.49.49,0,0,1-.44-.51,17.82,17.82,0,0,0-.33-3.72v0c-.46-2.29-1.31-6.56-4.83-8.65a9.2,9.2,0,0,0-5.92-1.07.5.5,0,0,1-.14-1,10.2,10.2,0,0,1,6.58,1.19c3.74,2.23,4.73,6.5,5.24,9a17.4,17.4,0,0,0-2-9,.51.51,0,0,1,.89-.49,19.36,19.36,0,0,1,1.54,13.86A.52.52,0,0,1,110,72.08Z"/><path class="cls-1" d="M90.13,89.33A15.63,15.63,0,0,1,78.7,84.41a12.84,12.84,0,0,1-2.78-6.62,22.91,22.91,0,0,1,.39-8.14A28.36,28.36,0,0,1,80.67,59.6a20.94,20.94,0,0,1,8.12-7.09,20.57,20.57,0,0,1,5.72-1.67,13.58,13.58,0,0,1,14.42,7,.51.51,0,1,1-.89.49,13,13,0,0,0-4.32-4.7c-5.8-3.75-12.57-1.09-14.5-.19-5.72,2.67-10.29,9-11.92,16.43-1.23,5.65-.42,10.84,2.17,13.9a14.56,14.56,0,0,0,10.77,4.55,15.12,15.12,0,0,0,7.3-2.07,17.41,17.41,0,0,0,4.73-4.88c2.23-3.22,5-9,5.64-18a.53.53,0,0,1,.55-.48.52.52,0,0,1,.47.55c-.65,9.28-3.55,15.2-5.87,18.54a18.08,18.08,0,0,1-5,5.12,16.17,16.17,0,0,1-7.8,2.21Z"/><path class="cls-1" d="M108.54,58.68a.51.51,0,0,1-.51-.49l0-1a39.3,39.3,0,0,0-.73-6c-.19-.93-.43-1.87-.71-2.79-3.19-10.52-12.31-22.55-24.83-24.11-.08,0-7.43-.84-16.45,3.78-3,1.53-4.46,2.93-4.41,4.15a3.83,3.83,0,0,0,.31,1.08,8.52,8.52,0,0,0,2.23,3.08,17.37,17.37,0,0,0,6.86,3.71,19.48,19.48,0,0,0,6.94-.39,17.64,17.64,0,0,1,4.06-.47C86.55,39.38,91.77,43.56,96,51a.51.51,0,0,1-.19.69.5.5,0,0,1-.69-.19c-4-7.1-9-11.1-13.87-11.26a17.85,17.85,0,0,0-3.84.45,20.52,20.52,0,0,1-7.3.4h0a17.9,17.9,0,0,1-7.33-4,9.33,9.33,0,0,1-2.5-3.46,4.4,4.4,0,0,1-.37-1.4c-.11-2.5,3.7-4.46,5-5.1,9.32-4.78,16.73-3.92,17-3.88,6.09.75,11.87,3.93,16.71,9.17a41.63,41.63,0,0,1,9,15.65c.29.95.53,1.91.73,2.87a40,40,0,0,1,.76,6.16l0,1a.51.51,0,0,1-.5.52Z"/><path class="cls-1" d="M92.34,77.7a5.1,5.1,0,0,1-3-.87c-3.32-2.32-2.16-8.33-1.09-11.19.61-1.6,3-7,8.7-8.32a12.06,12.06,0,0,1,1.24-.23.5.5,0,0,1,.55.35A23,23,0,0,1,99.65,69c-.36,1.72-1.43,7-5.28,8.38A5.94,5.94,0,0,1,92.34,77.7ZM98,58.16l-.71.15c-5.19,1.25-7.42,6.2-8,7.69-1.09,2.9-1.87,8.19.72,10a4.62,4.62,0,0,0,4,.39c3.32-1.22,4.31-6,4.63-7.63A21.67,21.67,0,0,0,98,58.16Z"/><path class="cls-1" d="M59.36,79.71H59A4,4,0,0,1,57,79.12c-1.42-.92-1.71-2.6-1.91-3.72A8.91,8.91,0,0,1,55,73.27a.56.56,0,0,1,.6-.52.57.57,0,0,1,.53.61,7.16,7.16,0,0,0,.09,1.85c.17,1,.41,2.31,1.42,3a2.86,2.86,0,0,0,1.51.4,5.15,5.15,0,0,0,3.2-1c1.51-1.14,1.9-2.92,2.38-5.19a9.54,9.54,0,0,0,.26-2.13,7.79,7.79,0,0,1,.23-2,11.81,11.81,0,0,1,1.44-3.54,10.44,10.44,0,0,0,1.16-2.69A11.44,11.44,0,0,0,68,57.24a.57.57,0,0,1,.19-.51,5.1,5.1,0,0,0,1.19-6.39.53.53,0,0,1,0-.49,11.77,11.77,0,0,0,0-9.16.56.56,0,0,1,1-.43,12.55,12.55,0,0,1,1,3.74,13.15,13.15,0,0,1-.85,6,6.21,6.21,0,0,1-1.33,7.34,12.55,12.55,0,0,1-.26,5,11.9,11.9,0,0,1-1.27,3,10.66,10.66,0,0,0-1.32,3.23,7.44,7.44,0,0,0-.21,1.74,9.63,9.63,0,0,1-.28,2.35c-.51,2.39-1,4.46-2.81,5.85A6.22,6.22,0,0,1,59.36,79.71Z"/><path class="cls-1" d="M57.91,48.83l1.45-1.68,0,.43h0a8.42,8.42,0,0,1-.74-1.43c0-.12-.1-.25-.14-.37l-.13-.37a3.88,3.88,0,0,1-.2-.83,1.35,1.35,0,0,1,0-.52,1.19,1.19,0,0,1,.13-.25.72.72,0,0,1,.18-.21,2,2,0,0,1,.41-.25l.31-.17a2.44,2.44,0,0,0,.88-1,.34.34,0,1,1,.61.29h0a3.16,3.16,0,0,1-1.13,1.28c-.25.16-.54.26-.63.35a.34.34,0,0,0-.11.17.56.56,0,0,0,0,.24,3.2,3.2,0,0,0,.18.67l.12.36a3.62,3.62,0,0,0,.13.35,7.49,7.49,0,0,0,.68,1.32h0l0,.07a.29.29,0,0,1-.09.36L58,49a.09.09,0,0,1-.13,0A.09.09,0,0,1,57.91,48.83Z"/><path class="cls-1" d="M58.54,69.81a.32.32,0,0,1-.33-.26l-.43-1.79a.34.34,0,0,1,.25-.41.35.35,0,0,1,.41.25l.42,1.79a.32.32,0,0,1-.25.41Z"/><path class="cls-1" d="M53.19,72.77a3.74,3.74,0,0,1-.86-.27.91.91,0,0,1-.52-.68.84.84,0,0,1,.53-.77,1.59,1.59,0,0,1,1,0c.32.09.62.23.94.33a3.82,3.82,0,0,0,2,.08c.42-.1.82-.26,1.25-.33a1.49,1.49,0,0,1,1.21.29.79.79,0,0,1,0,1.13,1.33,1.33,0,0,1-.74.21,5,5,0,0,0-1.26.32c-.43.18-.77.49-1.17.68s-.79-.3-1.13-.48A6.16,6.16,0,0,0,53.19,72.77Z"/><path class="cls-1" d="M66.81,57.82a4.2,4.2,0,0,1-1.56-.28,6.76,6.76,0,0,1-.66-.33,3.44,3.44,0,0,0-1.32-.47,3.21,3.21,0,0,0-1.36.17.41.41,0,0,1-.42-.11.42.42,0,0,1-.07-.43,11.89,11.89,0,0,1,8.33-6.69.39.39,0,1,1,.16.77A11.05,11.05,0,0,0,62.51,56a3.93,3.93,0,0,1,.84,0,4.05,4.05,0,0,1,1.61.56,6.36,6.36,0,0,0,.59.28,4.3,4.3,0,0,0,2.86,0,.38.38,0,0,1,.49.26.4.4,0,0,1-.26.49A6.21,6.21,0,0,1,66.81,57.82Z"/><path class="cls-1" d="M67.91,57.49a3.89,3.89,0,0,1-3.35-1.78,3.94,3.94,0,0,1-.34-3.11.39.39,0,0,1,.49-.26.38.38,0,0,1,.26.49,3,3,0,0,0,3.62,3.81.4.4,0,0,1,.15.78A4.65,4.65,0,0,1,67.91,57.49Z"/><path class="cls-1" d="M66.21,51.54a2.64,2.64,0,0,0,3.59,3.78l.36-.62.53-2.09-.58-2-.52-.43-1.69.56Z"/><path class="cls-1" d="M68.69,59.44a.35.35,0,0,1-.2,0,.41.41,0,0,1-.14-.55,15,15,0,0,1,7.81-6.48,9.21,9.21,0,0,0,3-1.68A9.6,9.6,0,0,0,82,45.2a9,9,0,0,1-5.26,1.11,8.44,8.44,0,0,0-3.17.33,7.5,7.5,0,0,0-2.78,1.7.38.38,0,0,1-.55,0,.4.4,0,0,1,0-.56,8.3,8.3,0,0,1,3.06-1.87,9.29,9.29,0,0,1,3.44-.37,9,9,0,0,0,3.56-.42,8.18,8.18,0,0,0,2-1,.39.39,0,0,1,.43,0,.38.38,0,0,1,.18.39,10.94,10.94,0,0,1-3.21,6.82,10.12,10.12,0,0,1-3.2,1.82A14.24,14.24,0,0,0,69,59.25.39.39,0,0,1,68.69,59.44Z"/><path class="cls-1" d="M70.39,52.34a.43.43,0,0,1-.22-.06.4.4,0,0,1-.11-.55,6.61,6.61,0,0,1,5.56-3.2,9.27,9.27,0,0,0,1.47-.2c1.76-.43,3.39-1.77,4.83-4a.39.39,0,1,1,.66.43c-1.56,2.4-3.34,3.85-5.31,4.33a10.15,10.15,0,0,1-1.58.22,5.81,5.81,0,0,0-5,2.84A.39.39,0,0,1,70.39,52.34Z"/><path class="cls-1" d="M73.6,41.1a.32.32,0,0,1-.16,0c-2.24-1-7.58-4.1-9-9.89A12.64,12.64,0,0,1,64,27.91a.4.4,0,0,1,.79,0,11.39,11.39,0,0,0,.34,3c1.37,5.47,6.47,8.38,8.6,9.38a.39.39,0,0,1,.19.52A.38.38,0,0,1,73.6,41.1Z"/><path class="cls-1" d="M76.42,40.73a.39.39,0,0,1-.23-.07c-1-.72-6.08-4.64-6.06-10.78a11.57,11.57,0,0,1,1.21-5.09.38.38,0,0,1,.52-.18.39.39,0,0,1,.19.52,10.79,10.79,0,0,0-1.13,4.75c0,5.75,4.77,9.46,5.73,10.14a.39.39,0,0,1,.09.55A.38.38,0,0,1,76.42,40.73Z"/><path class="cls-1" d="M78.18,40.41a.4.4,0,0,1-.35-.21A17.29,17.29,0,0,1,76,27.72a15.1,15.1,0,0,1,1.8-4.15.39.39,0,0,1,.55-.13.39.39,0,0,1,.12.54,14.76,14.76,0,0,0-1.71,3.94,16.51,16.51,0,0,0,1.72,11.9.4.4,0,0,1-.15.54A.45.45,0,0,1,78.18,40.41Z"/><path class="cls-1" d="M81,40.1a.4.4,0,0,1-.38-.27,17.24,17.24,0,0,1,.28-11.07,16.1,16.1,0,0,1,3-4.83.39.39,0,0,1,.59.52,15.48,15.48,0,0,0-2.8,4.6,16.36,16.36,0,0,0-.26,10.54.41.41,0,0,1-.26.5Z"/><path class="cls-1" d="M83.9,40.54a.41.41,0,0,1-.4-.35,15.3,15.3,0,0,1,2.17-9.82,14.68,14.68,0,0,1,4.17-4.29.4.4,0,1,1,.44.66,13.85,13.85,0,0,0-4,4.05,14.55,14.55,0,0,0-2,9.31.4.4,0,0,1-.35.44Z"/><path class="cls-1" d="M86.47,41.64h0a.39.39,0,0,1-.37-.41c.05-.73.61-7.17,5.67-9.9a9.91,9.91,0,0,1,4.2-1.14.4.4,0,0,1,.41.37A.4.4,0,0,1,96,31a9,9,0,0,0-3.85,1c-4.7,2.53-5.22,8.58-5.26,9.26A.39.39,0,0,1,86.47,41.64Z"/><path class="cls-1" d="M90.25,44.53h-.07a.39.39,0,0,1-.32-.45,13.38,13.38,0,0,1,5-8.35,12.36,12.36,0,0,1,4.35-2.09.4.4,0,0,1,.48.28.41.41,0,0,1-.28.49,11.67,11.67,0,0,0-4.08,2,12.62,12.62,0,0,0-4.66,7.86A.4.4,0,0,1,90.25,44.53Z"/><path class="cls-1" d="M93,47.67a.35.35,0,0,1-.14,0,.4.4,0,0,1-.23-.51,10.91,10.91,0,0,1,11.18-7,.4.4,0,1,1-.07.79,10.1,10.1,0,0,0-10.37,6.5A.4.4,0,0,1,93,47.67Z"/><path class="cls-1" d="M94.93,50.58a.38.38,0,0,1-.24-.08.4.4,0,0,1-.07-.55,12.42,12.42,0,0,1,11.53-4.83.39.39,0,0,1,.34.44.4.4,0,0,1-.44.34,11.67,11.67,0,0,0-10.8,4.53A.41.41,0,0,1,94.93,50.58Z"/><path class="cls-1" d="M101.31,52.29a.39.39,0,0,1-.35-.22.39.39,0,0,1,.17-.53,8.39,8.39,0,0,1,1.59-.64A9.11,9.11,0,0,1,108,51a.4.4,0,0,1,.25.5.39.39,0,0,1-.49.26,8.33,8.33,0,0,0-4.78-.14,7.84,7.84,0,0,0-1.45.58A.37.37,0,0,1,101.31,52.29Z"/><path class="cls-1" d="M99,60.48a.39.39,0,0,1-.35-.22.39.39,0,0,1,.18-.53,12.12,12.12,0,0,1,2.63-.94,11.74,11.74,0,0,1,3.07-.32,3.08,3.08,0,0,1,3-2.28.39.39,0,0,1,.39.39.4.4,0,0,1-.39.4h0a2.34,2.34,0,0,0-1.41.46,2.43,2.43,0,0,0-.9,1.5.39.39,0,0,1-.41.33,11.71,11.71,0,0,0-3.18.28,11.3,11.3,0,0,0-2.46.89A.39.39,0,0,1,99,60.48Z"/><path class="cls-1" d="M108.07,67.21a.43.43,0,0,1-.22-.06,11.57,11.57,0,0,0-4.23-1.76,11.91,11.91,0,0,0-4-.11.39.39,0,0,1-.11-.78,12.55,12.55,0,0,1,8.82,2,.4.4,0,0,1,.11.55A.4.4,0,0,1,108.07,67.21Z"/><path class="cls-1" d="M106.75,73.35a.39.39,0,0,1-.33-.19,8.21,8.21,0,0,0-7.26-3.9.38.38,0,0,1-.4-.38.39.39,0,0,1,.38-.41,8.94,8.94,0,0,1,8,4.28.39.39,0,0,1-.13.54A.37.37,0,0,1,106.75,73.35Z"/><path class="cls-1" d="M105.34,77.23A.38.38,0,0,1,105,77a7.09,7.09,0,0,0-3.46-3.52,6.92,6.92,0,0,0-3.39-.61.39.39,0,0,1-.42-.36.4.4,0,0,1,.37-.43,7.69,7.69,0,0,1,7.61,4.59.39.39,0,0,1-.19.52A.33.33,0,0,1,105.34,77.23Z"/><path class="cls-1" d="M102.7,82a.41.41,0,0,1-.39-.3,8.28,8.28,0,0,0-2.32-4,8.39,8.39,0,0,0-3.63-2,.39.39,0,1,1,.2-.76,9.08,9.08,0,0,1,6.52,6.65.4.4,0,0,1-.29.48Z"/><path class="cls-1" d="M96.46,87.77a.38.38,0,0,1-.25-.08.4.4,0,0,1-.06-.56,6.63,6.63,0,0,0,1.47-4.26c-.11-3.66-3.48-5.57-3.62-5.65a.4.4,0,0,1-.15-.54.38.38,0,0,1,.53-.15c.16.08,3.9,2.22,4,6.32a7.38,7.38,0,0,1-1.65,4.78A.39.39,0,0,1,96.46,87.77Z"/><path class="cls-1" d="M91.63,89.22a.4.4,0,0,1-.28-.68A8.11,8.11,0,0,0,93,86.26c1.76-3.76,0-7.75-.64-8.88A.4.4,0,0,1,93,77c.63,1.22,2.56,5.5.65,9.59a8.84,8.84,0,0,1-1.75,2.5A.39.39,0,0,1,91.63,89.22Z"/><path class="cls-1" d="M86,88.63a.38.38,0,0,1-.35-.21.39.39,0,0,1,.16-.53,9.11,9.11,0,0,0,3.67-3.6A9.62,9.62,0,0,0,90.1,77a.4.4,0,0,1,.25-.5.41.41,0,0,1,.5.26,10.41,10.41,0,0,1-.72,7.94,9.76,9.76,0,0,1-4,3.91A.31.31,0,0,1,86,88.63Z"/><path class="cls-1" d="M80.34,84a10.12,10.12,0,0,1-1.87-.17.4.4,0,0,1-.31-.46.39.39,0,0,1,.46-.32,8.81,8.81,0,0,0,5.24-.58A9.62,9.62,0,0,0,89,76.06a.39.39,0,0,1,.47-.29.4.4,0,0,1,.29.48,10.4,10.4,0,0,1-5.54,6.89A9.32,9.32,0,0,1,80.34,84Z"/><path class="cls-1" d="M80.38,77.85A11.45,11.45,0,0,1,76.15,77a.39.39,0,0,1-.22-.51.4.4,0,0,1,.52-.22,10.39,10.39,0,0,0,11.37-2.4.38.38,0,0,1,.55,0,.38.38,0,0,1,0,.55,11.14,11.14,0,0,1-5.48,3.12A10.9,10.9,0,0,1,80.38,77.85Z"/><path class="cls-1" d="M82.21,72.62a6.89,6.89,0,0,1-5.69-2.77.41.41,0,0,1,.08-.56.4.4,0,0,1,.55.08A6.27,6.27,0,0,0,79,71c3.59,2.12,8.09-.37,8.59-.66a.4.4,0,0,1,.4.69A12.6,12.6,0,0,1,82.21,72.62Z"/><path class="cls-1" d="M83.72,68.38a5,5,0,0,1-2.57-.66,5.89,5.89,0,0,1-2.6-4.08.39.39,0,0,1,.78-.12A5.08,5.08,0,0,0,81.55,67a5.89,5.89,0,0,0,4.39.23,8.48,8.48,0,0,0,2.35-.93.4.4,0,0,1,.54.15.38.38,0,0,1-.15.53,9.39,9.39,0,0,1-2.56,1A10.79,10.79,0,0,1,83.72,68.38Z"/><path class="cls-1" d="M89.47,64.66h0A7.63,7.63,0,0,1,84,61.83a7.43,7.43,0,0,1-1.5-4.23.4.4,0,0,1,.39-.4.38.38,0,0,1,.4.38,6.62,6.62,0,0,0,1.34,3.77,6.77,6.77,0,0,0,4.86,2.52.4.4,0,0,1,0,.79Z"/><path class="cls-1" d="M92.77,60.44h0a5.53,5.53,0,0,1-4-1.72,5.41,5.41,0,0,1-1-5.49.38.38,0,0,1,.5-.23.39.39,0,0,1,.24.5,4.46,4.46,0,0,0,4.19,6.15.39.39,0,0,1,.4.39A.41.41,0,0,1,92.77,60.44Z"/><path class="cls-1" d="M95.67,58.68a.39.39,0,0,1-.27-.11c-2-1.85-2.78-4.15-2.11-6a4,4,0,0,1,1-1.5.4.4,0,0,1,.56,0,.38.38,0,0,1,0,.55,3.35,3.35,0,0,0-.78,1.2c-.55,1.54.2,3.57,1.91,5.17a.4.4,0,0,1,0,.56A.43.43,0,0,1,95.67,58.68Z"/><path class="cls-1" d="M99.94,57.88a.41.41,0,0,1-.32-.15,4.34,4.34,0,0,1-.56-4.84,3.73,3.73,0,0,1,1.75-1.48.4.4,0,1,1,.31.73,2.94,2.94,0,0,0-1.39,1.16,3.6,3.6,0,0,0,.52,4,.4.4,0,0,1-.07.55A.46.46,0,0,1,99.94,57.88Z"/><path class="cls-1" d="M102.6,58.26a.4.4,0,0,1-.38-.27,3.63,3.63,0,0,1,.48-3.15,3.48,3.48,0,0,1,2.2-1.34.4.4,0,0,1,.46.32.4.4,0,0,1-.33.46,2.64,2.64,0,0,0-1.69,1,2.81,2.81,0,0,0-.37,2.43.39.39,0,0,1-.25.5Z"/><path class="cls-1" d="M107,61.28a.31.31,0,0,1-.13,0,.39.39,0,0,1-.24-.5,2.32,2.32,0,0,1,1.08-1.24,2.36,2.36,0,0,1,1.71-.17.41.41,0,0,1,.26.5.4.4,0,0,1-.49.26,1.53,1.53,0,0,0-1.11.11,1.5,1.5,0,0,0-.71.81A.4.4,0,0,1,107,61.28Z"/><path class="cls-1" d="M108.54,64.26a.41.41,0,0,1-.24-.08.39.39,0,0,1-.07-.56,1.93,1.93,0,0,1,2.22-.62.38.38,0,0,1,.23.51.39.39,0,0,1-.5.23,1.15,1.15,0,0,0-.76,0,1.19,1.19,0,0,0-.57.4A.39.39,0,0,1,108.54,64.26Z"/><path class="cls-1" d="M1.11,72.08a.51.51,0,0,1-.49-.39A19.36,19.36,0,0,1,2.16,57.83a.51.51,0,0,1,.89.49,17.3,17.3,0,0,0-2,9c.5-2.51,1.5-6.78,5.24-9a10.2,10.2,0,0,1,6.58-1.19.51.51,0,0,1,.43.57.5.5,0,0,1-.57.43,9.19,9.19,0,0,0-5.92,1.07C3.27,61.25,2.41,65.52,2,67.81v0a17.17,17.17,0,0,0-.33,3.72.49.49,0,0,1-.44.51Z"/><path class="cls-1" d="M21,89.33h-.12A16.22,16.22,0,0,1,13,87.12,18.23,18.23,0,0,1,8,82c-2.31-3.34-5.21-9.26-5.86-18.54a.51.51,0,0,1,.47-.55.52.52,0,0,1,.54.48c.63,9,3.42,14.75,5.65,18a17.26,17.26,0,0,0,4.73,4.88,15.12,15.12,0,0,0,7.3,2.07,14.56,14.56,0,0,0,10.77-4.55c2.59-3.06,3.4-8.25,2.17-13.9-1.63-7.47-6.2-13.76-11.92-16.43-1.94-.9-8.7-3.56-14.51.19a13,13,0,0,0-4.31,4.7.51.51,0,0,1-.89-.49,13.93,13.93,0,0,1,4.65-5.06,14,14,0,0,1,9.77-1.93,20.68,20.68,0,0,1,5.72,1.67,20.84,20.84,0,0,1,8.11,7.09,28.2,28.2,0,0,1,4.37,10.05,22.91,22.91,0,0,1,.39,8.14,12.92,12.92,0,0,1-2.78,6.62A15.63,15.63,0,0,1,21,89.33Z"/><path class="cls-1" d="M2.55,58.68h0a.51.51,0,0,1-.5-.52l0-1A40,40,0,0,1,2.83,51a29.43,29.43,0,0,1,.73-2.87,41.74,41.74,0,0,1,9-15.65C17.37,27.2,23.15,24,29.24,23.27c.31,0,7.72-.9,17,3.88,1.26.64,5.07,2.6,5,5.1a4.55,4.55,0,0,1-.37,1.4,9.45,9.45,0,0,1-2.5,3.46,17.85,17.85,0,0,1-7.34,4h0a20.52,20.52,0,0,1-7.3-.4,17.85,17.85,0,0,0-3.84-.45C24.94,40.38,20,44.38,16,51.48a.5.5,0,0,1-.69.19A.51.51,0,0,1,15.1,51c4.22-7.42,9.44-11.6,14.72-11.77a17.64,17.64,0,0,1,4.06.47,19.48,19.48,0,0,0,6.94.39,17.29,17.29,0,0,0,6.85-3.71,8.43,8.43,0,0,0,2.24-3.08,3.48,3.48,0,0,0,.3-1.08c.06-1.22-1.42-2.62-4.4-4.15-9-4.62-16.38-3.79-16.45-3.78C16.84,25.83,7.71,37.86,4.53,48.38c-.28.92-.52,1.86-.71,2.79a39.3,39.3,0,0,0-.73,6c0,.34,0,.69,0,1A.52.52,0,0,1,2.55,58.68Z"/><path class="cls-1" d="M18.75,77.7a5.94,5.94,0,0,1-2-.35c-3.85-1.42-4.93-6.66-5.28-8.38a23,23,0,0,1,.85-11.53.52.52,0,0,1,.56-.35,11.19,11.19,0,0,1,1.23.23c5.68,1.37,8.1,6.72,8.7,8.32C23.86,68.5,25,74.51,21.7,76.83A5.12,5.12,0,0,1,18.75,77.7ZM13.13,58.16a21.91,21.91,0,0,0-.7,10.6c.33,1.59,1.32,6.41,4.64,7.63A4.62,4.62,0,0,0,21.12,76c2.58-1.81,1.81-7.1.71-10-.56-1.49-2.79-6.44-8-7.69C13.71,58.28,13.47,58.22,13.13,58.16Z"/><path class="cls-1" d="M50.72,32.79a.56.56,0,0,1-.53-.37.57.57,0,0,1,.34-.73,13.75,13.75,0,0,1,6.36-.75,17.84,17.84,0,0,1,3.53.76.56.56,0,0,1,.33.72.57.57,0,0,1-.73.33,17.11,17.11,0,0,0-3.26-.69,12.63,12.63,0,0,0-5.85.69A.43.43,0,0,1,50.72,32.79Z"/><path class="cls-1" d="M51.73,79.71a6.26,6.26,0,0,1-3.62-1.22C46.26,77.1,45.82,75,45.3,72.64A10.79,10.79,0,0,1,45,70.29a6.81,6.81,0,0,0-.2-1.74,10.66,10.66,0,0,0-1.32-3.23,11.54,11.54,0,0,1-1.27-3,12.37,12.37,0,0,1-.26-5A6.38,6.38,0,0,1,40,53.51,6.28,6.28,0,0,1,40.64,50a13,13,0,0,1-.85-6,12.55,12.55,0,0,1,1-3.74.56.56,0,0,1,1,.43,11.71,11.71,0,0,0-.87,3.42,12,12,0,0,0,.87,5.74.6.6,0,0,1,0,.49,5.14,5.14,0,0,0-.61,3,5.28,5.28,0,0,0,1.79,3.35.55.55,0,0,1,.19.51,11.77,11.77,0,0,0,.19,4.83,10.78,10.78,0,0,0,1.17,2.69,11.81,11.81,0,0,1,1.44,3.54,8.3,8.3,0,0,1,.23,2,9,9,0,0,0,.26,2.13c.48,2.27.86,4,2.38,5.19a5.15,5.15,0,0,0,3.2,1,2.88,2.88,0,0,0,1.51-.4c1-.66,1.25-2,1.42-3A7.16,7.16,0,0,0,55,73.36a.56.56,0,0,1,.52-.61.58.58,0,0,1,.61.52A8.91,8.91,0,0,1,56,75.4c-.2,1.12-.5,2.8-1.91,3.72a4,4,0,0,1-2.06.58Z"/><path class="cls-1" d="M53.06,49l-1.79-1.32a.29.29,0,0,1-.09-.36l0-.07h0a8.23,8.23,0,0,0,.68-1.32c0-.11.09-.23.13-.35l.12-.36a2.64,2.64,0,0,0,.17-.67.45.45,0,0,0,0-.24.34.34,0,0,0-.11-.17c-.09-.09-.38-.19-.63-.35a3.16,3.16,0,0,1-1.13-1.28h0a.33.33,0,0,1,.15-.45.35.35,0,0,1,.46.16h0a2.44,2.44,0,0,0,.88,1,2.88,2.88,0,0,0,.31.17,1.7,1.7,0,0,1,.4.25.76.76,0,0,1,.19.21,1.15,1.15,0,0,1,.12.25,1.2,1.2,0,0,1,.06.52,3.36,3.36,0,0,1-.21.83l-.12.37c0,.12-.09.25-.14.37a8.42,8.42,0,0,1-.74,1.43h0l-.05-.43,1.45,1.68a.1.1,0,0,1,0,.14A.11.11,0,0,1,53.06,49Z"/><path class="cls-1" d="M52.55,69.81h-.08a.34.34,0,0,1-.25-.41l.43-1.79a.34.34,0,1,1,.66.16l-.43,1.79A.33.33,0,0,1,52.55,69.81Z"/><path class="cls-1" d="M44.27,57.82a6.19,6.19,0,0,1-1.82-.29.39.39,0,0,1-.26-.49.38.38,0,0,1,.49-.26,4.3,4.3,0,0,0,2.86,0c.2-.08.39-.18.59-.28A4,4,0,0,1,47.74,56a3.93,3.93,0,0,1,.84,0,11.3,11.3,0,0,0-3-3.46,11.14,11.14,0,0,0-4.44-2,.39.39,0,1,1,.17-.77,11.9,11.9,0,0,1,8.32,6.69.4.4,0,0,1-.06.43.41.41,0,0,1-.42.11,3.23,3.23,0,0,0-1.36-.17,3.44,3.44,0,0,0-1.32.47,7,7,0,0,1-.67.33A4.13,4.13,0,0,1,44.27,57.82Z"/><path class="cls-1" d="M43.17,57.49a4.62,4.62,0,0,1-.82-.07.4.4,0,0,1,.15-.78,3.21,3.21,0,0,0,3.36-1.34,3.14,3.14,0,0,0,.25-2.47.4.4,0,0,1,.27-.49.39.39,0,0,1,.49.26,3.7,3.7,0,0,1-3.7,4.89Z"/><path class="cls-1" d="M44.88,51.54a2.64,2.64,0,0,1-3.6,3.78c-.12-.2-.23-.41-.35-.62l-.53-2.09.58-2,.51-.43,1.7.56Z"/><path class="cls-1" d="M42.4,59.44a.37.37,0,0,1-.34-.19,14.78,14.78,0,0,0-4.14-4.46,14.61,14.61,0,0,0-3.29-1.7,10.12,10.12,0,0,1-3.2-1.82,10.9,10.9,0,0,1-3.22-6.82.4.4,0,0,1,.62-.38,8.3,8.3,0,0,0,2,1,9,9,0,0,0,3.56.42,9.32,9.32,0,0,1,3.45.37,8.3,8.3,0,0,1,3.06,1.87.4.4,0,0,1-.54.58,7.46,7.46,0,0,0-2.77-1.7,8.44,8.44,0,0,0-3.17-.33,9.78,9.78,0,0,1-3.85-.47,9.39,9.39,0,0,1-1.41-.64A9.65,9.65,0,0,0,32,50.68a9.36,9.36,0,0,0,3,1.68,15.78,15.78,0,0,1,3.44,1.78,15.5,15.5,0,0,1,4.36,4.7.39.39,0,0,1-.13.55A.35.35,0,0,1,42.4,59.44Z"/><path class="cls-1" d="M40.7,52.34a.38.38,0,0,1-.33-.18,5.84,5.84,0,0,0-5-2.84,10.15,10.15,0,0,1-1.58-.22c-2-.48-3.76-1.93-5.31-4.33a.39.39,0,1,1,.66-.43c1.44,2.22,3.07,3.56,4.83,4a9.27,9.27,0,0,0,1.47.2,7.18,7.18,0,0,1,3.07.81A7.09,7.09,0,0,1,41,51.73a.39.39,0,0,1-.33.61Z"/><path class="cls-1" d="M37.48,41.1a.38.38,0,0,1-.35-.23.38.38,0,0,1,.19-.52c2.13-1,7.23-3.91,8.6-9.38a11.82,11.82,0,0,0,.34-3,.38.38,0,0,1,.38-.4.39.39,0,0,1,.41.38,12.22,12.22,0,0,1-.37,3.26c-1.45,5.79-6.8,8.85-9,9.89A.33.33,0,0,1,37.48,41.1Z"/><path class="cls-1" d="M34.67,40.73a.36.36,0,0,1-.32-.16.39.39,0,0,1,.09-.55c1-.68,5.75-4.39,5.73-10.14A11.07,11.07,0,0,0,39,25.13a.4.4,0,0,1,.18-.52.39.39,0,0,1,.53.18A11.7,11.7,0,0,1,41,29.88C41,36,35.91,39.94,34.9,40.66A.39.39,0,0,1,34.67,40.73Z"/><path class="cls-1" d="M32.91,40.41a.45.45,0,0,1-.19,0,.41.41,0,0,1-.16-.54,16.46,16.46,0,0,0,1.72-11.9A14.42,14.42,0,0,0,32.58,24a.39.39,0,0,1,.12-.54.39.39,0,0,1,.55.13,15.41,15.41,0,0,1,1.8,4.15A17.29,17.29,0,0,1,33.26,40.2.4.4,0,0,1,32.91,40.41Z"/><path class="cls-1" d="M30.07,40.1H30a.4.4,0,0,1-.26-.5,16.36,16.36,0,0,0-.26-10.54,15.48,15.48,0,0,0-2.8-4.6.39.39,0,0,1,.59-.52,16.27,16.27,0,0,1,2.94,4.83,17.17,17.17,0,0,1,.28,11.07A.38.38,0,0,1,30.07,40.1Z"/><path class="cls-1" d="M27.19,40.54h0a.4.4,0,0,1-.35-.44,14.5,14.5,0,0,0-2.05-9.31,13.82,13.82,0,0,0-3.94-4.05.4.4,0,0,1,.44-.66,14.68,14.68,0,0,1,4.17,4.29,15.28,15.28,0,0,1,2.16,9.82A.39.39,0,0,1,27.19,40.54Z"/><path class="cls-1" d="M24.62,41.64a.39.39,0,0,1-.39-.37c-.05-.68-.57-6.73-5.26-9.26a9.08,9.08,0,0,0-3.86-1,.4.4,0,0,1-.37-.42.39.39,0,0,1,.41-.37,9.83,9.83,0,0,1,4.19,1.14c5.07,2.73,5.63,9.17,5.68,9.9a.39.39,0,0,1-.37.41Z"/><path class="cls-1" d="M20.84,44.53a.39.39,0,0,1-.39-.32,12.62,12.62,0,0,0-4.66-7.86,11.76,11.76,0,0,0-4.08-2,.41.41,0,0,1-.28-.49.4.4,0,0,1,.48-.28,12.36,12.36,0,0,1,4.35,2.09,13.38,13.38,0,0,1,5,8.35.4.4,0,0,1-.32.45Z"/><path class="cls-1" d="M18.12,47.67a.4.4,0,0,1-.37-.26,10.1,10.1,0,0,0-10.37-6.5.4.4,0,0,1-.07-.79,11.09,11.09,0,0,1,6.45,1.43,11.08,11.08,0,0,1,4.73,5.58.4.4,0,0,1-.23.51Z"/><path class="cls-1" d="M16.15,50.58a.4.4,0,0,1-.31-.15A11.69,11.69,0,0,0,5,45.9a.39.39,0,0,1-.44-.34.38.38,0,0,1,.34-.44,12.53,12.53,0,0,1,5.8.62A12.65,12.65,0,0,1,16.47,50a.39.39,0,0,1-.08.55A.35.35,0,0,1,16.15,50.58Z"/><path class="cls-1" d="M9.78,52.29a.45.45,0,0,1-.19,0,7.48,7.48,0,0,0-1.44-.58,8.33,8.33,0,0,0-4.78.14A.4.4,0,0,1,3.13,51a9.11,9.11,0,0,1,5.24-.14,8.67,8.67,0,0,1,1.59.64.4.4,0,0,1-.18.75Z"/><path class="cls-1" d="M12.12,60.48a.39.39,0,0,1-.18,0,11.24,11.24,0,0,0-5.65-1.17.38.38,0,0,1-.4-.33,2.43,2.43,0,0,0-.9-1.5A2.31,2.31,0,0,0,3.56,57h0a.4.4,0,0,1-.39-.4.38.38,0,0,1,.39-.39,3.1,3.1,0,0,1,1.91.62,3.16,3.16,0,0,1,1.13,1.66,11.79,11.79,0,0,1,3.07.32,12.31,12.31,0,0,1,2.63.94.39.39,0,0,1,.18.53A.39.39,0,0,1,12.12,60.48Z"/><path class="cls-1" d="M3,67.21A.4.4,0,0,1,2.69,67a.4.4,0,0,1,.11-.55,12.52,12.52,0,0,1,8.82-2A.39.39,0,0,1,12,65a.38.38,0,0,1-.45.33,11.86,11.86,0,0,0-4,.11,11.5,11.5,0,0,0-4.23,1.76A.46.46,0,0,1,3,67.21Z"/><path class="cls-1" d="M4.33,73.35a.36.36,0,0,1-.2-.06A.38.38,0,0,1,4,72.75a9,9,0,0,1,3.42-3.23,9.14,9.14,0,0,1,4.53-1,.4.4,0,0,1,0,.79,8.29,8.29,0,0,0-4.13,1,8.18,8.18,0,0,0-3.12,2.94A.39.39,0,0,1,4.33,73.35Z"/><path class="cls-1" d="M5.74,77.23a.32.32,0,0,1-.16,0,.39.39,0,0,1-.2-.52,8,8,0,0,1,3.85-3.91A7.82,7.82,0,0,1,13,72.08a.41.41,0,0,1,.37.43.4.4,0,0,1-.42.36,6.92,6.92,0,0,0-3.39.61A7.09,7.09,0,0,0,6.1,77,.4.4,0,0,1,5.74,77.23Z"/><path class="cls-1" d="M8.39,82H8.3A.4.4,0,0,1,8,81.54a9.08,9.08,0,0,1,6.52-6.65.39.39,0,0,1,.2.76,8.3,8.3,0,0,0-6,6.08A.39.39,0,0,1,8.39,82Z"/><path class="cls-1" d="M14.63,87.77a.43.43,0,0,1-.31-.14,7.44,7.44,0,0,1-1.64-4.78c.13-4.1,3.87-6.24,4-6.32a.38.38,0,0,1,.53.15.4.4,0,0,1-.15.54c-.14.08-3.51,2-3.62,5.65a6.57,6.57,0,0,0,1.47,4.26.4.4,0,0,1-.06.56A.39.39,0,0,1,14.63,87.77Z"/><path class="cls-1" d="M19.46,89.22a.39.39,0,0,1-.28-.12,9.08,9.08,0,0,1-1.76-2.5c-1.91-4.09,0-8.37.66-9.59a.4.4,0,0,1,.7.37c-.59,1.13-2.4,5.12-.64,8.88a8.11,8.11,0,0,0,1.6,2.28.4.4,0,0,1,0,.56A.39.39,0,0,1,19.46,89.22Z"/><path class="cls-1" d="M25.13,88.63a.34.34,0,0,1-.19,0,9.88,9.88,0,0,1-4-3.91,10.44,10.44,0,0,1-.71-7.94A.39.39,0,1,1,21,77a9.61,9.61,0,0,0,.65,7.32,9.13,9.13,0,0,0,3.68,3.6.39.39,0,0,1,.16.53A.38.38,0,0,1,25.13,88.63Z"/><path class="cls-1" d="M30.75,84a9.26,9.26,0,0,1-3.85-.81,10.37,10.37,0,0,1-5.54-6.89.39.39,0,0,1,.29-.48.39.39,0,0,1,.47.29,9.63,9.63,0,0,0,5.1,6.36,8.85,8.85,0,0,0,5.25.58.4.4,0,1,1,.14.78A10,10,0,0,1,30.75,84Z"/><path class="cls-1" d="M30.7,77.85a10.88,10.88,0,0,1-2.51-.29,11.14,11.14,0,0,1-5.48-3.12.39.39,0,1,1,.56-.54,10.39,10.39,0,0,0,11.37,2.4.41.41,0,0,1,.52.22.39.39,0,0,1-.22.51A11.46,11.46,0,0,1,30.7,77.85Z"/><path class="cls-1" d="M28.88,72.62A12.55,12.55,0,0,1,23.15,71a.4.4,0,0,1,.4-.69c.5.29,5,2.78,8.59.66a6.27,6.27,0,0,0,1.8-1.62.4.4,0,0,1,.55-.08.41.41,0,0,1,.08.56,6.89,6.89,0,0,1-5.69,2.77Z"/><path class="cls-1" d="M27.37,68.38A10.79,10.79,0,0,1,25,68a9.26,9.26,0,0,1-2.56-1,.38.38,0,0,1-.15-.53.4.4,0,0,1,.54-.15,8.48,8.48,0,0,0,2.35.93A5.89,5.89,0,0,0,29.54,67a5.08,5.08,0,0,0,2.22-3.52.39.39,0,0,1,.45-.33.4.4,0,0,1,.33.45,5.92,5.92,0,0,1-2.6,4.08A5,5,0,0,1,27.37,68.38Z"/><path class="cls-1" d="M21.61,64.66a.39.39,0,0,1-.39-.37.41.41,0,0,1,.37-.42,6.77,6.77,0,0,0,4.86-2.52,6.62,6.62,0,0,0,1.34-3.77.39.39,0,1,1,.78,0,7.4,7.4,0,0,1-1.49,4.23,7.65,7.65,0,0,1-5.44,2.83Z"/><path class="cls-1" d="M18.32,60.44a.4.4,0,0,1-.4-.4.39.39,0,0,1,.4-.39,4.46,4.46,0,0,0,4.19-6.15.39.39,0,0,1,.24-.5.38.38,0,0,1,.5.23,5.41,5.41,0,0,1-1,5.49,5.55,5.55,0,0,1-3.95,1.72Z"/><path class="cls-1" d="M15.42,58.68a.43.43,0,0,1-.29-.13.4.4,0,0,1,0-.56c1.71-1.6,2.46-3.63,1.91-5.17a3.35,3.35,0,0,0-.78-1.2.38.38,0,0,1,0-.55.38.38,0,0,1,.55,0,4.07,4.07,0,0,1,1,1.5c.67,1.86-.14,4.16-2.11,6A.4.4,0,0,1,15.42,58.68Z"/><path class="cls-1" d="M11.15,57.88a.43.43,0,0,1-.24-.08.4.4,0,0,1-.07-.55,3.6,3.6,0,0,0,.52-4A3,3,0,0,0,10,52.14a.4.4,0,0,1,.31-.73A3.73,3.73,0,0,1,12,52.89a4.34,4.34,0,0,1-.56,4.84A.41.41,0,0,1,11.15,57.88Z"/><path class="cls-1" d="M8.49,58.26l-.12,0a.39.39,0,0,1-.25-.5,2.85,2.85,0,0,0-.37-2.43,2.63,2.63,0,0,0-1.7-1,.4.4,0,0,1,.14-.78,3.5,3.5,0,0,1,2.2,1.34A3.71,3.71,0,0,1,8.87,58,.4.4,0,0,1,8.49,58.26Z"/><path class="cls-1" d="M4.12,61.28A.4.4,0,0,1,3.74,61a1.43,1.43,0,0,0-.7-.81,1.53,1.53,0,0,0-1.11-.11.4.4,0,0,1-.23-.76,2.36,2.36,0,0,1,1.71.17,2.32,2.32,0,0,1,1.08,1.24.39.39,0,0,1-.24.5A.31.31,0,0,1,4.12,61.28Z"/><path class="cls-1" d="M2.55,64.26a.39.39,0,0,1-.31-.15,1.24,1.24,0,0,0-.57-.4,1.15,1.15,0,0,0-.76,0,.41.41,0,0,1-.51-.23A.4.4,0,0,1,.63,63a2,2,0,0,1,1.28,0,2,2,0,0,1,1,.66.41.41,0,0,1-.07.56A.43.43,0,0,1,2.55,64.26Z"/><path class="cls-1" d="M55.47,82.29H55.3A8,8,0,0,1,49.12,79a.56.56,0,0,1,.92-.65,6.67,6.67,0,0,0,10.82.07.57.57,0,0,1,.79-.12.56.56,0,0,1,.11.79A8.17,8.17,0,0,1,55.47,82.29Z"/><path class="cls-1" d="M57.54,100l-.12,0a6.88,6.88,0,0,1-4.06-3.07,6.51,6.51,0,0,1-.74-2.73,9.41,9.41,0,0,1,.42-3.6,4,4,0,0,0,.15-2.56,3.55,3.55,0,0,0-.54-1,12.08,12.08,0,0,1,.09,1.47,7.27,7.27,0,0,1-1.31,4.87A5.88,5.88,0,0,1,48,95.37a.39.39,0,0,1-.3-.71c1.58-1.1,2.38-2.2,2.39-3.25s-.84-1.75-1.8-2.54a5.83,5.83,0,0,1-2.56-3.62,8.25,8.25,0,0,1,.41-3.39,5,5,0,0,0,.22-3c-.07-.19-.31-.75-.67-.83a.93.93,0,0,0-.53.14c-.69.41-.89,3-.73,5.33a.38.38,0,0,1-.26.4.4.4,0,0,1-.46-.16c-1.19-1.8-2.55-4.5-2.25-7.07a10.45,10.45,0,0,1,.18-1.11,14.92,14.92,0,0,1,1.41-3.84c.11-.22.21-.42.29-.61a11,11,0,0,0,.93-4.77.41.41,0,0,1,.39-.4h0a.4.4,0,0,1,.39.39,11.93,11.93,0,0,1-1,5.11c-.09.2-.2.41-.31.63a14.67,14.67,0,0,0-1.34,3.65c-.08.43-.14.82-.17,1A9.2,9.2,0,0,0,43.61,82c0-1.73.18-3.94,1.17-4.52a1.63,1.63,0,0,1,1.1-.23c.76.17,1.1,1,1.23,1.29a5.46,5.46,0,0,1-.19,3.48,7.74,7.74,0,0,0-.39,3.07,5.13,5.13,0,0,0,2.28,3.13c1,.84,2.09,1.71,2.08,3.15a3.65,3.65,0,0,1-1,2.34,4.58,4.58,0,0,0,.9-.82A6.5,6.5,0,0,0,52,88.55a10.05,10.05,0,0,0-.29-2.5.4.4,0,0,1,.62-.41,4.19,4.19,0,0,1,1.52,5.17,8.74,8.74,0,0,0-.39,3.33,5.78,5.78,0,0,0,.64,2.42,5.44,5.44,0,0,0,2.21,2.12,6.74,6.74,0,0,1-1.14-3.37,7.18,7.18,0,0,1,.53-3,7.09,7.09,0,0,1,1.41-2.23,6.16,6.16,0,0,0,1.3-2.1,13.4,13.4,0,0,0,.58-2.15c.08-.41.35-.42.46-.41a.41.41,0,0,1,.34.44,8.36,8.36,0,0,0,1.08,5,8.59,8.59,0,0,0,.5.73,4.86,4.86,0,0,1,.43-2.46,4.38,4.38,0,0,1,1.6-1.75,2.89,2.89,0,0,0,1.13-1.19c.41-.91-.06-1.91-.52-2.89s-1-2-.33-2.86a1.8,1.8,0,0,1,2.87-.18A3.06,3.06,0,0,1,67.39,82a2.29,2.29,0,0,1,.1-.23,9.23,9.23,0,0,0,.77-4.44,5.17,5.17,0,0,0-.73-2.07c-.16-.3-.34-.65-.54-1.07a17.68,17.68,0,0,1-1.52-6.35.4.4,0,0,1,.38-.41.38.38,0,0,1,.41.37,16.76,16.76,0,0,0,1.45,6.06c.18.41.36.74.51,1a6.23,6.23,0,0,1,.83,2.35,10.09,10.09,0,0,1-.83,4.83,12.34,12.34,0,0,1-.88,1.74.4.4,0,0,1-.48.16.39.39,0,0,1-.25-.43A3.35,3.35,0,0,0,66,80.81a1.26,1.26,0,0,0-.86-.42,1.19,1.19,0,0,0-.83.49c-.33.43-.06,1.06.4,2.06s1.09,2.31.53,3.55A3.64,3.64,0,0,1,63.81,88a3.67,3.67,0,0,0-1.35,1.45,4.81,4.81,0,0,0-.16,3.28.4.4,0,0,1-.18.44.39.39,0,0,1-.47-.06,8.17,8.17,0,0,1-1.5-1.87,8.41,8.41,0,0,1-1.08-2.9,7.21,7.21,0,0,1-1.41,2.25,6.6,6.6,0,0,0-1.75,4.69,6.48,6.48,0,0,0,1.91,4.09.39.39,0,0,1,0,.48A.39.39,0,0,1,57.54,100Z"/><path class="cls-2" d="M62.25,10.1A3.29,3.29,0,0,0,61.44,8a2.61,2.61,0,0,0-2.08-1,1.89,1.89,0,0,0-.81.19,3.87,3.87,0,0,0-1.19.85,10.05,10.05,0,0,0-2,3.33c-.05.12-.09.25-.13.37l-.13-.37a10.08,10.08,0,0,0-2-3.33A3.71,3.71,0,0,0,52,7.22,1.93,1.93,0,0,0,51.13,7a2.61,2.61,0,0,0-2.07,1,3.29,3.29,0,0,0-.81,2.12,4.74,4.74,0,0,0,.48,2.16c.16.33.33.66.5,1a1.54,1.54,0,0,0,.25.36A.91.91,0,0,0,51,13.16a.92.92,0,0,0-.11-.67c-.2-.39-.41-.77-.59-1.17a2.36,2.36,0,0,1-.2-1.46,1.21,1.21,0,0,1,.68-.93.53.53,0,0,1,.49,0,2.21,2.21,0,0,1,.57.48,8.51,8.51,0,0,1,1.74,3.26,19.2,19.2,0,0,1,.7,4.45c0,.12,0,.24,0,.36q0,.72,0,1.44v.34c0,.91-.08,1.82-.12,2.74,0,.27,0,.55,0,.82a1.05,1.05,0,0,0,1.06.86h.07a1,1,0,0,0,1-.86c0-.27,0-.55,0-.82,0-.92-.09-1.83-.12-2.74,0-.12,0-.23,0-.34,0-.48,0-1,0-1.44,0-.12,0-.24,0-.36a19.2,19.2,0,0,1,.7-4.45,8.63,8.63,0,0,1,1.73-3.26A2.43,2.43,0,0,1,59.2,9a.53.53,0,0,1,.49,0,1.21,1.21,0,0,1,.68.93,2.37,2.37,0,0,1-.21,1.46c-.17.4-.38.78-.58,1.17a.92.92,0,0,0-.11.67.89.89,0,0,0,.62.69.88.88,0,0,0,.92-.24,1.29,1.29,0,0,0,.25-.36q.27-.5.51-1A4.87,4.87,0,0,0,62.25,10.1Z"/><path class="cls-1" d="M26.5,101.19a.11.11,0,0,1,0-.21A6.61,6.61,0,0,0,29,99.53c.71-.73.93-2.26,1.16-3.07a.11.11,0,0,1,.22,0c.14.81.19,2.28,1,3.09A5.74,5.74,0,0,0,34,101a.11.11,0,0,1,0,.21,5.59,5.59,0,0,0-2.45,1.27c-.77.79-1,2.38-1.15,3.15a.11.11,0,0,1-.22,0c-.23-.8-.46-2.5-1.35-3.34A5.87,5.87,0,0,0,26.5,101.19Z"/><path class="cls-1" d="M36.91,105.26a1.15,1.15,0,1,1-1.14-1.14A1.14,1.14,0,0,1,36.91,105.26Z"/><path class="cls-1" d="M35.25,95.81a.58.58,0,1,1-.58-.58A.58.58,0,0,1,35.25,95.81Z"/><path class="cls-1" d="M40.33,98.05a.84.84,0,0,1-.84.83.83.83,0,0,1,0-1.66A.84.84,0,0,1,40.33,98.05Z"/><path class="cls-1" d="M75.42,102.45a.11.11,0,0,1,0-.21,6.43,6.43,0,0,0,2.51-1.44c.71-.73.93-2.26,1.16-3.07a.11.11,0,0,1,.22,0c.14.81.19,2.29,1,3.1a5.75,5.75,0,0,0,2.66,1.42.12.12,0,0,1,0,.22,5.59,5.59,0,0,0-2.45,1.27c-.77.79-1,2.38-1.15,3.14a.11.11,0,0,1-.22,0c-.23-.81-.46-2.5-1.35-3.34A6,6,0,0,0,75.42,102.45Z"/><circle class="cls-1" cx="62.13" cy="106.69" r="1.14"/><path class="cls-1" d="M93.37,95.22a1.15,1.15,0,1,1-1.14-1.14A1.14,1.14,0,0,1,93.37,95.22Z"/><path class="cls-1" d="M75.66,10.26a1.15,1.15,0,1,1-1.14-1.15A1.14,1.14,0,0,1,75.66,10.26Z"/><path class="cls-1" d="M40.89,16.41a1.15,1.15,0,1,1-1.14-1.14A1.15,1.15,0,0,1,40.89,16.41Z"/><path class="cls-1" d="M22.19,16.37a1.15,1.15,0,1,1-2.29,0,1.15,1.15,0,0,1,2.29,0Z"/><circle class="cls-1" cx="71.82" cy="92.68" r="0.83"/><path class="cls-1" d="M48.37,110.29a.83.83,0,0,1-.83.83.83.83,0,1,1,0-1.66A.83.83,0,0,1,48.37,110.29Z"/><circle class="cls-1" cx="70.47" cy="111.76" r="0.83"/><path class="cls-1" d="M90.93,19.08a.85.85,0,0,1-.84.84.84.84,0,0,1-.83-.84.83.83,0,0,1,.83-.83A.84.84,0,0,1,90.93,19.08Z"/><circle class="cls-1" cx="68.17" cy="18.31" r="0.83"/><path class="cls-1" d="M53.09.83a.83.83,0,1,1-1.66,0,.83.83,0,0,1,1.66,0Z"/><circle class="cls-1" cx="33.95" cy="8.69" r="0.83"/><path class="cls-1" d="M8.36,27.87A.84.84,0,1,1,7.52,27,.83.83,0,0,1,8.36,27.87Z"/><path class="cls-1" d="M16.33,95.16a.83.83,0,1,1-1.66,0,.83.83,0,1,1,1.66,0Z"/><path class="cls-1" d="M82.82,93.85a.56.56,0,0,1-.57.57.57.57,0,0,1-.58-.57.58.58,0,0,1,.58-.58A.57.57,0,0,1,82.82,93.85Z"/><path class="cls-1" d="M102,27.56a.57.57,0,0,1-.58.57.56.56,0,0,1-.57-.57.57.57,0,0,1,.57-.58A.58.58,0,0,1,102,27.56Z"/><path class="cls-1" d="M63,1.11a.58.58,0,1,1-.58-.57A.58.58,0,0,1,63,1.11Z"/></g></g></svg>