<svg version="1.1" id="Layer_1" xmlns="http://www.w3.org/2000/svg" xmlns:xlink="http://www.w3.org/1999/xlink" x="0px" y="0px"
	 width="100%" viewBox="0 0 1070.149 400" enable-background="new 0 0 1070.149 400" xml:space="preserve">
<g>
	<path fill="none" stroke="#FFFFFF" stroke-width="1.1506" stroke-miterlimit="10" d="M1054.741,43.119
		c-15.373,0-27.836-12.463-27.836-27.837c0-0.304,0.014-0.605,0.021-0.907H41.551c0.01,0.302,0.022,0.603,0.022,0.907
		c0,15.187-12.163,27.524-27.278,27.823v311.012c0.961-0.1,1.936-0.152,2.922-0.152c15.373,0,27.836,12.463,27.836,27.836
		c0,1.299-0.096,2.572-0.268,3.824h983.409c-0.084-0.877-0.129-1.766-0.129-2.664c0-15.357,12.438-27.811,27.789-27.836V43.091
		C1055.485,43.106,1055.114,43.119,1054.741,43.119z"/>
</g>
</svg>
