<svg xmlns="http://www.w3.org/2000/svg" viewBox="0 0 107.94 112.85"><defs><style>.cls-1{fill:#fff;}.cls-2{fill:#c4ab5b;}</style></defs><g id="Layer_2" data-name="Layer 2"><g id="Text"><path class="cls-1" d="M53,71.34a.55.55,0,0,1-.41-.18.57.57,0,0,1,0-.8c1.1-1,4-4.1,4-5.76s-2.91-5.92-4-7.39a.57.57,0,0,1,.11-.79.56.56,0,0,1,.79.11c.44.57,4.26,5.67,4.26,8.07s-3.88,6.17-4.32,6.58A.59.59,0,0,1,53,71.34Z"/><path class="cls-1" d="M53,71.34a.57.57,0,0,1-.38-.16c-.44-.41-4.32-4.13-4.32-6.58s3.82-7.5,4.25-8.07a.56.56,0,1,1,.9.68c-1.12,1.47-4,5.68-4,7.39s2.86,4.72,4,5.76a.57.57,0,0,1-.39,1Z"/><path class="cls-1" d="M53,88.62A.73.73,0,0,1,53,87.16a23,23,0,0,0,11.3-3.94c3.11-2.15,4.72-4.44,6.95-7.62,1.93-2.76,4.85-6.92,5.15-12.54a19.05,19.05,0,0,0-2.89-11.47c-2.58-4-6.68-6.76-12.2-8.26a30.14,30.14,0,0,0-8.17-1.08.74.74,0,0,1,0-1.47c.61,0,14.94-.34,21.64,10a20.54,20.54,0,0,1,3.12,12.35c-.32,6-3.38,10.41-5.41,13.3-2.23,3.18-4,5.69-7.32,8a24.44,24.44,0,0,1-12,4.19Z"/><path class="cls-1" d="M53,88.51a20.72,20.72,0,0,1-8-1.59c-5.09-2.15-7.75-5.8-10.83-10-1.91-2.62-5.46-7.5-5.79-13.77a20.42,20.42,0,0,1,3.1-12.28c6.67-10.3,20.94-10,21.55-10a.62.62,0,1,1,0,1.24,31.15,31.15,0,0,0-8.2,1.09c-5.55,1.51-9.67,4.3-12.27,8.3a19.24,19.24,0,0,0-2.9,11.55c.31,5.9,3.72,10.58,5.56,13.1,3.09,4.24,5.53,7.59,10.3,9.6A19.44,19.44,0,0,0,53,87.27h0a.62.62,0,0,1,.62.62.62.62,0,0,1-.62.62Z"/><path class="cls-1" d="M71.9,53.07a.43.43,0,0,1-.28-.11,23.54,23.54,0,0,0-14.14-6.64.4.4,0,0,1,.07-.79,24,24,0,0,1,14.63,6.86.41.41,0,0,1,0,.57A.43.43,0,0,1,71.9,53.07Z"/><path class="cls-1" d="M76,55.71a.57.57,0,0,1-.21-1.09A24.11,24.11,0,0,0,81,51.77,5.32,5.32,0,0,0,82.54,50a4.93,4.93,0,0,0,.25-.65v0a3.4,3.4,0,0,0-.11-2.54,2.36,2.36,0,0,0-1.92-1.26h0c-.45,0-1.06.45-2.27,1.39-.65.51-1.07.88-1.61,1.35l-1.19,1c-.58.49-1.17,1-1.76,1.44a.57.57,0,0,1-.7-.89c.58-.46,1.16-.93,1.73-1.41s.85-.73,1.17-1c.53-.47,1-.87,1.67-1.4,1.35-1,2.1-1.63,3-1.63h0a3.45,3.45,0,0,1,2.92,1.89,4.55,4.55,0,0,1,.19,3.38v0a5.8,5.8,0,0,1-.32.82,6.52,6.52,0,0,1-1.82,2.19,25.28,25.28,0,0,1-5.51,3A.52.52,0,0,1,76,55.71Z"/><path class="cls-1" d="M83.48,39.55a4.36,4.36,0,0,1-2.73-.85,5.3,5.3,0,0,1-1.45-2,8.35,8.35,0,0,1-.83-2.23h0a4.15,4.15,0,0,1,.5-3.2c.9-1.33,2.5-1.73,4.06-2a4,4,0,0,1,2.26,0,3.89,3.89,0,0,1,2,2.62,10.26,10.26,0,0,1,.7,3.31,4.37,4.37,0,0,1-1.34,3.34,4.31,4.31,0,0,1-2.68,1Zm-3.91-5.3a7.11,7.11,0,0,0,.73,1.93,4.34,4.34,0,0,0,1.14,1.63,3.53,3.53,0,0,0,2.41.6,2.86,2.86,0,0,0,3-3.19,9.38,9.38,0,0,0-.63-3c-.29-.85-.65-1.67-1.32-1.94a3,3,0,0,0-1.62,0c-1.34.25-2.69.58-3.34,1.55a3.07,3.07,0,0,0-.34,2.34Z"/><path class="cls-1" d="M80.19,45.6a.62.62,0,0,1-.32-.09.57.57,0,0,1-.15-.79,8.26,8.26,0,0,0,1.26-3,8.07,8.07,0,0,0,0-3,.57.57,0,0,1,.46-.66.56.56,0,0,1,.65.46,9.36,9.36,0,0,1-1.45,6.9A.54.54,0,0,1,80.19,45.6Z"/><path class="cls-1" d="M83.55,47.81a.56.56,0,0,1-.38-1,9.64,9.64,0,0,0,1.67-2.11A10.45,10.45,0,0,0,86,37.9a.56.56,0,1,1,1.11-.18,11.59,11.59,0,0,1-1.29,7.58,10.51,10.51,0,0,1-1.87,2.35A.54.54,0,0,1,83.55,47.81Z"/><path class="cls-1" d="M81.69,30.71H81.6a.57.57,0,0,1-.47-.64A11,11,0,0,0,77.3,20a.56.56,0,0,1,.58-.95,12.55,12.55,0,0,1,7.76,10.74.56.56,0,0,1-1.12.08,11.72,11.72,0,0,0-2.33-6.15,11.58,11.58,0,0,0-1.69-1.78,11.71,11.71,0,0,1,1.12,2.27,12.18,12.18,0,0,1,.63,6.05A.58.58,0,0,1,81.69,30.71Z"/><path class="cls-1" d="M79.21,32.57a.57.57,0,0,1-.38-.15,11.25,11.25,0,0,1-2.74-3.76,11.39,11.39,0,0,1-.85-6.28.55.55,0,0,1,.49-.48.58.58,0,0,1,.59.35A8.93,8.93,0,0,0,79.07,26,8.71,8.71,0,0,0,82,27.52a.56.56,0,0,1-.33,1.08,9.78,9.78,0,0,1-5.39-4,10,10,0,0,0,.86,3.63,10.24,10.24,0,0,0,2.47,3.38.57.57,0,0,1-.38,1Z"/><path class="cls-1" d="M67.7,45.75h-.09a.57.57,0,0,1-.47-.65c.34-2,.44-5.45-.75-6.1s-3.65,1.93-5.06,3.82a.56.56,0,0,1-.9-.68,21.81,21.81,0,0,1,2.21-2.47C64.42,38,65.87,37.41,66.93,38c2.28,1.25,1.43,6.67,1.33,7.28A.57.57,0,0,1,67.7,45.75Z"/><path class="cls-1" d="M69.73,85.69a6.21,6.21,0,0,1-1.8-.33l-.5-.13a18.56,18.56,0,0,0-3.32-.56.4.4,0,0,1-.36-.43.39.39,0,0,1,.43-.36,19.38,19.38,0,0,1,3.46.58l.51.14a4.52,4.52,0,0,0,2.1.26c.84-.14,1.34-.42,1.38-.61s-.81-.94-1.64-1.59a19.59,19.59,0,0,0-2.12-1.42.4.4,0,1,1,.4-.69A20.14,20.14,0,0,1,70.47,82c1.31,1,2.1,1.62,1.94,2.39s-1.2,1.09-2,1.22A3.7,3.7,0,0,1,69.73,85.69Z"/><path class="cls-1" d="M72,91.57a1.27,1.27,0,0,1-1-.52,1.69,1.69,0,0,1-.22-.45l-2-5.16a.4.4,0,1,1,.74-.28l2,5.16a1.36,1.36,0,0,0,.13.27.49.49,0,0,0,.46.18.66.66,0,0,0,.45-.35,1.88,1.88,0,0,0,.12-.83,13,13,0,0,0-1.1-4.84.4.4,0,0,1,.21-.52.39.39,0,0,1,.52.2,13.8,13.8,0,0,1,1.16,5.14,2.4,2.4,0,0,1-.2,1.21,1.44,1.44,0,0,1-1,.77Z"/><path class="cls-1" d="M65.91,98.15a2.36,2.36,0,0,1-1.35-.37,1.06,1.06,0,0,1-.45-.57.18.18,0,0,1,0-.09c-.09-.48.45-.91.78-1.13s1.28-.85,1.65-1.14a7.24,7.24,0,0,0,1-.91,15,15,0,0,0,1.45-1.7,8.55,8.55,0,0,0,1.31-3,.4.4,0,0,1,.78.18,9.57,9.57,0,0,1-1.44,3.3A15.2,15.2,0,0,1,68,94.49a8.19,8.19,0,0,1-1,1c-.39.3-1.21.84-1.69,1.16a1.77,1.77,0,0,0-.42.37l.12.11a2.57,2.57,0,0,0,1.81.1A5.51,5.51,0,0,0,69,96a9.64,9.64,0,0,0,2-2.23,9.91,9.91,0,0,0,1.27-3,.4.4,0,1,1,.77.19,10.3,10.3,0,0,1-1.38,3.21,10.15,10.15,0,0,1-2.15,2.42A6.37,6.37,0,0,1,67,98,4.63,4.63,0,0,1,65.91,98.15Z"/><path class="cls-1" d="M80.89,85.25a6.29,6.29,0,0,1-2.75-.79,10.17,10.17,0,0,1-2.73-2.34C74.08,80.54,72.63,78.87,71,77a.4.4,0,0,1,.6-.53C73.23,78.35,74.68,80,76,81.6a9.14,9.14,0,0,0,2.52,2.17,4.83,4.83,0,0,0,2.91.62c.21,0,.32-.13.34-.19s0-.11-.25-.41c-.49-.52-2.55-2.85-5.69-6.37L73,74.16a.39.39,0,0,1,0-.56.4.4,0,0,1,.56,0l2.9,3.26c3,3.4,5.19,5.85,5.67,6.36a1.32,1.32,0,0,1,.43,1.16,1.1,1.1,0,0,1-.91.75A3.2,3.2,0,0,1,80.89,85.25Z"/><path class="cls-1" d="M77.31,95a1.07,1.07,0,0,1-.25,0,1.28,1.28,0,0,1-.9-1,2.89,2.89,0,0,1,0-1.09,56.65,56.65,0,0,1,1.68-8.74.41.41,0,0,1,.49-.28.4.4,0,0,1,.28.49A55.11,55.11,0,0,0,76.92,93a2.12,2.12,0,0,0,0,.8.51.51,0,0,0,.32.39.54.54,0,0,0,.46-.2,2.3,2.3,0,0,0,.38-.71l3.49-8.69a.4.4,0,0,1,.52-.23.41.41,0,0,1,.22.52l-3.49,8.69a3.17,3.17,0,0,1-.53,1A1.35,1.35,0,0,1,77.31,95Z"/><path class="cls-1" d="M75.39,81.16a2.17,2.17,0,0,1-.89-.2.39.39,0,0,1,.32-.72,1.4,1.4,0,0,0,1.79-2,.4.4,0,0,1,.69-.4,2.2,2.2,0,0,1-1.91,3.3Z"/><path class="cls-1" d="M73.54,74.11a.39.39,0,0,1-.4-.36.41.41,0,0,1,.37-.43,25,25,0,0,0,5.52-1,3.37,3.37,0,0,0,1.26-.73A2.25,2.25,0,0,0,81.13,70a1.17,1.17,0,0,0-.32-.9,1.13,1.13,0,0,0-.7-.21,18.64,18.64,0,0,0-4.31.77.4.4,0,0,1-.49-.28.39.39,0,0,1,.28-.49,18.49,18.49,0,0,1,4.54-.79,1.82,1.82,0,0,1,1.2.4A1.91,1.91,0,0,1,81.92,70a3,3,0,0,1-1.09,2.18,4,4,0,0,1-1.54.9,25.47,25.47,0,0,1-5.72,1Z"/><path class="cls-1" d="M86.33,79.21c-.67,0-1.32-.53-2.23-1.29a12.55,12.55,0,0,1-1.67-1.67c-1-1.21-2-2.42-2.91-3.58a.4.4,0,1,1,.62-.5c.93,1.17,1.91,2.37,2.9,3.57a11.65,11.65,0,0,0,1.57,1.57c.88.73,1.46,1.21,1.86,1.09a1.69,1.69,0,0,0,.78-1.72,4.89,4.89,0,0,0-1.1-2.1,30,30,0,0,0-4.86-5,.4.4,0,0,1-.05-.56.39.39,0,0,1,.55-.06,31.27,31.27,0,0,1,5,5.1A5.5,5.5,0,0,1,88,76.56a2.44,2.44,0,0,1-1.34,2.6A1.64,1.64,0,0,1,86.33,79.21Z"/><path class="cls-1" d="M87.23,86.81a1.58,1.58,0,0,1-1.18-.57,2.8,2.8,0,0,1-.6-1.58c-.06-.55-.13-1.12-.21-1.67s-.17-1.27-.22-1.91a19.15,19.15,0,0,0-.51-2.93.39.39,0,0,1,.76-.2A18.37,18.37,0,0,1,85.81,81c0,.63.14,1.26.22,1.87s.15,1.13.21,1.71a2.09,2.09,0,0,0,.42,1.15c.19.22.56.37.78.22s.26-.3.28-.91c.08-2-.34-6.94-.47-8.39a.4.4,0,0,1,.79-.07c.13,1.46.56,6.39.48,8.49a1.93,1.93,0,0,1-.63,1.54A1.21,1.21,0,0,1,87.23,86.81Z"/><path class="cls-1" d="M80.73,69a.41.41,0,0,1-.38-.27.4.4,0,0,1,.25-.51c1.2-.41,3.43-1.36,4.18-2.32a1.93,1.93,0,0,0,.38-.91.93.93,0,0,0-.24-.76,1.68,1.68,0,0,0-1.3-.14A38.16,38.16,0,0,0,77,65.66a.4.4,0,1,1-.25-.75,39.93,39.93,0,0,1,6.73-1.6,2.41,2.41,0,0,1,2,.34A1.66,1.66,0,0,1,86,65.1a2.72,2.72,0,0,1-.55,1.3c-1.05,1.36-4.19,2.46-4.54,2.58Z"/><path class="cls-1" d="M90.27,68a4.71,4.71,0,0,1-1.09-.19h0l-2-.5c-.74-.22-1.52-.4-2.31-.56a.4.4,0,0,1-.32-.46A.41.41,0,0,1,85,66c.81.16,1.61.35,2.38.57l2,.49h0a2.62,2.62,0,0,0,1.14.14,1.28,1.28,0,0,0,.93-.59.9.9,0,0,0,.15-.63c-.13-.48-1.23-.73-2-.92-1.49-.34-3-.63-4.6-.87a.39.39,0,1,1,.11-.78c1.59.24,3.16.53,4.66.88,1.12.25,2.39.54,2.64,1.49A1.7,1.7,0,0,1,92.13,67a2.06,2.06,0,0,1-1.47,1A1.72,1.72,0,0,1,90.27,68Z"/><path class="cls-1" d="M94.41,71.85c-.88,0-1.83-.86-2.64-1.71L89.6,67.88a.4.4,0,0,1,0-.56.4.4,0,0,1,.57,0l2.16,2.26c.36.37,1.45,1.51,2.11,1.47a1.27,1.27,0,0,0,.15,0c.07,0,.24-.23.2-.92a3.42,3.42,0,0,0-.89-1.88,14,14,0,0,0-2.41-2.4.39.39,0,0,1-.07-.56.4.4,0,0,1,.55-.07,14.6,14.6,0,0,1,2.55,2.54,4.13,4.13,0,0,1,1.06,2.33A1.68,1.68,0,0,1,95,71.69a1.17,1.17,0,0,1-.51.16Z"/><path class="cls-1" d="M34.09,53.07a.41.41,0,0,1-.28-.11.4.4,0,0,1,0-.57,24.3,24.3,0,0,1,14.62-6.86.41.41,0,0,1,.44.36.39.39,0,0,1-.36.43A23.51,23.51,0,0,0,34.37,53,.43.43,0,0,1,34.09,53.07Z"/><path class="cls-1" d="M30,55.71a.52.52,0,0,1-.21,0,25.75,25.75,0,0,1-5.51-3,6.64,6.64,0,0,1-1.81-2.19,4.73,4.73,0,0,1-.32-.82v0a4.55,4.55,0,0,1,.18-3.38,3.48,3.48,0,0,1,2.93-1.89c.86,0,1.61.58,3,1.63.67.53,1.13.93,1.66,1.4l1.17,1c.57.48,1.16,1,1.73,1.41a.56.56,0,0,1,.1.79.57.57,0,0,1-.79.1c-.59-.47-1.18-.95-1.76-1.44s-.86-.74-1.19-1c-.54-.47-1-.84-1.62-1.35-1.21-.94-1.81-1.39-2.27-1.39h0a2.36,2.36,0,0,0-1.92,1.26,3.4,3.4,0,0,0-.11,2.54v0a4.14,4.14,0,0,0,.26.65A5.1,5.1,0,0,0,25,51.77a23.89,23.89,0,0,0,5.21,2.85.58.58,0,0,1,.32.74A.56.56,0,0,1,30,55.71Z"/><path class="cls-1" d="M22.5,39.55h-.44a4.35,4.35,0,0,1-2.69-1A4.44,4.44,0,0,1,18,35.21a10.82,10.82,0,0,1,.7-3.31,3.9,3.9,0,0,1,2-2.62,4,4,0,0,1,2.25,0c1.57.3,3.17.7,4.06,2a4.15,4.15,0,0,1,.51,3.2h0a8.35,8.35,0,0,1-.83,2.23,5.41,5.41,0,0,1-1.45,2A4.37,4.37,0,0,1,22.5,39.55Zm-.79-9.33a1.68,1.68,0,0,0-.6.1c-.66.27-1,1.09-1.31,1.94a9.68,9.68,0,0,0-.64,3,3.29,3.29,0,0,0,1,2.48,3.23,3.23,0,0,0,2,.71,3.53,3.53,0,0,0,2.41-.6,4.46,4.46,0,0,0,1.14-1.63,6.79,6.79,0,0,0,.72-1.93h0a3.07,3.07,0,0,0-.33-2.34c-.65-1-2-1.3-3.34-1.55A5.25,5.25,0,0,0,21.71,30.22ZM27,34.37h0Z"/><path class="cls-1" d="M25.8,45.6a.57.57,0,0,1-.47-.25,9.31,9.31,0,0,1-1.43-3.46,9.47,9.47,0,0,1,0-3.44.57.57,0,0,1,.66-.46.57.57,0,0,1,.45.66,8.29,8.29,0,0,0,0,3,8.1,8.1,0,0,0,1.26,3,.58.58,0,0,1-.16.79A.56.56,0,0,1,25.8,45.6Z"/><path class="cls-1" d="M22.43,47.81a.51.51,0,0,1-.38-.16,10.51,10.51,0,0,1-1.87-2.35,11.53,11.53,0,0,1-1.29-7.58.56.56,0,0,1,.64-.47.57.57,0,0,1,.47.65,10.45,10.45,0,0,0,1.15,6.83,9.64,9.64,0,0,0,1.67,2.11.55.55,0,0,1,0,.79A.55.55,0,0,1,22.43,47.81Z"/><path class="cls-1" d="M24.3,30.71a.56.56,0,0,1-.56-.48,12.08,12.08,0,0,1,1.75-8.32,11.12,11.12,0,0,0-1.69,1.78,11.63,11.63,0,0,0-2.33,6.15.55.55,0,0,1-.6.52.56.56,0,0,1-.53-.6A12.68,12.68,0,0,1,22.9,23a12.53,12.53,0,0,1,5.21-4,.56.56,0,0,1,.7.23.57.57,0,0,1-.12.72,11,11,0,0,0-3.83,10.09.58.58,0,0,1-.48.64Z"/><path class="cls-1" d="M26.78,32.57a.57.57,0,0,1-.38-1,10.24,10.24,0,0,0,2.47-3.38,10,10,0,0,0,.86-3.63,9.88,9.88,0,0,1-5.39,4A.56.56,0,1,1,24,27.52,8.71,8.71,0,0,0,26.92,26a9,9,0,0,0,2.75-3.75.56.56,0,0,1,.59-.35.57.57,0,0,1,.49.48,11.19,11.19,0,0,1-3.6,10A.53.53,0,0,1,26.78,32.57Z"/><path class="cls-1" d="M38.29,45.75a.57.57,0,0,1-.56-.47c-.1-.61-.95-6,1.32-7.28,1.07-.59,2.51,0,4.3,1.66a21.81,21.81,0,0,1,2.21,2.47.56.56,0,0,1-.9.68c-1.42-1.89-4-4.41-5.06-3.82-1.24.68-1.05,4.4-.76,6.1a.56.56,0,0,1-.46.65Z"/><path class="cls-1" d="M36.25,85.69a3.66,3.66,0,0,1-.64,0c-.84-.13-1.87-.46-2-1.22S34.21,83,35.52,82a20.14,20.14,0,0,1,2.2-1.48.4.4,0,0,1,.4.69A19.59,19.59,0,0,0,36,82.66c-.84.65-1.7,1.31-1.64,1.59s.53.47,1.38.61a4.52,4.52,0,0,0,2.1-.26l.51-.14a19.23,19.23,0,0,1,3.46-.58.39.39,0,0,1,.43.36.4.4,0,0,1-.37.43,18.71,18.71,0,0,0-3.32.56l-.49.13A6.28,6.28,0,0,1,36.25,85.69Z"/><path class="cls-1" d="M34,91.57l-.2,0a1.42,1.42,0,0,1-1-.77,2.4,2.4,0,0,1-.2-1.21,13.61,13.61,0,0,1,1.16-5.14.39.39,0,0,1,.72.32,12.83,12.83,0,0,0-1.09,4.84,1.75,1.75,0,0,0,.11.83.67.67,0,0,0,.46.35.5.5,0,0,0,.46-.18,1.36,1.36,0,0,0,.13-.27l2-5.16a.4.4,0,1,1,.74.28l-2,5.16a2.65,2.65,0,0,1-.22.45A1.27,1.27,0,0,1,34,91.57Z"/><path class="cls-1" d="M40.08,98.15A4.63,4.63,0,0,1,39,98a6.49,6.49,0,0,1-2.51-1.39A10.46,10.46,0,0,1,32.94,91a.39.39,0,0,1,.29-.48.41.41,0,0,1,.48.29,9.91,9.91,0,0,0,1.27,3A9.64,9.64,0,0,0,37,96a5.51,5.51,0,0,0,2.2,1.24,2.54,2.54,0,0,0,1.8-.1L41.1,97a2,2,0,0,0-.42-.37c-.49-.32-1.3-.86-1.7-1.16a9.8,9.8,0,0,1-1-1,16.21,16.21,0,0,1-1.53-1.8A9.56,9.56,0,0,1,35,89.39a.4.4,0,0,1,.77-.18,8.93,8.93,0,0,0,1.31,3,14,14,0,0,0,1.46,1.7,8,8,0,0,0,.94.91c.38.29,1.21.84,1.66,1.14s.87.65.78,1.13a.51.51,0,0,1,0,.09,1.08,1.08,0,0,1-.46.57A2.33,2.33,0,0,1,40.08,98.15Z"/><path class="cls-1" d="M25.1,85.25a3.29,3.29,0,0,1-.76-.09,1.12,1.12,0,0,1-.91-.75,1.29,1.29,0,0,1,.44-1.15l5.67-6.37,2.9-3.26a.4.4,0,0,1,.21-.12,19.88,19.88,0,0,1,8.82,0A15.88,15.88,0,0,1,48.28,77c1.52,1.21,2.72,2.16,4.84,2.24,2.29.08,3.73-.92,5.56-2.2A18,18,0,0,1,66.8,73.5a20.9,20.9,0,0,1,6.51,0,.4.4,0,0,1-.12.79,19.91,19.91,0,0,0-6.26,0,17.36,17.36,0,0,0-7.8,3.43c-1.87,1.31-3.49,2.44-6,2.34-2.38-.09-3.74-1.16-5.31-2.41a15.15,15.15,0,0,0-6.5-3.37,19.06,19.06,0,0,0-8.34,0l-2.81,3.16c-3.13,3.52-5.2,5.85-5.68,6.37-.28.3-.25.41-.25.41s.13.14.34.19a4.83,4.83,0,0,0,2.91-.62A9.5,9.5,0,0,0,30,81.61c1.33-1.59,2.79-3.26,4.45-5.13a.4.4,0,0,1,.56,0A.39.39,0,0,1,35,77c-1.65,1.86-3.1,3.53-4.43,5.1a10.07,10.07,0,0,1-2.74,2.35A6.22,6.22,0,0,1,25.1,85.25Z"/><path class="cls-1" d="M28.67,95a1.33,1.33,0,0,1-1-.46,3,3,0,0,1-.53-1l-3.49-8.69a.4.4,0,1,1,.74-.29l3.48,8.69a2.41,2.41,0,0,0,.39.71.52.52,0,0,0,.46.2.51.51,0,0,0,.32-.39,2.35,2.35,0,0,0,0-.8,56.29,56.29,0,0,0-1.66-8.62.39.39,0,1,1,.76-.21,55.48,55.48,0,0,1,1.68,8.74,2.88,2.88,0,0,1,0,1.09,1.28,1.28,0,0,1-.9,1A1.09,1.09,0,0,1,28.67,95Z"/><path class="cls-1" d="M30.59,81.16A2.21,2.21,0,0,1,29,80.43a2.19,2.19,0,0,1-.27-2.57.4.4,0,0,1,.69.4,1.39,1.39,0,0,0,.17,1.64,1.41,1.41,0,0,0,1.62.34.39.39,0,1,1,.32.72A2.22,2.22,0,0,1,30.59,81.16Z"/><path class="cls-1" d="M32.45,74.11h0a25.38,25.38,0,0,1-5.72-1,4,4,0,0,1-1.55-.9A3,3,0,0,1,24.07,70a1.84,1.84,0,0,1,.59-1.49,1.82,1.82,0,0,1,1.2-.4,18.67,18.67,0,0,1,4.54.79.4.4,0,0,1-.21.77,18.75,18.75,0,0,0-4.31-.77.93.93,0,0,0-1,1.11,2.25,2.25,0,0,0,.84,1.59,3.35,3.35,0,0,0,1.25.73,25,25,0,0,0,5.53,1,.39.39,0,0,1,.36.43A.38.38,0,0,1,32.45,74.11Z"/><path class="cls-1" d="M19.66,79.21a1.57,1.57,0,0,1-.37,0A2.44,2.44,0,0,1,18,76.56a5.5,5.5,0,0,1,1.26-2.46,31.21,31.21,0,0,1,5-5.1.4.4,0,0,1,.5.62,30.82,30.82,0,0,0-4.86,5,4.89,4.89,0,0,0-1.1,2.1,1.7,1.7,0,0,0,.79,1.72c.4.12,1-.36,1.86-1.09A12.26,12.26,0,0,0,23,75.74c1-1.2,2-2.4,2.9-3.57a.39.39,0,0,1,.55-.06.41.41,0,0,1,.07.56l-2.91,3.58a12.63,12.63,0,0,1-1.68,1.67C21,78.68,20.33,79.21,19.66,79.21Z"/><path class="cls-1" d="M18.75,86.81a1.2,1.2,0,0,1-.65-.19,1.93,1.93,0,0,1-.63-1.54c-.08-2.1.34-7,.48-8.49a.4.4,0,0,1,.79.07c-.13,1.45-.56,6.34-.48,8.39,0,.61.17.83.29.91s.59,0,.77-.22a2.11,2.11,0,0,0,.43-1.15c.05-.58.13-1.15.21-1.71s.16-1.24.22-1.87A19.42,19.42,0,0,1,20.71,78a.4.4,0,0,1,.49-.28.39.39,0,0,1,.28.48A18,18,0,0,0,21,81.08c-.06.64-.14,1.29-.23,1.91s-.15,1.12-.2,1.67a2.88,2.88,0,0,1-.6,1.58A1.6,1.6,0,0,1,18.75,86.81Z"/><path class="cls-1" d="M25.26,69a.31.31,0,0,1-.13,0c-.35-.12-3.49-1.22-4.55-2.58A2.7,2.7,0,0,1,20,65.1a1.66,1.66,0,0,1,.5-1.45,2.39,2.39,0,0,1,1.94-.34,40,40,0,0,1,6.74,1.6.4.4,0,0,1-.25.75,38.38,38.38,0,0,0-6.6-1.56,1.7,1.7,0,0,0-1.31.14.89.89,0,0,0-.23.76,1.84,1.84,0,0,0,.38.91c.74,1,3,1.91,4.18,2.32a.41.41,0,0,1,.24.51A.4.4,0,0,1,25.26,69Z"/><path class="cls-1" d="M15.71,68a1.84,1.84,0,0,1-.39,0,2.06,2.06,0,0,1-1.46-1,1.7,1.7,0,0,1-.23-1.23c.25-1,1.51-1.24,2.63-1.49,1.51-.35,3.08-.64,4.66-.88a.39.39,0,0,1,.12.78c-1.56.24-3.11.53-4.6.87-.81.19-1.92.44-2,.92a.9.9,0,0,0,.15.63,1.26,1.26,0,0,0,.93.59,2.62,2.62,0,0,0,1.14-.14h0l2-.49c.77-.22,1.57-.41,2.38-.57a.4.4,0,0,1,.46.32.38.38,0,0,1-.31.46c-.79.16-1.57.34-2.31.56l-2,.5h0A4.7,4.7,0,0,1,15.71,68Z"/><path class="cls-1" d="M11.57,71.85h-.09a1.17,1.17,0,0,1-.51-.16,1.66,1.66,0,0,1-.57-1.63,4,4,0,0,1,1-2.33A15.32,15.32,0,0,1,14,65.19a.4.4,0,1,1,.49.63,14,14,0,0,0-2.41,2.4,3.42,3.42,0,0,0-.89,1.88c0,.69.13.87.2.92a.63.63,0,0,0,.15,0h0c.66,0,1.71-1.1,2.06-1.47l2.17-2.26a.39.39,0,0,1,.56,0,.4.4,0,0,1,0,.56l-2.17,2.26C13.4,71,12.45,71.85,11.57,71.85Z"/><path class="cls-2" d="M50.13,11.12l.22.16a4.42,4.42,0,1,1-6.9,4.23,4.28,4.28,0,0,1,1.27-3.74,5.78,5.78,0,0,1,.76-.63,14.66,14.66,0,0,1,6-2.46A12.34,12.34,0,0,1,59.66,10a9.63,9.63,0,0,1,1.49,1,1,1,0,0,1,.42.81,1,1,0,0,1-.48.89,1,1,0,0,1-1,0,2.2,2.2,0,0,1-.25-.17,9.3,9.3,0,0,0-4.69-1.94,11.32,11.32,0,0,0-4.77.41Zm0,3.79a2.36,2.36,0,1,0-2.33,2.35A2.36,2.36,0,0,0,50.18,14.91Z"/><path class="cls-2" d="M55.69,24l-.21-.17a4.42,4.42,0,1,1,7.08-3.92,4.27,4.27,0,0,1-1.43,3.68,4.57,4.57,0,0,1-.79.6,14.61,14.61,0,0,1-6.08,2.19,12.25,12.25,0,0,1-8.14-1.69,10.77,10.77,0,0,1-1.45-1.09,1,1,0,0,1-.38-.82,1,1,0,0,1,1.57-.85,2,2,0,0,1,.23.18,9.28,9.28,0,0,0,4.6,2.15A11.55,11.55,0,0,0,55.48,24Zm.12-3.79a2.36,2.36,0,1,0,2.44-2.24A2.36,2.36,0,0,0,55.81,20.17Z"/><path class="cls-1" d="M47.75,108.32a.1.1,0,0,1,0-.2,6.61,6.61,0,0,0,2.51-1.45c.71-.73.92-2.26,1.16-3.07a.11.11,0,0,1,.22,0c.14.81.19,2.28,1,3.09a5.74,5.74,0,0,0,2.66,1.43.11.11,0,0,1,0,.21,5.59,5.59,0,0,0-2.45,1.27c-.77.79-1,2.38-1.15,3.15a.11.11,0,0,1-.22,0c-.23-.8-.47-2.5-1.35-3.34A6.11,6.11,0,0,0,47.75,108.32Z"/><path class="cls-1" d="M.07,48.73a.11.11,0,0,1,0-.21,6.8,6.8,0,0,0,2.52-1.44c.7-.74.92-2.27,1.15-3.07A.11.11,0,0,1,4,44c.14.81.19,2.28,1,3.09a5.69,5.69,0,0,0,2.66,1.43.12.12,0,0,1,0,.22A5.45,5.45,0,0,0,5.14,50c-.76.79-1,2.38-1.15,3.15a.11.11,0,0,1-.22,0c-.23-.8-.46-2.5-1.35-3.33A5.77,5.77,0,0,0,.07,48.73Z"/><path class="cls-1" d="M100.34,57a.12.12,0,0,1,0-.21,6.53,6.53,0,0,0,2.52-1.44c.7-.73.92-2.26,1.16-3.07a.11.11,0,0,1,.21,0c.14.81.19,2.29,1,3.1a5.75,5.75,0,0,0,2.66,1.42.11.11,0,0,1,0,.22,5.55,5.55,0,0,0-2.45,1.26c-.76.8-1,2.38-1.15,3.15a.11.11,0,0,1-.22,0c-.23-.81-.46-2.51-1.35-3.34A5.91,5.91,0,0,0,100.34,57Z"/><path class="cls-1" d="M65,103.62a1.14,1.14,0,1,1-1.14-1.14A1.14,1.14,0,0,1,65,103.62Z"/><path class="cls-1" d="M76.27,105.25a1.14,1.14,0,1,1-1.14-1.14A1.14,1.14,0,0,1,76.27,105.25Z"/><path class="cls-1" d="M35.78,104.15A1.15,1.15,0,1,1,34.63,103,1.15,1.15,0,0,1,35.78,104.15Z"/><path class="cls-1" d="M3.8,64.14a1.15,1.15,0,0,1-2.29,0,1.15,1.15,0,1,1,2.29,0Z"/><path class="cls-1" d="M17.17,56.68A1.15,1.15,0,1,1,16,55.54,1.14,1.14,0,0,1,17.17,56.68Z"/><path class="cls-1" d="M10.43,31.38a1.14,1.14,0,1,1-1.14-1.14A1.14,1.14,0,0,1,10.43,31.38Z"/><path class="cls-1" d="M39.55,9.61a1.15,1.15,0,1,1-1.14-1.15A1.14,1.14,0,0,1,39.55,9.61Z"/><path class="cls-1" d="M68.44,30.14A1.15,1.15,0,1,1,67.29,29,1.15,1.15,0,0,1,68.44,30.14Z"/><path class="cls-1" d="M72.56,11.63a1.15,1.15,0,1,1-1.14-1.14A1.14,1.14,0,0,1,72.56,11.63Z"/><path class="cls-1" d="M97.2,47.7a1.15,1.15,0,1,1-1.14-1.14A1.14,1.14,0,0,1,97.2,47.7Z"/><circle class="cls-1" cx="97.26" cy="26.07" r="1.14"/><path class="cls-1" d="M106.49,39.55a1.15,1.15,0,1,1-1.14-1.14A1.15,1.15,0,0,1,106.49,39.55Z"/><path class="cls-1" d="M101.31,83.7a1.15,1.15,0,1,1-1.15-1.14A1.15,1.15,0,0,1,101.31,83.7Z"/><path class="cls-1" d="M41,31.06a.85.85,0,0,1-.84.84.84.84,0,0,1-.83-.84.83.83,0,0,1,.83-.83A.84.84,0,0,1,41,31.06Z"/><circle class="cls-1" cx="86.19" cy="14.58" r="0.83"/><path class="cls-1" d="M28.59,12.78a.84.84,0,0,1-.84.84.84.84,0,1,1,.84-.84Z"/><path class="cls-1" d="M10.92,87.81a.84.84,0,0,1-.84.83.83.83,0,0,1,0-1.66A.84.84,0,0,1,10.92,87.81Z"/><path class="cls-1" d="M91.22,95a.83.83,0,1,1-.83-.83A.83.83,0,0,1,91.22,95Z"/><path class="cls-1" d="M53.34,93a.85.85,0,0,1-.84.84.84.84,0,0,1-.83-.84.83.83,0,0,1,.83-.83A.84.84,0,0,1,53.34,93Z"/><path class="cls-1" d="M91.62,58.32a.84.84,0,0,1-.83.84.85.85,0,0,1-.84-.84.84.84,0,0,1,.84-.83A.83.83,0,0,1,91.62,58.32Z"/><path class="cls-1" d="M57,34.43a.58.58,0,1,1-.58-.58A.58.58,0,0,1,57,34.43Z"/><path class="cls-1" d="M55.66.58a.58.58,0,0,1-1.15,0,.58.58,0,1,1,1.15,0Z"/><path class="cls-1" d="M13.26,39.93a.58.58,0,1,1-.58-.58A.58.58,0,0,1,13.26,39.93Z"/><path class="cls-1" d="M24.67,97.43a.58.58,0,0,1-.58.57.58.58,0,0,1,0-1.15A.58.58,0,0,1,24.67,97.43Z"/><path class="cls-1" d="M104.32,70.48a.58.58,0,1,1-.57-.58A.58.58,0,0,1,104.32,70.48Z"/><path class="cls-1" d="M96.12,38.15a.57.57,0,0,1-.57.58.58.58,0,1,1,0-1.16A.57.57,0,0,1,96.12,38.15Z"/><path class="cls-1" d="M2.86,78a.58.58,0,0,1-.58.58A.57.57,0,0,1,1.71,78a.56.56,0,0,1,.57-.57A.57.57,0,0,1,2.86,78Z"/></g></g></svg>