<svg xmlns="http://www.w3.org/2000/svg" viewBox="0 0 105.22 107.01"><defs><style>.cls-1{fill:#fff;}.cls-2{fill:#c4ab5b;}</style></defs><g id="Layer_2" data-name="Layer 2"><g id="Text"><path class="cls-1" d="M58.05,83.19A5.54,5.54,0,0,1,54.6,82a5.94,5.94,0,0,1-2.17-4.79.66.66,0,0,1,.7-.64.67.67,0,0,1,.65.71A4.56,4.56,0,0,0,55.42,81a4.46,4.46,0,0,0,3.58.77,5.22,5.22,0,0,0,3.43-3.1,4.65,4.65,0,0,0,.22-3,9.87,9.87,0,0,1-.16-2.42c.23-3.07,2.12-4.83,4-6.54s3.55-3.3,3.93-6.19a8.91,8.91,0,0,0-.56-4.85,9.19,9.19,0,0,0-1.65-2.38,9.88,9.88,0,0,1-2.77-7.54.68.68,0,0,1,.36-.57.69.69,0,0,1,.67,0,10.56,10.56,0,0,0,6.65,1.53A6.56,6.56,0,0,0,77.42,45a4.35,4.35,0,0,0,.87-1.6,7.37,7.37,0,0,1,1.16-2.2,6.94,6.94,0,0,1,.81-.91l-2,.21a50.51,50.51,0,0,1-6.39.13,21.6,21.6,0,0,0-2.93,0c-3.44.34-6.86,2.45-10.17,6.26a.68.68,0,0,1-.95.07.69.69,0,0,1-.07-1c3.54-4.08,7.26-6.34,11-6.72a23,23,0,0,1,3.12,0,52,52,0,0,0,6.23-.13c1.65-.14,3.31-.36,4.93-.64a.67.67,0,0,1,.39,1.28,7.38,7.38,0,0,0-3,2.23,6.32,6.32,0,0,0-1,1.85,5.74,5.74,0,0,1-1.13,2,7.82,7.82,0,0,1-5.18,2.22,11.53,11.53,0,0,1-6.49-1.15,8.79,8.79,0,0,0,.64,2.82,9.16,9.16,0,0,0,1.79,2.66,9.43,9.43,0,0,1,2.54,8.3c-.45,3.37-2.53,5.3-4.36,7S64,70.82,63.84,73.36A8.69,8.69,0,0,0,64,75.47a6,6,0,0,1-.32,3.71,6.56,6.56,0,0,1-4.38,3.88A5.86,5.86,0,0,1,58.05,83.19Z"/><path class="cls-1" d="M66.09,46.19a.39.39,0,0,1-.23-.71,11.58,11.58,0,0,1,3.86-1.9A12.25,12.25,0,0,1,73,43.21a11.94,11.94,0,0,0,3.11-.33,11.54,11.54,0,0,0,3.62-1.64.4.4,0,0,1,.55.11.39.39,0,0,1-.1.54,12.19,12.19,0,0,1-3.88,1.76A13.31,13.31,0,0,1,73,44a11.53,11.53,0,0,0-3.11.34,11,11,0,0,0-3.61,1.77A.34.34,0,0,1,66.09,46.19Z"/><path class="cls-1" d="M65.3,41.58a.55.55,0,0,1-.18,0,.67.67,0,0,1-.47-.83A52.72,52.72,0,0,1,80,15.54,34.78,34.78,0,0,0,59.48,39.3a.68.68,0,0,1-.39.45.67.67,0,0,1-.6,0,10.89,10.89,0,0,0-5.2-1.43,11,11,0,0,0-5.58,1.43.68.68,0,1,1-.66-1.18,12.23,12.23,0,0,1,11.34-.4A36.12,36.12,0,0,1,83,13a.66.66,0,0,1,.79.33.68.68,0,0,1-.18.84A51.43,51.43,0,0,0,66,41.08.67.67,0,0,1,65.3,41.58Z"/><path class="cls-1" d="M65.81,39.53a.43.43,0,0,1-.29-.13,4.42,4.42,0,0,0-1.37-1,4.53,4.53,0,0,0-1.77-.44.39.39,0,0,1-.38-.41.4.4,0,0,1,.41-.38,5.28,5.28,0,0,1,3.69,1.72.38.38,0,0,1,0,.55A.4.4,0,0,1,65.81,39.53Z"/><path class="cls-1" d="M67.24,35.5a.4.4,0,0,1-.23-.08,6.33,6.33,0,0,0-3.07-1.13A.4.4,0,0,1,64,33.5a7.36,7.36,0,0,1,1.79.4,7,7,0,0,1,1.66.88.39.39,0,0,1,.09.55A.37.37,0,0,1,67.24,35.5Z"/><path class="cls-1" d="M69,31.67a.37.37,0,0,1-.21-.06,10,10,0,0,0-1.7-.86,8.72,8.72,0,0,0-1.34-.43.41.41,0,0,1-.29-.48.4.4,0,0,1,.48-.29,12.21,12.21,0,0,1,1.45.46,10.82,10.82,0,0,1,1.82.94.39.39,0,0,1,.12.54A.38.38,0,0,1,69,31.67Z"/><path class="cls-1" d="M70.6,28.64a.43.43,0,0,1-.24-.08,6.94,6.94,0,0,0-1.2-.72,7.19,7.19,0,0,0-1.1-.39.4.4,0,0,1-.28-.49.39.39,0,0,1,.48-.28,7,7,0,0,1,1.23.45,7.25,7.25,0,0,1,1.34.79.4.4,0,0,1,.08.56A.38.38,0,0,1,70.6,28.64Z"/><path class="cls-1" d="M60.12,68.1a.39.39,0,0,1-.38-.29,19.16,19.16,0,0,1-.69-6.05,12.73,12.73,0,0,1,1.73-6.56c.54-.85,2.17-3.44,4.58-3.45h0c.73,0,2,.25,2.4,1.19.46,1.17-.91,2.5-1.52,3a7.23,7.23,0,0,1-5.64,1.32,14.12,14.12,0,0,0-.78,4.53,18.49,18.49,0,0,0,.66,5.8.4.4,0,0,1-.27.49ZM61,56.52a6.36,6.36,0,0,0,4.8-1.17c.8-.67,1.5-1.59,1.3-2.12s-1-.69-1.67-.69h0c-2,0-3.43,2.32-3.91,3.08A10.11,10.11,0,0,0,61,56.52Z"/><path class="cls-1" d="M62.63,54.31a2.1,2.1,0,0,0,1.92,1.92c1.59.11,3-2.19,2.47-3.22-.35-.69-1.6-.84-2.47-.62C63.85,52.58,62.64,53.2,62.63,54.31Z"/><path d="M56.32,72.73a.83.83,0,0,1,.79-.16c.26.13.32.48.32.78a4.17,4.17,0,0,1-2.93,3.89,4.14,4.14,0,0,1-.93.18c-.35,0-.53.08-.46-.31A6.78,6.78,0,0,1,54.79,74,7.23,7.23,0,0,1,56.32,72.73Z"/><path class="cls-1" d="M53.31,77.5a.28.28,0,0,1-.21-.07c-.06-.06-.07-.17,0-.33A6.79,6.79,0,0,1,54.75,74a7,7,0,0,1,1.54-1.29.87.87,0,0,1,.84-.16.86.86,0,0,1,.35.83,4.32,4.32,0,0,1-1.37,3,4.15,4.15,0,0,1-1.59.92,4.48,4.48,0,0,1-.94.19h-.07Zm3.58-4.93a1,1,0,0,0-.54.21h0a6.8,6.8,0,0,0-1.52,1.27,6.72,6.72,0,0,0-1.66,3.07c0,.12,0,.2,0,.23s.16,0,.32,0h.07a4.73,4.73,0,0,0,.91-.18,4.34,4.34,0,0,0,1.56-.9,4.2,4.2,0,0,0,1.33-2.94c0-.26,0-.61-.29-.73A.41.41,0,0,0,56.89,72.57Z"/><path d="M49.88,72.73a.83.83,0,0,0-.79-.16c-.27.13-.32.48-.32.78a4.17,4.17,0,0,0,2.93,3.89,4.14,4.14,0,0,0,.93.18c.35,0,.52.08.45-.31A6.76,6.76,0,0,0,51.41,74,7.23,7.23,0,0,0,49.88,72.73Z"/><path class="cls-1" d="M52.89,77.5l-.2,0h-.07a4.36,4.36,0,0,1-.94-.19,4.21,4.21,0,0,1-3-3.94.85.85,0,0,1,.34-.83.89.89,0,0,1,.85.16h0A7.28,7.28,0,0,1,51.45,74a6.88,6.88,0,0,1,1.69,3.13c0,.16,0,.27,0,.33A.28.28,0,0,1,52.89,77.5Zm-3.58-4.93a.46.46,0,0,0-.2.05c-.24.12-.29.47-.28.73a4.2,4.2,0,0,0,1.33,2.94,4.34,4.34,0,0,0,1.56.9,4.73,4.73,0,0,0,.91.18h.07c.15,0,.28,0,.32,0s0-.11,0-.23a6.72,6.72,0,0,0-1.66-3.07,6.8,6.8,0,0,0-1.52-1.27h0A1.06,1.06,0,0,0,49.31,72.57Z"/><path class="cls-1" d="M53.1,99.19a.42.42,0,0,1-.21-.06.4.4,0,0,1-.13-.54,28.49,28.49,0,0,1,3.34-4.44,27.21,27.21,0,0,1,5.6-4.63c.54-.35,1-.68,1.52-1A23,23,0,0,0,72.15,74.3a20,20,0,0,0-1.89-11.73.4.4,0,0,1,.19-.53.4.4,0,0,1,.52.19,20.76,20.76,0,0,1,2,12.19,23.55,23.55,0,0,1-9.25,14.71c-.49.36-1,.7-1.54,1.05a26.29,26.29,0,0,0-5.46,4.5A27.52,27.52,0,0,0,53.44,99,.42.42,0,0,1,53.1,99.19Z"/><path class="cls-1" d="M53.1,95.54a.36.36,0,0,1-.22-.07.4.4,0,0,1-.11-.55A27.63,27.63,0,0,1,56,91a20.83,20.83,0,0,1,4.41-3.49,17.45,17.45,0,0,0,2.83-2,18.37,18.37,0,0,0,4.58-19.28.4.4,0,0,1,.75-.26A19.21,19.21,0,0,1,63.74,86a17.87,17.87,0,0,1-2.94,2.13,19.94,19.94,0,0,0-4.26,3.37,26.65,26.65,0,0,0-3.11,3.84A.39.39,0,0,1,53.1,95.54Z"/><path class="cls-1" d="M53.25,91.9a.39.39,0,0,1-.35-.58,19.25,19.25,0,0,1,3-4A17.73,17.73,0,0,1,60,84.1,11.1,11.1,0,0,0,63.57,81a12.56,12.56,0,0,0,2.25-5.56,14.49,14.49,0,0,0-.47-6.82.39.39,0,0,1,.25-.49.4.4,0,0,1,.5.25,15.3,15.3,0,0,1,.5,7.2,13.31,13.31,0,0,1-2.4,5.9,11.91,11.91,0,0,1-3.84,3.25,17.13,17.13,0,0,0-3.93,3A18.29,18.29,0,0,0,53.6,91.7.41.41,0,0,1,53.25,91.9Z"/><path class="cls-1" d="M55.26,55.44a.47.47,0,0,1-.22-.07.39.39,0,0,1-.1-.55,9.56,9.56,0,0,1,4.45-3.75A13.71,13.71,0,0,1,61,50.63a15.13,15.13,0,0,0,2.72-.85,15.89,15.89,0,0,0,2.48-1.31.39.39,0,0,1,.54.11.4.4,0,0,1-.11.55A17.12,17.12,0,0,1,64,50.51a16.2,16.2,0,0,1-2.84.89,11.34,11.34,0,0,0-1.47.41,8.76,8.76,0,0,0-4.08,3.46A.4.4,0,0,1,55.26,55.44Z"/><path class="cls-1" d="M48.21,83.15A5.86,5.86,0,0,1,47,83a6.56,6.56,0,0,1-4.38-3.88,6,6,0,0,1-.32-3.71,8.74,8.74,0,0,0,.15-2.12c-.19-2.53-1.74-4-3.53-5.64s-3.9-3.63-4.36-7a10.34,10.34,0,0,1,.68-5.58,10.18,10.18,0,0,1,1.86-2.72,9.16,9.16,0,0,0,1.79-2.66,8.79,8.79,0,0,0,.64-2.82A11.53,11.53,0,0,1,33,48a7.82,7.82,0,0,1-5.18-2.22,5.74,5.74,0,0,1-1.13-2,6.2,6.2,0,0,0-1-1.85,7.42,7.42,0,0,0-3-2.23.67.67,0,0,1,.38-1.28c1.62.28,3.28.5,4.93.64a52,52,0,0,0,6.23.13,23,23,0,0,1,3.12,0c3.79.38,7.51,2.64,11.05,6.72a.69.69,0,0,1-.07,1,.68.68,0,0,1-1-.07C44.16,43,40.74,40.92,37.3,40.58a20.08,20.08,0,0,0-2.93,0A49,49,0,0,1,28,40.41c-.66,0-1.32-.12-2-.2a6.86,6.86,0,0,1,.81.9A7.52,7.52,0,0,1,28,43.32a4.42,4.42,0,0,0,.87,1.6c1.23,1.39,3.1,1.62,4.34,1.78a10.56,10.56,0,0,0,6.65-1.53.69.69,0,0,1,.67,0,.68.68,0,0,1,.36.57,9.88,9.88,0,0,1-2.77,7.54,9.19,9.19,0,0,0-1.65,2.38,8.91,8.91,0,0,0-.56,4.85c.38,2.89,2.11,4.49,3.93,6.19s3.73,3.47,4,6.54a9.87,9.87,0,0,1-.16,2.42,4.65,4.65,0,0,0,.22,3,5.22,5.22,0,0,0,3.43,3.1,4.46,4.46,0,0,0,3.58-.77,4.56,4.56,0,0,0,1.64-3.65.67.67,0,0,1,.65-.71.66.66,0,0,1,.7.64A5.94,5.94,0,0,1,51.66,82,5.54,5.54,0,0,1,48.21,83.15Z"/><path class="cls-1" d="M40.17,46.15a.34.34,0,0,1-.23-.08,11,11,0,0,0-3.61-1.77A11.53,11.53,0,0,0,33.22,44a13.81,13.81,0,0,1-3.29-.35,12.19,12.19,0,0,1-3.88-1.76.39.39,0,0,1-.1-.54.4.4,0,0,1,.55-.11,11.54,11.54,0,0,0,3.62,1.64,11.94,11.94,0,0,0,3.11.33,12.25,12.25,0,0,1,3.31.37,11.58,11.58,0,0,1,3.86,1.9.39.39,0,0,1-.23.71Z"/><path class="cls-1" d="M41,41.54a.67.67,0,0,1-.65-.5A51.54,51.54,0,0,0,34,26.71,51.5,51.5,0,0,0,22.62,14.17.68.68,0,0,1,23.23,13,36.16,36.16,0,0,1,47.87,38.1a12.25,12.25,0,0,1,11.35.4.69.69,0,0,1,.25.93.68.68,0,0,1-.92.25,10.86,10.86,0,0,0-10.78,0,.67.67,0,0,1-.6,0,.68.68,0,0,1-.39-.45A34.72,34.72,0,0,0,26.27,15.5,53.08,53.08,0,0,1,35.1,26a52.68,52.68,0,0,1,6.51,14.71.67.67,0,0,1-.47.83Z"/><path class="cls-1" d="M40.45,39.49a.4.4,0,0,1-.27-.11.38.38,0,0,1,0-.55,5.1,5.1,0,0,1,1.61-1.2,5.19,5.19,0,0,1,2.08-.52.4.4,0,0,1,.41.38.39.39,0,0,1-.38.41,4.71,4.71,0,0,0-1.77.44,4.42,4.42,0,0,0-1.37,1A.43.43,0,0,1,40.45,39.49Z"/><path class="cls-1" d="M39,35.46a.4.4,0,0,1-.23-.72,7,7,0,0,1,1.66-.88,7.34,7.34,0,0,1,1.8-.4.4.4,0,0,1,.07.79,6.43,6.43,0,0,0-3.07,1.13A.4.4,0,0,1,39,35.46Z"/><path class="cls-1" d="M37.3,31.63a.38.38,0,0,1-.33-.18.4.4,0,0,1,.12-.55A11.56,11.56,0,0,1,38.91,30a12.21,12.21,0,0,1,1.45-.46.4.4,0,0,1,.48.29.39.39,0,0,1-.29.47,11.64,11.64,0,0,0-1.34.43,10.89,10.89,0,0,0-1.7.87A.37.37,0,0,1,37.3,31.63Z"/><path class="cls-1" d="M35.66,28.59a.37.37,0,0,1-.31-.15.4.4,0,0,1,.08-.56A7.38,7.38,0,0,1,38,26.64a.39.39,0,0,1,.48.28.4.4,0,0,1-.28.49,6.56,6.56,0,0,0-1.1.39,6.94,6.94,0,0,0-1.2.72A.42.42,0,0,1,35.66,28.59Z"/><path class="cls-1" d="M46.14,68.06H46a.4.4,0,0,1-.27-.49,18.52,18.52,0,0,0,.66-5.8,14.12,14.12,0,0,0-.78-4.53A7.23,7.23,0,0,1,40,55.91c-.61-.51-2-1.84-1.52-3,.36-.94,1.67-1.19,2.4-1.19h0c2.41,0,4,2.6,4.58,3.45a12.73,12.73,0,0,1,1.73,6.56,19.19,19.19,0,0,1-.69,6A.39.39,0,0,1,46.14,68.06ZM40.88,52.49c-.69,0-1.5.26-1.67.7s.5,1.45,1.3,2.12a6.36,6.36,0,0,0,4.8,1.17,10.11,10.11,0,0,0-.5-.9c-.48-.76-1.94-3.07-3.91-3.09Z"/><path class="cls-1" d="M43.63,54.27a2.12,2.12,0,0,1-1.92,1.92c-1.61.16-3.12-2-2.66-3.06.32-.76,1.66-1,2.66-.78C42.43,52.54,43.62,53.17,43.63,54.27Z"/><path class="cls-1" d="M49.94,72.69a.83.83,0,0,0-.79-.16c-.26.13-.32.48-.32.78a4.27,4.27,0,0,0,1.35,3,4.38,4.38,0,0,0,1.58.91,4.14,4.14,0,0,0,.93.18c.35,0,.53.07.46-.31A6.78,6.78,0,0,0,51.47,74,7.23,7.23,0,0,0,49.94,72.69Z"/><path class="cls-1" d="M56.38,72.69a.83.83,0,0,1,.79-.16c.27.13.32.48.32.78a4.27,4.27,0,0,1-1.35,3,4.38,4.38,0,0,1-1.58.91,4.14,4.14,0,0,1-.93.18c-.35,0-.52.07-.45-.31A6.76,6.76,0,0,1,54.85,74,7.23,7.23,0,0,1,56.38,72.69Z"/><path class="cls-1" d="M53.16,99.15a.42.42,0,0,1-.34-.19,27.52,27.52,0,0,0-3.24-4.32,26.29,26.29,0,0,0-5.46-4.5c-.54-.35-1-.69-1.54-1a23.55,23.55,0,0,1-9.25-14.71,20.76,20.76,0,0,1,2-12.19.39.39,0,0,1,.52-.19.4.4,0,0,1,.19.53,20,20,0,0,0-1.89,11.73A23,23,0,0,0,43,88.45c.48.35,1,.68,1.52,1a27.44,27.44,0,0,1,5.6,4.62,28.57,28.57,0,0,1,3.34,4.45.4.4,0,0,1-.13.54A.42.42,0,0,1,53.16,99.15Z"/><path class="cls-1" d="M53.16,95.5a.4.4,0,0,1-.37-.26,13.88,13.88,0,0,0-2-3.59,12,12,0,0,0-4.64-3.6A21.3,21.3,0,0,1,43,86.12c-5.9-4.43-6.62-11.87-6.65-12.18a16.42,16.42,0,0,1,1.41-8.12.4.4,0,1,1,.73.31,15.51,15.51,0,0,0-1.35,7.74c0,.3.71,7.4,6.34,11.62a20.74,20.74,0,0,0,3.09,1.86,12.8,12.8,0,0,1,4.9,3.82A14.69,14.69,0,0,1,53.53,95a.39.39,0,0,1-.23.51A.35.35,0,0,1,53.16,95.5Z"/><path class="cls-1" d="M53.16,91.82a.39.39,0,0,1-.34-.21,18.58,18.58,0,0,0-3.06-4.1,17,17,0,0,0-3.89-2.92,11.67,11.67,0,0,1-3.8-3.11,13.15,13.15,0,0,1-2.55-6.34,13.47,13.47,0,0,1,.91-6.71.41.41,0,0,1,.52-.22.4.4,0,0,1,.21.52A12.69,12.69,0,0,0,40.3,75a12.5,12.5,0,0,0,2.39,6,10.84,10.84,0,0,0,3.58,2.91,17.79,17.79,0,0,1,4,3,19.25,19.25,0,0,1,3.19,4.28.41.41,0,0,1-.16.54A.41.41,0,0,1,53.16,91.82Z"/><path class="cls-1" d="M51,55.4a.39.39,0,0,1-.33-.18,8.79,8.79,0,0,0-4.08-3.45,11.34,11.34,0,0,0-1.47-.41,16.2,16.2,0,0,1-2.84-.89,17.12,17.12,0,0,1-2.61-1.38.4.4,0,0,1-.11-.55.39.39,0,0,1,.54-.11,16.79,16.79,0,0,0,2.48,1.31,15.13,15.13,0,0,0,2.72.85,13.71,13.71,0,0,1,1.57.44,9.56,9.56,0,0,1,4.45,3.75.39.39,0,0,1-.1.55A.44.44,0,0,1,51,55.4Z"/><path class="cls-1" d="M52.75,85.51a7.73,7.73,0,0,1-6.07-2.79.56.56,0,0,1,.07-.79.57.57,0,0,1,.79.06,6.66,6.66,0,0,0,2.07,1.66,7.44,7.44,0,0,0,7.21-.43,7,7,0,0,0,1.37-1.12.56.56,0,0,1,.8,0,.56.56,0,0,1,0,.79,8.22,8.22,0,0,1-1.59,1.3A8.81,8.81,0,0,1,52.75,85.51Z"/><path class="cls-2" d="M47.94,3l.68-.95A4.53,4.53,0,0,1,50.37.59a2.93,2.93,0,0,1,2.55,0,3.92,3.92,0,0,1,2.23,2.64,8.77,8.77,0,0,1,.32,2c.06,1.14.1,2.28.15,3.42a21.18,21.18,0,0,0,.28,2.75l0,.17.17-.14a5.16,5.16,0,0,1,2.19-1.28,4.18,4.18,0,0,1,2.83.17A2.89,2.89,0,0,1,63,13a5,5,0,0,1-2.55,4.47,3.2,3.2,0,0,1-2.55.19,4.22,4.22,0,0,1-2.16-1.48l-.28-.36a2.72,2.72,0,0,0-.12.25c-.23.53-.44,1.07-.7,1.58a11.13,11.13,0,0,1-.82,1.42,3.39,3.39,0,0,1-2.38,1.39A.95.95,0,0,1,51,18.61a2.73,2.73,0,0,1,.41-.1,1.44,1.44,0,0,0,1-.64c.25-.41.49-.82.7-1.25.29-.62.55-1.27.83-1.9.15-.33.33-.65.51-1a.38.38,0,0,0,0-.33,20,20,0,0,1-.59-3.34c-.12-1.31-.12-2.62-.18-3.92a11.12,11.12,0,0,0-.32-2.5A2.08,2.08,0,0,0,52.15,2.3a1.08,1.08,0,0,0-1,0,2.55,2.55,0,0,0-1,.87l-.8,1.18a2.58,2.58,0,0,0-.19.37,1.34,1.34,0,0,0-.08,1.06,20.21,20.21,0,0,1,.9,4.29,18.11,18.11,0,0,1,.08,3.21,2,2,0,0,1,0,.34.95.95,0,0,1-1.85-.24c0-.27,0-.54,0-.81a19.29,19.29,0,0,0-1.31-7.36A9.17,9.17,0,0,0,46,3.52a4.36,4.36,0,0,0-.77-.89A1,1,0,0,1,46.3,1.06a2.27,2.27,0,0,1,.45.37,6.23,6.23,0,0,1,1,1.35Zm11.53,8.88a2.46,2.46,0,0,0-1.1.25,4,4,0,0,0-1.27,1c-.15.19-.28.38-.44.56a.29.29,0,0,0,0,.34,6,6,0,0,0,.74,1,2.34,2.34,0,0,0,1.23.74,1.35,1.35,0,0,0,1.09-.16,3.1,3.1,0,0,0,1.17-1.39A2.65,2.65,0,0,0,61.09,13a1.07,1.07,0,0,0-.7-.9A2.39,2.39,0,0,0,59.47,11.89Z"/><path class="cls-1" d="M85.72,79.35a.11.11,0,0,1,0-.21,6.53,6.53,0,0,0,2.52-1.44c.7-.73.92-2.26,1.15-3.07a.11.11,0,0,1,.22,0c.14.82.19,2.29,1,3.1a5.88,5.88,0,0,0,2.66,1.43.11.11,0,0,1,0,.21,5.59,5.59,0,0,0-2.45,1.27c-.76.79-1,2.38-1.15,3.15a.11.11,0,0,1-.22,0c-.23-.8-.46-2.5-1.35-3.34A6,6,0,0,0,85.72,79.35Z"/><path class="cls-1" d="M81.67,30.15a.11.11,0,0,1,0-.21,6.63,6.63,0,0,0,2.52-1.45c.7-.73.92-2.26,1.16-3.07a.11.11,0,0,1,.22,0c.13.81.19,2.28,1,3.09A5.78,5.78,0,0,0,89.17,30a.11.11,0,0,1,0,.21,5.62,5.62,0,0,0-2.44,1.27c-.77.79-1,2.38-1.16,3.15a.11.11,0,0,1-.21,0c-.23-.8-.47-2.5-1.36-3.34A5.9,5.9,0,0,0,81.67,30.15Z"/><path class="cls-1" d="M97.63,52.94a.11.11,0,0,1,0-.21,6.46,6.46,0,0,0,2.52-1.44c.7-.73.92-2.26,1.16-3.07a.11.11,0,0,1,.22,0c.13.82.19,2.29,1,3.1a5.88,5.88,0,0,0,2.66,1.43.11.11,0,0,1,0,.21,5.69,5.69,0,0,0-2.45,1.27c-.76.79-1,2.38-1.15,3.15a.11.11,0,0,1-.22,0c-.22-.81-.46-2.5-1.35-3.34A6.08,6.08,0,0,0,97.63,52.94Z"/><path class="cls-1" d="M8.64,32.54a.11.11,0,0,1,0-.21,6.46,6.46,0,0,0,2.52-1.44c.7-.73.92-2.26,1.16-3.07a.11.11,0,0,1,.22,0c.13.82.19,2.29,1,3.1a5.88,5.88,0,0,0,2.66,1.43.11.11,0,0,1,0,.21,5.69,5.69,0,0,0-2.45,1.27c-.76.79-1,2.38-1.15,3.15a.11.11,0,0,1-.22,0c-.22-.81-.46-2.5-1.35-3.34A6.08,6.08,0,0,0,8.64,32.54Z"/><path class="cls-1" d="M9.14,66.22a.11.11,0,0,1,0-.21,6.7,6.7,0,0,0,2.51-1.44c.71-.74.92-2.27,1.16-3.07a.11.11,0,0,1,.22,0c.14.81.19,2.28,1,3.09A5.6,5.6,0,0,0,16.65,66a.12.12,0,0,1,0,.22,5.45,5.45,0,0,0-2.45,1.26c-.77.79-1,2.38-1.15,3.15a.11.11,0,0,1-.22,0c-.23-.8-.47-2.5-1.36-3.33A5.8,5.8,0,0,0,9.14,66.22Z"/><path class="cls-1" d="M29.85,97.33a.11.11,0,0,1,0-.21,6.53,6.53,0,0,0,2.52-1.44c.7-.73.92-2.26,1.15-3.07a.11.11,0,0,1,.22,0c.14.82.19,2.29,1,3.1a5.88,5.88,0,0,0,2.66,1.43.11.11,0,0,1,0,.21,5.59,5.59,0,0,0-2.45,1.27c-.76.79-1,2.38-1.15,3.15a.11.11,0,0,1-.22,0c-.23-.81-.46-2.5-1.35-3.34A6,6,0,0,0,29.85,97.33Z"/><path class="cls-1" d="M81.65,60.64a1.14,1.14,0,1,1-1.14-1.14A1.14,1.14,0,0,1,81.65,60.64Z"/><path class="cls-1" d="M103.61,73.41a1.15,1.15,0,1,1-1.14-1.14A1.15,1.15,0,0,1,103.61,73.41Z"/><circle class="cls-1" cx="77.59" cy="97.71" r="1.14"/><path class="cls-1" d="M104.73,33.56a1.14,1.14,0,1,1-1.14-1.14A1.14,1.14,0,0,1,104.73,33.56Z"/><path class="cls-1" d="M70.36,1.14A1.14,1.14,0,1,1,69.22,0,1.14,1.14,0,0,1,70.36,1.14Z"/><path class="cls-1" d="M31.17,6A1.14,1.14,0,1,1,30,4.88,1.14,1.14,0,0,1,31.17,6Z"/><path class="cls-1" d="M2.28,49.08a1.14,1.14,0,1,1-1.14-1.14A1.14,1.14,0,0,1,2.28,49.08Z"/><path class="cls-1" d="M27.67,60.54a1.15,1.15,0,1,1-1.15-1.14A1.15,1.15,0,0,1,27.67,60.54Z"/><path class="cls-1" d="M24,86.93a1.15,1.15,0,1,1-1.14-1.14A1.14,1.14,0,0,1,24,86.93Z"/><path class="cls-1" d="M47.21,105.87a1.14,1.14,0,1,1-1.14-1.15A1.14,1.14,0,0,1,47.21,105.87Z"/><path class="cls-1" d="M91.35,16a.85.85,0,0,1-.84.84.84.84,0,0,1-.83-.84.83.83,0,0,1,.83-.83A.84.84,0,0,1,91.35,16Z"/><path class="cls-1" d="M53.44,32.06a.83.83,0,1,1-.83-.84A.83.83,0,0,1,53.44,32.06Z"/><path class="cls-1" d="M26.84,34.47a.83.83,0,1,1-.83-.83A.83.83,0,0,1,26.84,34.47Z"/><path class="cls-1" d="M63.42,100.19a.85.85,0,0,1-.84.84.84.84,0,0,1-.83-.84.83.83,0,0,1,.83-.83A.84.84,0,0,1,63.42,100.19Z"/><path class="cls-1" d="M95.14,66.31a.57.57,0,0,1-.57.57.58.58,0,1,1,0-1.15A.57.57,0,0,1,95.14,66.31Z"/><path class="cls-1" d="M10.9,79.64a.57.57,0,0,1-.57.58.58.58,0,1,1,0-1.15A.57.57,0,0,1,10.9,79.64Z"/><path class="cls-1" d="M12.28,18.83a.58.58,0,0,1-.58.58.57.57,0,0,1-.57-.58.56.56,0,0,1,.57-.57A.57.57,0,0,1,12.28,18.83Z"/><path class="cls-1" d="M82,6.3a.58.58,0,1,1-.58-.58A.58.58,0,0,1,82,6.3Z"/><path class="cls-1" d="M79.64,74.19a.58.58,0,1,1-.58-.58A.58.58,0,0,1,79.64,74.19Z"/><path class="cls-1" d="M39.87.76a.57.57,0,0,1-.57.58.58.58,0,0,1-.58-.58A.58.58,0,0,1,39.3.19.57.57,0,0,1,39.87.76Z"/><path class="cls-1" d="M74.74,36.11a.58.58,0,0,1-1.16,0,.58.58,0,1,1,1.16,0Z"/><path class="cls-1" d="M41.2,15.61a.58.58,0,1,1-1.16,0,.58.58,0,0,1,1.16,0Z"/></g></g></svg>