<svg xmlns="http://www.w3.org/2000/svg" viewBox="0 0 18.19 235.39" width="50px">
    <defs>
        <style>
            .cls-1 {
                fill: #fff;
            }
        </style>
    </defs>
    <g id="Layer_2" data-name="Layer 2">
        <g id="Text">
            <path class="cls-1"
                d="M2.31,132.37,9.09,125l6.79,7.4-6.79,7.39Zm6.78-5.72-5.24,5.72,5.24,5.71,5.25-5.71Z" />
            <path class="cls-1" d="M2.31,146l6.78-7.39L15.88,146l-6.79,7.4Zm6.78-5.71L3.85,146l5.24,5.72L14.34,146Z" />
            <path class="cls-1" d="M2.31,89.42,9.09,82l6.79,7.39-6.79,7.4ZM9.09,83.7,3.85,89.42l5.24,5.72,5.25-5.72Z" />
            <path class="cls-1" d="M2.31,103l6.78-7.4,6.79,7.4-6.79,7.39ZM9.09,97.3,3.85,103l5.24,5.72L14.34,103Z" />
            <path class="cls-1"
                d="M0,117.73C0,113.45,4.08,110,9.09,110s9.1,3.49,9.1,7.77-4.08,7.77-9.1,7.77S0,122,0,117.73Zm17.58,0c0-4-3.81-7.25-8.49-7.25S.61,113.74.61,117.73,4.41,125,9.09,125,17.58,121.73,17.58,117.73Z" />
            <path class="cls-1"
                d="M1.41,117.73c0-3.62,3.44-6.56,7.68-6.56s7.69,2.94,7.69,6.56-3.45,6.57-7.69,6.57S1.41,121.36,1.41,117.73Zm14.12,0c0-3-2.89-5.5-6.44-5.5s-6.43,2.47-6.43,5.5,2.88,5.5,6.43,5.5S15.53,120.77,15.53,117.73Z" />
            <path class="cls-1"
                d="M9.09,121.69c-2.55,0-4.63-1.77-4.63-4s2.08-4,4.63-4,4.63,1.77,4.63,4S11.65,121.69,9.09,121.69Z" />
            <rect class="cls-1" x="8.56" width="1.21" height="75.63" />
            <path class="cls-1"
                d="M9.17,73.79S6.62,77,3.88,76.41a2.69,2.69,0,0,0,3.25.38c1.45-1-1.62.78,2,2.81,3.66-2,.43-3.61,2-2.81a2.66,2.66,0,0,0,3.24-.38A6.71,6.71,0,0,1,9.17,73.79Z" />
            <rect class="cls-1" x="8.56" y="159.76" width="1.21" height="75.63" />
            <path class="cls-1"
                d="M9.17,161.6s2.54-3.21,5.28-2.62a2.69,2.69,0,0,0-3.24-.39c-1.46,1,1.62-.78-2-2.8-3.66,2-.44,3.61-2,2.8a2.67,2.67,0,0,0-3.25.39A6.7,6.7,0,0,1,9.17,161.6Z" />
        </g>
    </g>
</svg>