<svg xmlns="http://www.w3.org/2000/svg" viewBox="0 0 268.99 13.59"><defs><style>.cls-1{fill:#fff;}</style></defs><g id="Layer_2" data-name="Layer 2"><g id="Text"><path class="cls-1" d="M1.89,6.48,95.14,5.29a1.51,1.51,0,1,1,0,3h0L1.89,7.11a.32.32,0,0,1,0-.63Z"/><path class="cls-1" d="M123.08,6.8A3.78,3.78,0,1,1,119.3,3,3.77,3.77,0,0,1,123.08,6.8Z"/><path class="cls-1" d="M108.92,6.8a2.27,2.27,0,1,1-2.27-2.27A2.27,2.27,0,0,1,108.92,6.8Z"/><circle class="cls-1" cx="134.21" cy="6.8" r="6.8"/><path class="cls-1" d="M266.54,7.11l-93.25,1.2a1.51,1.51,0,1,1,0-3h0l93.25,1.19a.32.32,0,0,1,.31.32A.31.31,0,0,1,266.54,7.11Z"/><path class="cls-1" d="M145.35,6.8a3.78,3.78,0,1,1,3.78,3.77A3.78,3.78,0,0,1,145.35,6.8Z"/><path class="cls-1" d="M159.51,6.8a2.27,2.27,0,1,1,2.26,2.26A2.26,2.26,0,0,1,159.51,6.8Z"/><path class="cls-1" d="M0,6.8A2.27,2.27,0,1,1,2.27,9.06,2.26,2.26,0,0,1,0,6.8Z"/><path class="cls-1" d="M264.46,6.8a2.27,2.27,0,1,1,2.27,2.26A2.27,2.27,0,0,1,264.46,6.8Z"/></g></g></svg>