<svg xmlns="http://www.w3.org/2000/svg" viewBox="0 0 105.33 110.48"><defs><style>.cls-1{fill:#fff;}.cls-2{fill:#c4ab5b;}</style></defs><g id="Layer_2" data-name="Layer 2"><g id="Text"><path class="cls-1" d="M60.22,79.76a7.44,7.44,0,0,1-.93-.05,8.23,8.23,0,0,1-6.39-5,4.14,4.14,0,0,1-.12-1.53c0-.13,0-.25,0-.38a.68.68,0,1,1,1.35,0c0,.17,0,.33,0,.47a3.15,3.15,0,0,0,.08,1.11,6.85,6.85,0,0,0,5.24,4,6.74,6.74,0,0,0,4.4-1,7.15,7.15,0,0,0,2.37-2.6,9.26,9.26,0,0,0,1-5.89,13.16,13.16,0,0,1,.88-6.51A20.71,20.71,0,0,1,70,59a12,12,0,0,0,2.25-5.09,17.75,17.75,0,0,0,.19-4.39c-.26-3.45-1.64-11.95-8.74-16.28a17.9,17.9,0,0,0-10.22-2.41.67.67,0,0,1-.71-.64.68.68,0,0,1,.64-.72,19.33,19.33,0,0,1,11,2.62,18.78,18.78,0,0,1,7.83,10,27.52,27.52,0,0,1,1.56,7.37,18.71,18.71,0,0,1-.21,4.74,13.41,13.41,0,0,1-2.45,5.59,18.78,18.78,0,0,0-1.78,3.14,11.83,11.83,0,0,0-.77,5.89,10.68,10.68,0,0,1-1.21,6.64,8.5,8.5,0,0,1-2.82,3.07A8.27,8.27,0,0,1,60.22,79.76Z"/><path d="M54.46,71.76a4.21,4.21,0,0,0,.49-1,3.82,3.82,0,0,1,.52-1,1.86,1.86,0,0,1,1.32-.64,1.49,1.49,0,0,1,.75.16,1,1,0,0,1,.49.58.92.92,0,0,1-.11.79,1.46,1.46,0,0,1-.78.49,9.46,9.46,0,0,0-.91.26,5.37,5.37,0,0,0-1.11.74,2.36,2.36,0,0,1-1.2.55.54.54,0,0,1-.35-.09c-.26-.22,0-.36.23-.42A1.48,1.48,0,0,0,54.46,71.76Z"/><path class="cls-1" d="M53.86,72.82a.51.51,0,0,1-.32-.09.25.25,0,0,1-.12-.25q0-.17.36-.27a1.35,1.35,0,0,0,.63-.48h0a4,4,0,0,0,.47-.92l0,0a3.36,3.36,0,0,1,.53-1,1.91,1.91,0,0,1,1.36-.66,1.57,1.57,0,0,1,.78.17,1.1,1.1,0,0,1,.52.61,1,1,0,0,1-.13.84,1.39,1.39,0,0,1-.81.51l-.34.1a3.58,3.58,0,0,0-.56.16,3.89,3.89,0,0,0-.89.58l-.2.15a2.4,2.4,0,0,1-1.23.56Zm.64-1a1.45,1.45,0,0,1-.69.53c-.23.07-.27.15-.28.18s0,.1.08.14a.41.41,0,0,0,.31.07,2.3,2.3,0,0,0,1.17-.54l.2-.15a4,4,0,0,1,.92-.59,3.08,3.08,0,0,1,.57-.17l.34-.09a1.41,1.41,0,0,0,.75-.47A.87.87,0,0,0,58,70a1,1,0,0,0-.47-.54,1.39,1.39,0,0,0-.72-.16,1.78,1.78,0,0,0-1.28.63,3.6,3.6,0,0,0-.51.93v0a3.66,3.66,0,0,1-.49.94Z"/><path d="M52.49,71.76a4.24,4.24,0,0,1-.5-1,3.52,3.52,0,0,0-.52-1,1.84,1.84,0,0,0-1.31-.64,1.53,1.53,0,0,0-.76.16,1.08,1.08,0,0,0-.49.58.89.89,0,0,0,.12.79,1.46,1.46,0,0,0,.78.49,9.26,9.26,0,0,1,.9.26,5.11,5.11,0,0,1,1.11.74,2.44,2.44,0,0,0,1.2.55.53.53,0,0,0,.35-.09c.27-.22,0-.36-.22-.42A1.42,1.42,0,0,1,52.49,71.76Z"/><path class="cls-1" d="M53.09,72.82H53a2.33,2.33,0,0,1-1.23-.56l-.2-.15a3.74,3.74,0,0,0-.9-.58,3.8,3.8,0,0,0-.55-.16l-.35-.1a1.42,1.42,0,0,1-.81-.51,1,1,0,0,1-.12-.84,1.1,1.1,0,0,1,.52-.61,1.52,1.52,0,0,1,.78-.17,1.93,1.93,0,0,1,1.36.66,3.59,3.59,0,0,1,.52,1l0,0a4,4,0,0,0,.47.92h0a1.44,1.44,0,0,0,.64.48c.22.07.33.16.36.27a.3.3,0,0,1-.12.25A.53.53,0,0,1,53.09,72.82Zm-3-3.57a1.43,1.43,0,0,0-.66.16A1,1,0,0,0,49,70a.9.9,0,0,0,.11.75,1.45,1.45,0,0,0,.75.47l.34.09a2.87,2.87,0,0,1,.57.17,4.07,4.07,0,0,1,.93.59l.2.15a2.22,2.22,0,0,0,1.17.54.37.37,0,0,0,.3-.07c.05,0,.09-.09.08-.14s0-.11-.28-.18a1.45,1.45,0,0,1-.69-.53h0a4,4,0,0,1-.48-.94l0,0a3.6,3.6,0,0,0-.51-.93,1.76,1.76,0,0,0-1.28-.63Z"/><path class="cls-1" d="M57.5,71a.43.43,0,0,1-.24-.08.44.44,0,0,1-.13-.62,7.86,7.86,0,0,0,1.22-3.12,8.56,8.56,0,0,0-.28-3.59,15.36,15.36,0,0,0-2.18-4.9,7.44,7.44,0,0,1-1.47-3.84,7.89,7.89,0,0,1,2-5.68c2.66-2.61,8.13-2.69,10.19-2.72h.12a6.29,6.29,0,0,0,3.66-.94,5.31,5.31,0,0,0,1.5-1.65.48.48,0,0,1,.41-.22,15.76,15.76,0,0,1,10.6,4.27c2.82,2.8,5.87,8.26,3.83,11.65a5.07,5.07,0,0,1-1.86,1.75.46.46,0,0,1-.62-.18.45.45,0,0,1,.18-.61,4,4,0,0,0,1.52-1.43c1.77-2.94-1.15-8-3.69-10.54a14.8,14.8,0,0,0-9.73-4,6,6,0,0,1-1.63,1.7,7.22,7.22,0,0,1-4.15,1.11H66.6c-2,0-7.16.1-9.56,2.47a7.05,7.05,0,0,0-1.72,5,6.63,6.63,0,0,0,1.34,3.41,16.47,16.47,0,0,1,2.28,5.16,9.35,9.35,0,0,1,.3,4,8.75,8.75,0,0,1-1.36,3.47A.47.47,0,0,1,57.5,71Z"/><path class="cls-1" d="M58.81,67.55h-.09a.39.39,0,0,1-.29-.47,17.75,17.75,0,0,0,.44-4.61,21.66,21.66,0,0,0-.78-4.7,10.81,10.81,0,0,1-.32-5.87A7.11,7.11,0,0,1,59,49.22a7.34,7.34,0,0,1,3.7-2.45.38.38,0,0,1,.49.26.4.4,0,0,1-.27.49,6.58,6.58,0,0,0-3.29,2.18,6.24,6.24,0,0,0-1.13,2.39,10.22,10.22,0,0,0,.33,5.48,22.75,22.75,0,0,1,.8,4.86,18.39,18.39,0,0,1-.47,4.81A.39.39,0,0,1,58.81,67.55Z"/><path class="cls-1" d="M57.88,55a.4.4,0,0,1-.37-.55A5.34,5.34,0,0,1,60,51.51a4.78,4.78,0,0,1,2.58-.38A4.17,4.17,0,0,0,64.38,51c1.26-.47,2.24-1.88,2.91-4.2a.4.4,0,0,1,.49-.27.4.4,0,0,1,.27.49c-.74,2.57-1.89,4.16-3.39,4.72a5,5,0,0,1-2.17.21,4,4,0,0,0-2.19.3,4.5,4.5,0,0,0-2,2.5A.41.41,0,0,1,57.88,55Z"/><path class="cls-1" d="M62.29,51.91h-.08a2.8,2.8,0,0,1-1.76-1.17,2.92,2.92,0,0,1-.23-2.62.39.39,0,0,1,.51-.22.41.41,0,0,1,.22.52,2.13,2.13,0,0,0,.16,1.89,2,2,0,0,0,1.26.83.39.39,0,0,1-.08.78Z"/><path class="cls-1" d="M61.86,73.06a.75.75,0,0,1-1.5,0,.75.75,0,0,1,1.5,0Z"/><path class="cls-1" d="M65.46,71.32a.75.75,0,0,1-1.5,0,.75.75,0,1,1,1.5,0Z"/><path class="cls-1" d="M65.06,74.13a.75.75,0,1,1-.75-.75A.75.75,0,0,1,65.06,74.13Z"/><circle class="cls-1" cx="61.31" cy="75.92" r="0.75"/><circle class="cls-1" cx="53.51" cy="33.69" r="1.73"/><path class="cls-1" d="M61.26,34.63A1.24,1.24,0,1,1,60,33.39,1.24,1.24,0,0,1,61.26,34.63Z"/><path class="cls-1" d="M65.29,36.79a.76.76,0,1,1-.76-.76A.76.76,0,0,1,65.29,36.79Z"/><path class="cls-1" d="M53.47,103.57l-.1,0a.39.39,0,0,1-.28-.48,18.28,18.28,0,0,1,1.19-3.17A15.56,15.56,0,0,1,56,97.18c.23-.31.46-.61.67-.93a12.6,12.6,0,0,0,1.61-7.41,16,16,0,0,0-1.79-6.92.39.39,0,0,1,.17-.53.4.4,0,0,1,.53.17,16.77,16.77,0,0,1,1.88,7.26,13.29,13.29,0,0,1-1.74,7.85c-.23.35-.46.66-.7,1A14.21,14.21,0,0,0,55,100.25a16.86,16.86,0,0,0-1.13,3A.41.41,0,0,1,53.47,103.57Z"/><path class="cls-1" d="M53.47,109.92a.34.34,0,0,1-.19,0,.4.4,0,0,1-.15-.54A17.8,17.8,0,0,1,56,105.65a14.75,14.75,0,0,1,4.85-3.2,11.77,11.77,0,0,0,4-2.64,12.2,12.2,0,0,0,3.47-7.51,12,12,0,0,0-1-5.21,15.37,15.37,0,0,0-1.43-2.49,13.45,13.45,0,0,1-2-4,13.29,13.29,0,0,1-.48-2.42.39.39,0,0,1,.35-.44.4.4,0,0,1,.43.35,12.34,12.34,0,0,0,2.35,6.06,15.48,15.48,0,0,1,1.51,2.62,12.11,12.11,0,0,1-2.68,13.58,12.23,12.23,0,0,1-4.26,2.8,14,14,0,0,0-4.62,3,16.58,16.58,0,0,0-2.69,3.52A.42.42,0,0,1,53.47,109.92Z"/><path class="cls-1" d="M60,99.75a.37.37,0,0,1-.35-.21.38.38,0,0,1,.16-.53,6.92,6.92,0,0,0,3.16-4,12.25,12.25,0,0,0,.4-5.28A20.51,20.51,0,0,0,60.3,81a.4.4,0,0,1,.67-.43,21.35,21.35,0,0,1,3.22,9.1,13.08,13.08,0,0,1-.43,5.6,7.71,7.71,0,0,1-3.54,4.42A.39.39,0,0,1,60,99.75Z"/><path class="cls-1" d="M68.68,91.58a.4.4,0,0,1-.31-.15.41.41,0,0,1,.07-.56,12.76,12.76,0,0,0,4.78-9.58,12,12,0,0,0-2.53-7.5,13.43,13.43,0,0,0-2.91-2.87.4.4,0,0,1,.45-.65c.6.41,5.87,4.22,5.78,11a13.68,13.68,0,0,1-5.08,10.2A.46.46,0,0,1,68.68,91.58Z"/><path class="cls-1" d="M67.37,97.33a.39.39,0,0,1-.11-.77c1.52-.44,9.26-3,11.94-10.15,3-8.08-1.67-18.14-10.69-22.88a.4.4,0,0,1-.16-.54.39.39,0,0,1,.53-.16,23,23,0,0,1,10.34,10.8,17.19,17.19,0,0,1,.72,13.06c-2.81,7.52-10.87,10.17-12.46,10.63Z"/><path class="cls-1" d="M80.26,87.58c-.32,0-.64,0-1,0a.39.39,0,0,1-.36-.43.41.41,0,0,1,.43-.36,10.13,10.13,0,0,0,5.06-.84,11.06,11.06,0,0,0,5.81-7.06c2.05-6.37-2.08-12.56-3.43-14.59a25.18,25.18,0,0,0-14-9.86.4.4,0,0,1-.27-.49.39.39,0,0,1,.48-.27A25.89,25.89,0,0,1,87.46,63.83c1.41,2.1,5.7,8.52,3.54,15.26a12,12,0,0,1-6.25,7.54A10.76,10.76,0,0,1,80.26,87.58Z"/><path class="cls-1" d="M80.51,82.51a.39.39,0,0,1-.32-.16.4.4,0,0,1,.08-.55,9,9,0,0,0,3-3.71c1-2.49.76-5.43-.82-8.75a25.54,25.54,0,0,0-5.22-7.07,21.56,21.56,0,0,0-5.94-4,.39.39,0,0,1,.32-.72,22.25,22.25,0,0,1,6.17,4.11C81.34,65,86.6,72.28,84,78.39a9.72,9.72,0,0,1-3.3,4A.39.39,0,0,1,80.51,82.51Z"/><path class="cls-1" d="M88.32,66.3a.39.39,0,0,1-.11-.77,7.07,7.07,0,0,0,3.23-2,8,8,0,0,0,1.85-5.11c.33-5.46-3.4-9.81-5.18-11.9a27.67,27.67,0,0,0-8.82-6.72,32.7,32.7,0,0,0-11-3.41.4.4,0,0,1,.1-.79,33.84,33.84,0,0,1,11.27,3.49,28.64,28.64,0,0,1,9,6.92c1.86,2.17,5.73,6.68,5.38,12.45A8.7,8.7,0,0,1,92,64.09a7.84,7.84,0,0,1-3.59,2.2Z"/><path class="cls-1" d="M88.74,46.64h-.1a.4.4,0,0,1-.28-.49,16.9,16.9,0,0,0-.13-9.39c-2.37-7.46-9.78-11.21-15.39-12.15-9.64-1.61-16.7,4.5-18,5.74a.4.4,0,1,1-.55-.57C55.65,28.48,63,22.15,73,23.83c5.83,1,13.53,4.88,16,12.68a17.62,17.62,0,0,1,.14,9.83A.39.39,0,0,1,88.74,46.64Z"/><path class="cls-1" d="M84.11,42.69a.4.4,0,0,1-.39-.32,16.72,16.72,0,0,0-1.84-4.82,14.1,14.1,0,0,0-7.53-6.63,15.14,15.14,0,0,0-11.88.85.39.39,0,0,1-.53-.17.4.4,0,0,1,.17-.53,16,16,0,0,1,12.51-.89c8.15,3,9.81,11.68,9.88,12a.38.38,0,0,1-.32.45Z"/><path class="cls-1" d="M49.24,70.38a.48.48,0,0,1-.23-.07.39.39,0,0,1-.09-.55,5.75,5.75,0,0,1,4.18-2.38,5.81,5.81,0,0,1,4.82,2.26.4.4,0,0,1-.64.47,5.1,5.1,0,0,0-4.13-1.94,4.94,4.94,0,0,0-3.59,2A.4.4,0,0,1,49.24,70.38Z"/><path class="cls-1" d="M65.89,49.16A2.15,2.15,0,1,1,63.74,47,2.16,2.16,0,0,1,65.89,49.16Z"/><path class="cls-1" d="M46.72,79.76a8.2,8.2,0,0,1-4.35-1.28,8.43,8.43,0,0,1-2.83-3.07,10.68,10.68,0,0,1-1.21-6.64,11.83,11.83,0,0,0-.77-5.89,18.1,18.1,0,0,0-1.78-3.14,13.54,13.54,0,0,1-2.45-5.59,17.36,17.36,0,0,1-.2-4.74c.27-3.64,1.75-12.6,9.47-17.29a19.49,19.49,0,0,1,10.9-2.66.68.68,0,0,1-.06,1.36A18,18,0,0,0,43.3,33.28c-7.18,4.36-8.56,12.8-8.83,16.23a16.34,16.34,0,0,0,.19,4.39A12.27,12.27,0,0,0,36.91,59a20,20,0,0,1,1.9,3.35,13.14,13.14,0,0,1,.87,6.51,9.26,9.26,0,0,0,1,5.89,7.24,7.24,0,0,0,2.37,2.6,6.74,6.74,0,0,0,4.4,1,6.88,6.88,0,0,0,5.25-4,2.91,2.91,0,0,0,.07-1.11c0-.14,0-.3,0-.47a.68.68,0,1,1,1.36,0c0,.13,0,.25,0,.38a4.32,4.32,0,0,1-.11,1.53,8.25,8.25,0,0,1-6.39,5A7.6,7.6,0,0,1,46.72,79.76Z"/><path class="cls-1" d="M52.49,71.76a4.24,4.24,0,0,1-.5-1,3.52,3.52,0,0,0-.52-1,1.84,1.84,0,0,0-1.31-.64,1.53,1.53,0,0,0-.76.16,1.08,1.08,0,0,0-.49.58.89.89,0,0,0,.12.79,1.46,1.46,0,0,0,.78.49,9.26,9.26,0,0,1,.9.26,5.11,5.11,0,0,1,1.11.74,2.44,2.44,0,0,0,1.2.55.53.53,0,0,0,.35-.09c.27-.22,0-.36-.22-.42A1.42,1.42,0,0,1,52.49,71.76Z"/><path class="cls-1" d="M54.46,71.76a4.21,4.21,0,0,0,.49-1,3.82,3.82,0,0,1,.52-1,1.86,1.86,0,0,1,1.32-.64,1.49,1.49,0,0,1,.75.16,1,1,0,0,1,.49.58.92.92,0,0,1-.11.79,1.46,1.46,0,0,1-.78.49,9.46,9.46,0,0,0-.91.26,5.37,5.37,0,0,0-1.11.74,2.36,2.36,0,0,1-1.2.55.54.54,0,0,1-.35-.09c-.26-.22,0-.36.23-.42A1.48,1.48,0,0,0,54.46,71.76Z"/><path class="cls-1" d="M53.86,72.82a.51.51,0,0,1-.32-.09.25.25,0,0,1-.12-.25q0-.17.36-.27a1.35,1.35,0,0,0,.63-.48h0a4,4,0,0,0,.47-.92l0,0a3.36,3.36,0,0,1,.53-1,1.91,1.91,0,0,1,1.36-.66,1.57,1.57,0,0,1,.78.17,1.1,1.1,0,0,1,.52.61,1,1,0,0,1-.13.84,1.39,1.39,0,0,1-.81.51l-.34.1a3.58,3.58,0,0,0-.56.16,3.89,3.89,0,0,0-.89.58l-.2.15a2.4,2.4,0,0,1-1.23.56Zm.64-1a1.45,1.45,0,0,1-.69.53c-.23.07-.27.15-.28.18s0,.1.08.14a.41.41,0,0,0,.31.07,2.3,2.3,0,0,0,1.17-.54l.2-.15a4,4,0,0,1,.92-.59,3.08,3.08,0,0,1,.57-.17l.34-.09a1.41,1.41,0,0,0,.75-.47A.87.87,0,0,0,58,70a1,1,0,0,0-.47-.54,1.39,1.39,0,0,0-.72-.16,1.78,1.78,0,0,0-1.28.63,3.6,3.6,0,0,0-.51.93v0a3.66,3.66,0,0,1-.49.94Z"/><path class="cls-1" d="M49.44,71a.47.47,0,0,1-.38-.21,8.9,8.9,0,0,1-1.36-3.47,9.68,9.68,0,0,1,.3-4,16.44,16.44,0,0,1,2.29-5.16,6.8,6.8,0,0,0,1.34-3.41,7.1,7.1,0,0,0-1.72-5c-2.4-2.37-7.61-2.44-9.57-2.47h-.12a7.27,7.27,0,0,1-4.16-1.11,6,6,0,0,1-1.62-1.7,14.81,14.81,0,0,0-9.74,4c-2.53,2.51-5.46,7.6-3.69,10.54a4.08,4.08,0,0,0,1.53,1.43.45.45,0,0,1-.44.79,5,5,0,0,1-1.86-1.75c-2-3.39,1-8.85,3.83-11.65a15.75,15.75,0,0,1,10.6-4.27.44.44,0,0,1,.4.22,5.31,5.31,0,0,0,1.5,1.65,6.3,6.3,0,0,0,3.66.94h.13c2,0,7.52.11,10.18,2.72a7.91,7.91,0,0,1,2,5.68,7.54,7.54,0,0,1-1.48,3.84,15.61,15.61,0,0,0-2.17,4.9,8.56,8.56,0,0,0-.29,3.59,8,8,0,0,0,1.23,3.12.45.45,0,0,1-.13.62A.46.46,0,0,1,49.44,71Z"/><path class="cls-1" d="M48.13,67.55a.39.39,0,0,1-.38-.31,18.38,18.38,0,0,1-.46-4.81,22.14,22.14,0,0,1,.8-4.86,10.12,10.12,0,0,0,.32-5.48,6.38,6.38,0,0,0-1.12-2.39A6.6,6.6,0,0,0,44,47.52a.39.39,0,1,1,.23-.75,7.32,7.32,0,0,1,3.69,2.45,7.12,7.12,0,0,1,1.27,2.67,10.81,10.81,0,0,1-.33,5.87,21.71,21.71,0,0,0-.77,4.7,17.75,17.75,0,0,0,.44,4.61.4.4,0,0,1-.3.47Z"/><path class="cls-1" d="M49.06,55a.4.4,0,0,1-.36-.25,4.51,4.51,0,0,0-2.06-2.5,4,4,0,0,0-2.18-.3,5,5,0,0,1-2.17-.21c-1.51-.56-2.65-2.15-3.4-4.72a.4.4,0,0,1,.76-.22c.67,2.32,1.65,3.73,2.91,4.2a4.17,4.17,0,0,0,1.85.16,4.77,4.77,0,0,1,2.58.38,5.26,5.26,0,0,1,2.44,2.91.4.4,0,0,1-.37.55Z"/><path class="cls-1" d="M44.65,51.91a.39.39,0,0,1-.08-.78,2,2,0,0,0,1.27-.83A2.16,2.16,0,0,0,46,48.41a.4.4,0,0,1,.21-.52.41.41,0,0,1,.52.22,2.9,2.9,0,0,1-.24,2.62,2.8,2.8,0,0,1-1.76,1.17Z"/><path class="cls-1" d="M45.08,73.06a.75.75,0,1,0,.75-.75A.75.75,0,0,0,45.08,73.06Z"/><path class="cls-1" d="M41.48,71.32a.76.76,0,1,0,.75-.75A.76.76,0,0,0,41.48,71.32Z"/><path class="cls-1" d="M41.88,74.13a.75.75,0,1,0,.75-.75A.76.76,0,0,0,41.88,74.13Z"/><circle class="cls-1" cx="45.64" cy="75.92" r="0.75"/><circle class="cls-1" cx="46.92" cy="34.63" r="1.24"/><path class="cls-1" d="M41.66,36.79a.76.76,0,1,0,.76-.76A.76.76,0,0,0,41.66,36.79Z"/><path class="cls-1" d="M53.47,103.57a.4.4,0,0,1-.38-.3,16.17,16.17,0,0,0-1.14-3,13.61,13.61,0,0,0-1.6-2.55c-.25-.34-.49-.66-.73-1a13.42,13.42,0,0,1-1.74-7.85,17,17,0,0,1,1.8-7.1.4.4,0,0,1,.71.36,16,16,0,0,0-1.72,6.76,12.74,12.74,0,0,0,1.62,7.41c.22.34.45.65.69,1a14.76,14.76,0,0,1,1.68,2.68,16.79,16.79,0,0,1,1.19,3.17.39.39,0,0,1-.28.48Z"/><path class="cls-1" d="M53.47,109.92a.39.39,0,0,1-.34-.19,17,17,0,0,0-2.7-3.52,13.88,13.88,0,0,0-4.62-3,12.32,12.32,0,0,1-4.26-2.8,13,13,0,0,1-3.68-8,12.79,12.79,0,0,1,1-5.56,16.19,16.19,0,0,1,1.5-2.62,12.5,12.5,0,0,0,1.9-3.77,12.71,12.71,0,0,0,.45-2.29.41.41,0,0,1,.44-.35.4.4,0,0,1,.35.44A13.23,13.23,0,0,1,41,84.6a14.68,14.68,0,0,0-1.44,2.49,11.31,11.31,0,0,0,2.52,12.72,11.87,11.87,0,0,0,4,2.64,14.55,14.55,0,0,1,4.85,3.2,17.8,17.8,0,0,1,2.82,3.68.39.39,0,0,1-.14.54A.35.35,0,0,1,53.47,109.92Z"/><path class="cls-1" d="M46.91,99.75a.43.43,0,0,1-.19,0,7.73,7.73,0,0,1-3.53-4.42,12.92,12.92,0,0,1-.44-5.6A21.48,21.48,0,0,1,46,80.59a.41.41,0,0,1,.55-.12.4.4,0,0,1,.12.55,20.49,20.49,0,0,0-3.1,8.75,12.23,12.23,0,0,0,.4,5.28,6.87,6.87,0,0,0,3.15,4,.39.39,0,0,1-.18.74Z"/><path class="cls-1" d="M38.26,91.58A.43.43,0,0,1,38,91.5a13.66,13.66,0,0,1-5.09-10.2c-.08-6.81,5.19-10.62,5.79-11a.39.39,0,0,1,.55.1.41.41,0,0,1-.1.55,13.19,13.19,0,0,0-2.91,2.87,12,12,0,0,0-2.54,7.5,12.79,12.79,0,0,0,4.79,9.58.4.4,0,0,1,.06.56A.39.39,0,0,1,38.26,91.58Z"/><path class="cls-1" d="M39.58,97.33h-.11c-1.59-.46-9.66-3.11-12.47-10.63a17.23,17.23,0,0,1,.72-13.06,23,23,0,0,1,10.34-10.8.4.4,0,1,1,.37.7c-9,4.74-13.71,14.8-10.69,22.88,2.68,7.17,10.42,9.71,11.94,10.15a.4.4,0,0,1,.27.49A.38.38,0,0,1,39.58,97.33Z"/><path class="cls-1" d="M26.68,87.58a10.8,10.8,0,0,1-4.49-1A12,12,0,0,1,16,79.09c-2.17-6.74,2.12-13.16,3.53-15.26A25.89,25.89,0,0,1,33.89,53.64a.4.4,0,0,1,.22.76,25.11,25.11,0,0,0-14,9.86c-1.36,2-5.49,8.22-3.44,14.59a11.07,11.07,0,0,0,5.82,7.06,10.13,10.13,0,0,0,5.06.84.4.4,0,0,1,.06.79C27.32,87.57,27,87.58,26.68,87.58Z"/><path class="cls-1" d="M26.44,82.51a.4.4,0,0,1-.24-.07,9.8,9.8,0,0,1-3.3-4C20.34,72.28,25.61,65,29.12,61.7a22.2,22.2,0,0,1,6.16-4.11.41.41,0,0,1,.53.2.39.39,0,0,1-.2.52,21.47,21.47,0,0,0-5.95,4,25.7,25.7,0,0,0-5.21,7.07c-1.59,3.32-1.86,6.26-.82,8.75a9,9,0,0,0,3,3.71.39.39,0,0,1,.08.55A.36.36,0,0,1,26.44,82.51Z"/><path class="cls-1" d="M18.63,66.3h-.12a7.84,7.84,0,0,1-3.59-2.2,8.68,8.68,0,0,1-2.05-5.6c-.35-5.77,3.51-10.28,5.37-12.45a28.76,28.76,0,0,1,9.05-6.92,33.79,33.79,0,0,1,11.26-3.49.4.4,0,0,1,.1.79,32.77,32.77,0,0,0-11,3.41,27.66,27.66,0,0,0-8.81,6.72c-1.79,2.09-5.51,6.44-5.18,11.9a7.94,7.94,0,0,0,1.84,5.11,7.11,7.11,0,0,0,3.24,2,.39.39,0,0,1-.11.77Z"/><path class="cls-1" d="M18.2,46.64a.4.4,0,0,1-.38-.3A17.71,17.71,0,0,1,18,36.51c2.48-7.8,10.18-11.71,16-12.68,10-1.68,17.32,4.65,18.68,5.94a.4.4,0,0,1,0,.56.4.4,0,0,1-.56,0c-1.32-1.24-8.37-7.35-18-5.74-5.62.94-13,4.69-15.4,12.15a16.81,16.81,0,0,0-.12,9.39.4.4,0,0,1-.29.49Z"/><path class="cls-1" d="M22.83,42.69h-.07a.38.38,0,0,1-.31-.45c.06-.37,1.73-9,9.87-12a16,16,0,0,1,12.51.89.39.39,0,1,1-.36.7,15.11,15.11,0,0,0-11.87-.85,14.1,14.1,0,0,0-7.53,6.63,17.3,17.3,0,0,0-1.85,4.82A.39.39,0,0,1,22.83,42.69Z"/><path class="cls-1" d="M57.71,70.49a.5.5,0,0,1-.42-.22,4.87,4.87,0,0,0-3.5-2,4.94,4.94,0,0,0-4,1.9.51.51,0,1,1-.81-.61,6,6,0,0,1,4.92-2.3,5.88,5.88,0,0,1,4.26,2.42.51.51,0,0,1-.12.71A.52.52,0,0,1,57.71,70.49Z"/><path class="cls-1" d="M41.06,49.16A2.15,2.15,0,1,0,43.21,47,2.15,2.15,0,0,0,41.06,49.16Z"/><path class="cls-1" d="M53.22,82.9a10.88,10.88,0,0,1-7.78-3.49.56.56,0,0,1,0-.79.57.57,0,0,1,.8,0,9.69,9.69,0,0,0,7.23,3.11,9.58,9.58,0,0,0,6.63-3.11.56.56,0,0,1,.79,0,.55.55,0,0,1,0,.79,10.73,10.73,0,0,1-7.43,3.48Z"/><path class="cls-1" d="M60.56,26.44a.44.44,0,0,1-.25-.08A11,11,0,0,0,53.52,24h-.05a11,11,0,0,0-6.84,2.4.4.4,0,0,1-.55-.07.39.39,0,0,1,.06-.55,11.86,11.86,0,0,1,7.33-2.57h.06a11.84,11.84,0,0,1,7.27,2.57.4.4,0,0,1,.07.55A.4.4,0,0,1,60.56,26.44Z"/><path class="cls-1" d="M40.66,24.62a.4.4,0,0,1-.27-.68,19,19,0,0,1,13.08-5.32h.06a19.06,19.06,0,0,1,13,5.32.4.4,0,0,1,0,.56.38.38,0,0,1-.55,0,18.21,18.21,0,0,0-12.48-5.1h-.06a18.46,18.46,0,0,0-12.53,5.1A.43.43,0,0,1,40.66,24.62Z"/><path class="cls-2" d="M49.39,6.5c-.07-.37-.13-.71-.19-1a5.29,5.29,0,0,1,.24-2.73c0-.07.05-.15.08-.23A3.48,3.48,0,0,1,52.21.16,5.81,5.81,0,0,1,54.63.1a4.68,4.68,0,0,1,.73.21A3,3,0,0,1,57,1.77a4.8,4.8,0,0,1,.61,2.65,7.53,7.53,0,0,1-.87,3.28c-.4.77-.79,1.55-1.19,2.34a5.84,5.84,0,0,0-.62,2.5,5,5,0,0,0,.05.67,1.38,1.38,0,0,0,.21.54,1,1,0,0,0,.89.52.7.7,0,0,0,.42-.11,2.61,2.61,0,0,0,1.43-2,3.54,3.54,0,0,1,.08-.45.73.73,0,0,1,.69-.57.75.75,0,0,1,.8.8c0,.18,0,.35-.06.53a4,4,0,0,1-1.36,2.41,3.76,3.76,0,0,1-1.18.75A2.61,2.61,0,0,1,54.16,15a3.25,3.25,0,0,1-.77-1.84,7,7,0,0,1,.55-3.29c.2-.48.45-.93.68-1.4s.59-1.13.86-1.71a5.7,5.7,0,0,0,.57-2.6,3.44,3.44,0,0,0-.35-1.5A2.3,2.3,0,0,0,55.2,2a1.38,1.38,0,0,0-.39-.23,3.78,3.78,0,0,0-.74-.17,4.27,4.27,0,0,0-1.81.16,2.06,2.06,0,0,0-.95.64,1,1,0,0,0-.2.29A5.41,5.41,0,0,0,50.69,4a3.57,3.57,0,0,0,0,1.22A19,19,0,0,0,51.4,8c.11.35.24.7.34,1.06a3.8,3.8,0,0,1-.16,2.51A2.86,2.86,0,0,1,50.5,13c-.19.14-.37.28-.57.41a3.23,3.23,0,0,1-1.21.42,3.83,3.83,0,1,1-1.49-7.51,4.14,4.14,0,0,1,1.36,0,4.44,4.44,0,0,1,.62.19ZM48,7.75a2.3,2.3,0,1,0,2.26,2.33A2.29,2.29,0,0,0,48,7.75Z"/><path class="cls-1" d="M70.49,13.67a.11.11,0,0,1,0-.21A6.61,6.61,0,0,0,73,12c.71-.73.93-2.26,1.16-3.07a.11.11,0,0,1,.22,0c.14.81.19,2.28,1,3.09A5.78,5.78,0,0,0,78,13.48a.11.11,0,0,1,0,.21A5.59,5.59,0,0,0,75.56,15c-.77.79-1,2.38-1.15,3.15a.11.11,0,0,1-.22,0c-.23-.8-.46-2.5-1.35-3.33A5.77,5.77,0,0,0,70.49,13.67Z"/><path class="cls-1" d="M20.47,16.13a.11.11,0,0,1,0-.2A6.71,6.71,0,0,0,23,14.48c.7-.73.92-2.26,1.16-3.07a.11.11,0,0,1,.21,0c.14.81.19,2.28,1,3.09A5.78,5.78,0,0,0,28,16a.11.11,0,0,1,0,.21,5.64,5.64,0,0,0-2.45,1.27c-.76.79-1,2.38-1.15,3.15a.11.11,0,0,1-.22,0c-.23-.8-.46-2.5-1.35-3.34A6,6,0,0,0,20.47,16.13Z"/><path class="cls-1" d="M2.28,45.25a1.14,1.14,0,1,1-1.14-1.14A1.14,1.14,0,0,1,2.28,45.25Z"/><path class="cls-1" d="M29.41,101.28a1.14,1.14,0,1,1-1.14-1.14A1.14,1.14,0,0,1,29.41,101.28Z"/><path class="cls-1" d="M34.67,3.13A1.14,1.14,0,1,1,33.53,2,1.14,1.14,0,0,1,34.67,3.13Z"/><path class="cls-1" d="M92.17,21.69A1.14,1.14,0,1,1,91,20.55,1.15,1.15,0,0,1,92.17,21.69Z"/><path class="cls-1" d="M102.36,69.76a1.15,1.15,0,1,1-1.14-1.15A1.14,1.14,0,0,1,102.36,69.76Z"/><path class="cls-1" d="M82.85,98.37a1.14,1.14,0,1,1-1.14-1.14A1.14,1.14,0,0,1,82.85,98.37Z"/><path class="cls-1" d="M11.36,31.26a.83.83,0,1,1-1.66,0,.83.83,0,1,1,1.66,0Z"/><circle class="cls-1" cx="1.36" cy="65.94" r="0.83"/><path class="cls-1" d="M100,42.48a.83.83,0,1,1-1.66,0,.83.83,0,0,1,1.66,0Z"/><path class="cls-1" d="M65.27,107.46a.84.84,0,0,1-.84.83.83.83,0,1,1,0-1.66A.84.84,0,0,1,65.27,107.46Z"/><path class="cls-1" d="M4.64,78.94a.58.58,0,1,1-.58-.58A.58.58,0,0,1,4.64,78.94Z"/><path class="cls-1" d="M21.19,94a.58.58,0,1,1-.58-.57A.58.58,0,0,1,21.19,94Z"/><path class="cls-1" d="M37.91,16.57a.58.58,0,1,1-.57-.58A.58.58,0,0,1,37.91,16.57Z"/><path class="cls-1" d="M65.85,3.48a.58.58,0,0,1-1.16,0,.58.58,0,0,1,1.16,0Z"/><path class="cls-1" d="M100.57,31.86a.57.57,0,0,1-.57.58.58.58,0,0,1,0-1.16A.57.57,0,0,1,100.57,31.86Z"/><path class="cls-1" d="M105.33,56.64a.58.58,0,1,1-.58-.58A.58.58,0,0,1,105.33,56.64Z"/><path class="cls-1" d="M92,91.35a.58.58,0,1,1-.58-.58A.58.58,0,0,1,92,91.35Z"/><circle class="cls-1" cx="43.27" cy="109.9" r="0.58"/></g></g></svg>