<svg xmlns="http://www.w3.org/2000/svg" viewBox="0 0 105.04 110.18"><defs><style>.cls-1{fill:#c4ab5b;}.cls-2{fill:#fff;}</style></defs><g id="Layer_2" data-name="Layer 2"><g id="Text"><path class="cls-1" d="M56.71,11.51H57l2.82,0a2.77,2.77,0,0,1,.3,0A.9.9,0,0,1,60,13.35h-.24l-5.27,0a.89.89,0,0,1-.92-.67.85.85,0,0,1,0-.42,1.31,1.31,0,0,1,.58-.87,4.07,4.07,0,0,0,.88-.73,4.61,4.61,0,0,0,1.1-4.79A4.53,4.53,0,0,0,52.45,2.6a4.79,4.79,0,0,0-3.31,8.83.92.92,0,0,1,.22,1.49.89.89,0,0,1-.49.23l-.55,0-5.23.09a2.3,2.3,0,0,1-.37,0,.9.9,0,0,1,.05-1.78,1.83,1.83,0,0,1,.33,0l3-.06h.24a6.62,6.62,0,0,1-1.17-5.72A6.43,6.43,0,0,1,47.67,2a6.62,6.62,0,0,1,9,9.54Z"/><path class="cls-1" d="M51.34,17.65H42.92a.88.88,0,0,1-.86-.86.9.9,0,0,1,.8-.94h.26l16.53,0a1.83,1.83,0,0,1,.33,0,.9.9,0,0,1,0,1.78,2.31,2.31,0,0,1-.37,0H51.34Z"/><circle class="cls-2" cx="51.35" cy="25.94" r="3.73"/><circle class="cls-2" cx="83.65" cy="25.94" r="2.46"/><rect class="cls-2" x="53.8" y="25.2" width="29.17" height="1.47"/><path class="cls-2" d="M83.65,33.48a.4.4,0,0,1-.39-.4V27a.4.4,0,0,1,.79,0v6A.4.4,0,0,1,83.65,33.48Z"/><circle class="cls-2" cx="83.65" cy="33.3" r="1.68"/><path class="cls-2" d="M51.35,75.52a.38.38,0,0,1-.31-.14.39.39,0,0,1,.05-.55l2.51-2.08,1.69-38.88-4.24-5a.38.38,0,0,1,0-.55.39.39,0,0,1,.56,0L56,33.47a.41.41,0,0,1,.09.28L54.38,73a.42.42,0,0,1-.14.29L51.6,75.43A.4.4,0,0,1,51.35,75.52Z"/><path class="cls-2" d="M54.08,77.16a2.73,2.73,0,1,1-2.73-2.73A2.73,2.73,0,0,1,54.08,77.16Z"/><path class="cls-2" d="M53.78,36a2.44,2.44,0,1,1-2.43-2.43A2.43,2.43,0,0,1,53.78,36Z"/><path class="cls-2" d="M53.29,42.13a1.95,1.95,0,1,1-1.94-2A1.94,1.94,0,0,1,53.29,42.13Z"/><path class="cls-2" d="M52.56,47.77a1.22,1.22,0,1,1-1.21-1.21A1.21,1.21,0,0,1,52.56,47.77Z"/><path class="cls-2" d="M52.22,53.09a.87.87,0,1,1-.87-.87A.87.87,0,0,1,52.22,53.09Z"/><path class="cls-2" d="M60.45,96.6a.39.39,0,0,1-.36-.24C57.48,90.05,53.48,80.47,53.18,80a6.69,6.69,0,0,0-2-1.5.38.38,0,0,1-.21-.34v-1a.4.4,0,1,1,.79,0v.75a6.65,6.65,0,0,1,2.12,1.69c.43.73,6.29,14.88,7,16.5a.39.39,0,0,1-.22.51A.4.4,0,0,1,60.45,96.6Z"/><path class="cls-2" d="M83.56,55.48a21.08,21.08,0,0,1-2.92-.2,21.53,21.53,0,0,1-6.41-2A.39.39,0,0,1,74,52.8L83.3,33.13a.39.39,0,0,1,.71,0L93.26,52.8a.39.39,0,0,1,0,.3.43.43,0,0,1-.21.23A22.72,22.72,0,0,1,83.56,55.48Zm-8.64-2.7a20.78,20.78,0,0,0,5.83,1.72,21.41,21.41,0,0,0,11.63-1.72L83.65,34.22Z"/><path class="cls-2" d="M83.66,60.71A9.93,9.93,0,0,1,74,53.06a.39.39,0,1,1,.76-.18,9.2,9.2,0,0,0,8.88,7h.06a9.07,9.07,0,0,0,8.8-7,.41.41,0,0,1,.48-.3.4.4,0,0,1,.29.48,9.94,9.94,0,0,1-3.47,5.48,9.83,9.83,0,0,1-6.09,2.17Z"/><path class="cls-2" d="M35.71,99.77a.39.39,0,0,1-.18,0,.4.4,0,0,1-.17-.53c1.09-2.11,2.42-3.34,4-3.68a4.85,4.85,0,0,1,2.58.23l.07,0c2.66.84,5.05.89,8.68,1a34.1,34.1,0,0,0,10-.94l.07,0a5.11,5.11,0,0,1,2.73-.14,6.23,6.23,0,0,1,3.77,3.45.4.4,0,0,1-.7.37,5.45,5.45,0,0,0-3.27-3.06,4.37,4.37,0,0,0-2.31.14l-.08,0a34.82,34.82,0,0,1-10.26,1c-3.7-.06-6.14-.11-8.91-1l-.07,0a4,4,0,0,0-2.17-.2q-2,.42-3.44,3.26A.39.39,0,0,1,35.71,99.77Z"/><path class="cls-2" d="M51.34,105.56h-.85a112.82,112.82,0,0,1-20.89-2.12.39.39,0,0,1-.26-.17.37.37,0,0,1-.05-.31c.4-1.67,1.95-4.69,5-4.16l1,.18a93.53,93.53,0,0,0,16.91,1.65,74.06,74.06,0,0,0,14.84-1.79,16.43,16.43,0,0,1,2.1-.38c.39,0,1,.26,2.63,2.25.83,1.05,1.53,2.08,1.56,2.12a.41.41,0,0,1-.25.61A112.79,112.79,0,0,1,51.34,105.56Zm-21.17-2.81a111.91,111.91,0,0,0,20.33,2,112,112,0,0,0,21.85-2c-1.36-2-2.77-3.51-3.19-3.53a19.29,19.29,0,0,0-1.94.36,74.43,74.43,0,0,1-15,1.81,92.75,92.75,0,0,1-17-1.67l-1-.18C31.62,99.14,30.51,101.73,30.17,102.75Z"/><circle class="cls-2" cx="51.45" cy="25.94" r="3.73"/><circle class="cls-2" cx="19.15" cy="25.94" r="2.46"/><rect class="cls-2" x="19.84" y="25.2" width="29.17" height="1.47"/><path class="cls-2" d="M51.45,75.52a.43.43,0,0,1-.25-.09l-2.64-2.19a.42.42,0,0,1-.14-.29l-1.7-39.2a.41.41,0,0,1,.09-.28l4.34-5.11a.4.4,0,0,1,.61.51l-4.25,5L49.2,72.75l2.51,2.08a.39.39,0,0,1,0,.55A.38.38,0,0,1,51.45,75.52Z"/><path class="cls-2" d="M48.73,77.16a2.73,2.73,0,1,0,2.72-2.73A2.72,2.72,0,0,0,48.73,77.16Z"/><path class="cls-2" d="M49,36a2.44,2.44,0,1,0,2.43-2.43A2.43,2.43,0,0,0,49,36Z"/><path class="cls-2" d="M49.51,42.13a1.95,1.95,0,1,0,1.94-2A1.94,1.94,0,0,0,49.51,42.13Z"/><path class="cls-2" d="M50.24,47.77a1.22,1.22,0,1,0,1.21-1.21A1.21,1.21,0,0,0,50.24,47.77Z"/><circle class="cls-2" cx="51.45" cy="53.09" r="0.87"/><path class="cls-2" d="M42.35,96.6a.4.4,0,0,1-.15,0,.38.38,0,0,1-.21-.51c.66-1.62,6.52-15.77,6.95-16.5a6.65,6.65,0,0,1,2.12-1.69v-.75a.4.4,0,1,1,.79,0v1a.38.38,0,0,1-.21.34,6.69,6.69,0,0,0-2,1.5c-.3.52-4.29,10.1-6.91,16.41A.39.39,0,0,1,42.35,96.6Z"/><path class="cls-2" d="M19.15,33.48a.4.4,0,0,1-.4-.4V27a.4.4,0,0,1,.79,0v6A.4.4,0,0,1,19.15,33.48Z"/><circle class="cls-2" cx="19.15" cy="33.3" r="1.68"/><path class="cls-2" d="M19.24,55.48a22.72,22.72,0,0,1-9.51-2.15.43.43,0,0,1-.21-.23.39.39,0,0,1,0-.3l9.25-19.67a.4.4,0,0,1,.36-.23.38.38,0,0,1,.35.23L28.76,52.8a.39.39,0,0,1-.19.52,21.44,21.44,0,0,1-6.41,2A21.08,21.08,0,0,1,19.24,55.48Zm-8.82-2.7A21.52,21.52,0,0,0,22.06,54.5a20.81,20.81,0,0,0,5.82-1.72L19.15,34.22Z"/><path class="cls-2" d="M19.15,60.71h-.07a9.93,9.93,0,0,1-9.57-7.65.4.4,0,1,1,.77-.18,9.08,9.08,0,0,0,8.8,7h.07a9.19,9.19,0,0,0,8.87-7,.4.4,0,0,1,.47-.3.41.41,0,0,1,.3.48,10,10,0,0,1-3.53,5.52A9.89,9.89,0,0,1,19.15,60.71Z"/><path class="cls-2" d="M20.93,83.53a.11.11,0,0,1,0-.21,6.43,6.43,0,0,0,2.51-1.44c.71-.73.92-2.26,1.16-3.07a.11.11,0,0,1,.22,0c.14.82.19,2.29,1,3.1a5.78,5.78,0,0,0,2.66,1.43.11.11,0,0,1,0,.21A5.59,5.59,0,0,0,26,84.83c-.77.79-1,2.38-1.16,3.14a.11.11,0,0,1-.21,0c-.23-.81-.47-2.5-1.36-3.34A6.08,6.08,0,0,0,20.93,83.53Z"/><path class="cls-2" d="M76.88,77.18a.11.11,0,0,1,0-.21,6.46,6.46,0,0,0,2.52-1.44c.7-.73.92-2.26,1.16-3.07a.11.11,0,0,1,.22,0c.13.81.19,2.29,1,3.1A5.75,5.75,0,0,0,84.38,77a.11.11,0,0,1,0,.22A5.62,5.62,0,0,0,82,78.48c-.77.79-1,2.38-1.16,3.14a.11.11,0,0,1-.21,0c-.23-.81-.47-2.5-1.36-3.34A6.08,6.08,0,0,0,76.88,77.18Z"/><path class="cls-2" d="M25.78,11.26a.11.11,0,0,1,0-.21,6.56,6.56,0,0,0,2.51-1.44c.71-.74.92-2.27,1.16-3.07a.11.11,0,0,1,.22,0c.14.81.19,2.29,1,3.1a5.7,5.7,0,0,0,2.66,1.42.12.12,0,0,1,0,.22,5.55,5.55,0,0,0-2.45,1.26c-.77.8-1,2.38-1.15,3.15a.11.11,0,0,1-.22,0c-.23-.81-.46-2.51-1.35-3.34A5.91,5.91,0,0,0,25.78,11.26Z"/><path class="cls-2" d="M75.83,15.16a.11.11,0,0,1,0-.21,6.56,6.56,0,0,0,2.51-1.44c.71-.74.92-2.27,1.16-3.07a.11.11,0,0,1,.22,0c.14.81.19,2.29,1,3.1A5.7,5.7,0,0,0,83.34,15a.12.12,0,0,1,0,.22,5.55,5.55,0,0,0-2.45,1.26c-.77.8-1,2.38-1.15,3.15a.11.11,0,0,1-.22,0c-.23-.81-.47-2.51-1.35-3.34A5.91,5.91,0,0,0,75.83,15.16Z"/><path class="cls-2" d="M104.49,67.64a1.14,1.14,0,1,1-1.14-1.14A1.14,1.14,0,0,1,104.49,67.64Z"/><circle class="cls-2" cx="64.85" cy="43.03" r="1.14"/><circle class="cls-2" cx="67.04" cy="76.54" r="1.14"/><path class="cls-2" d="M36.64,66.55a1.14,1.14,0,1,1-1.14-1.14A1.14,1.14,0,0,1,36.64,66.55Z"/><path class="cls-2" d="M9,70a1.14,1.14,0,1,1-1.14-1.14A1.15,1.15,0,0,1,9,70Z"/><path class="cls-2" d="M15.25,17.55a1.14,1.14,0,1,1-1.14-1.14A1.14,1.14,0,0,1,15.25,17.55Z"/><path class="cls-2" d="M101,34.24a1.14,1.14,0,1,1-1.14-1.14A1.14,1.14,0,0,1,101,34.24Z"/><path class="cls-2" d="M83.79,95a1.15,1.15,0,1,1-1.15-1.14A1.15,1.15,0,0,1,83.79,95Z"/><path class="cls-2" d="M5.83,39.09A.83.83,0,1,1,5,38.26.83.83,0,0,1,5.83,39.09Z"/><path class="cls-2" d="M37.73,42.52a.84.84,0,0,1-.84.83.83.83,0,0,1,0-1.66A.84.84,0,0,1,37.73,42.52Z"/><path class="cls-2" d="M10,83.44a.85.85,0,0,1-.84.84.84.84,0,0,1-.83-.84.83.83,0,0,1,.83-.83A.84.84,0,0,1,10,83.44Z"/><path class="cls-2" d="M98.88,81.61a.84.84,0,1,1-.84-.83A.83.83,0,0,1,98.88,81.61Z"/><path class="cls-2" d="M94,19.48a.85.85,0,0,1-.84.84.84.84,0,0,1-.83-.84.83.83,0,0,1,.83-.83A.84.84,0,0,1,94,19.48Z"/><circle class="cls-2" cx="0.58" cy="53.58" r="0.58"/><path class="cls-2" d="M41.46,55.5a.58.58,0,1,1-.58-.58A.58.58,0,0,1,41.46,55.5Z"/><path class="cls-2" d="M70.25,63.25a.58.58,0,1,1-1.15,0,.58.58,0,0,1,1.15,0Z"/><path class="cls-2" d="M89.7,67.15a.58.58,0,1,1-.57-.57A.58.58,0,0,1,89.7,67.15Z"/><path class="cls-2" d="M105,51.62a.58.58,0,1,1-.58-.58A.58.58,0,0,1,105,51.62Z"/><path class="cls-2" d="M19.94,95.25a.57.57,0,0,1-.57.58.58.58,0,0,1-.58-.58.57.57,0,0,1,.58-.57A.56.56,0,0,1,19.94,95.25Z"/><path class="cls-2" d="M51.28,109.6a.57.57,0,0,1-.57.58.58.58,0,0,1,0-1.16A.57.57,0,0,1,51.28,109.6Z"/><path class="cls-2" d="M68.28,3.11a.58.58,0,1,1-.58-.57A.58.58,0,0,1,68.28,3.11Z"/><path class="cls-2" d="M38.14.58A.58.58,0,0,1,37,.58a.58.58,0,1,1,1.16,0Z"/></g></g></svg>