<svg xmlns="http://www.w3.org/2000/svg" viewBox="0 0 110.44 107.94"><defs><style>.cls-1{fill:#fff;}.cls-2{fill:#c4ab5b;}</style></defs><g id="Layer_2" data-name="Layer 2"><g id="Text"><path class="cls-1" d="M56.3,96.65A36.59,36.59,0,0,1,49.23,96a38.35,38.35,0,0,1-17-8.2.4.4,0,0,1-.07-.54.39.39,0,0,1,.53-.1A6.3,6.3,0,0,0,37,88.24a4.69,4.69,0,0,0,2.31-1.07,4,4,0,0,1,2.43-1A5.11,5.11,0,0,1,45,87.53c.85.65,1.58,1.21,2.57,1s1.76-1,1.74-1.55-1.22-1.57-3-1.73a.39.39,0,0,1-.36-.34.4.4,0,0,1,.26-.43,6,6,0,0,1,4.4-.15,4.9,4.9,0,0,1,1.76,1.32A3.47,3.47,0,0,0,54,86.81a2.6,2.6,0,0,0,1.68,0,4.16,4.16,0,0,1,2.15,0,6.16,6.16,0,0,1,2.67,1.49c.6.51.93.77,1.33.65.61-.17,1-1,1-1.53a3,3,0,0,0-1.24-2.5c-1.8-1.6-4.49-.93-5-.78a.39.39,0,0,1-.27-.74c2.66-1.19,4.84-1.37,6.48-.53A7,7,0,0,1,65.65,86a13.45,13.45,0,0,0,3.07,4,12.38,12.38,0,0,0,3.76,2.17,37.55,37.55,0,0,0,6.62-8.46,38.48,38.48,0,0,0,5-21A37.85,37.85,0,0,0,81.73,51.3a40.05,40.05,0,0,0-6.28-10.81c-2.49-3.3-4.45-5.9-4.24-10.2.16-3.38,1.31-6.06,3.33-7.75a10,10,0,0,1,7.11-2c4.44.39,9.23,4.7,12.81,11.52a44.05,44.05,0,0,1,5,22.87,42.7,42.7,0,0,1-6,18.31A44.81,44.81,0,0,1,78.33,89.9a43.75,43.75,0,0,1-10.15,4.83A38.48,38.48,0,0,1,56.3,96.65ZM35.1,89a37.06,37.06,0,0,0,14.28,6.22,37.53,37.53,0,0,0,22.15-2.56,13.44,13.44,0,0,1-3.33-2.05A14.46,14.46,0,0,1,65,86.4a6.28,6.28,0,0,0-2.47-2.87,4.6,4.6,0,0,0-2.74-.38,4.9,4.9,0,0,1,2.42,1.14,3.6,3.6,0,0,1,1.5,3.2,2.61,2.61,0,0,1-1.6,2.18c-.82.24-1.42-.27-2-.8a5.32,5.32,0,0,0-2.34-1.33,3.38,3.38,0,0,0-1.79,0,3.44,3.44,0,0,1-2.11,0,4.28,4.28,0,0,1-2-1.37,3.94,3.94,0,0,0-1.49-1.13,4.23,4.23,0,0,0-2.27-.23c1.22.45,2,1.25,2.06,2.13,0,1.09-1.2,2.09-2.37,2.34-1.34.29-2.29-.44-3.21-1.14a4.36,4.36,0,0,0-2.83-1.23,3.31,3.31,0,0,0-2,.87A5.4,5.4,0,0,1,37.06,89,5.89,5.89,0,0,1,35.1,89ZM80.75,21.25a8.94,8.94,0,0,0-5.7,1.89c-1.85,1.55-2.91,4-3.06,7.19-.19,4,1.7,6.51,4.09,9.68a42,42,0,0,1,6.39,11,38.76,38.76,0,0,1,2.44,11.61,39.36,39.36,0,0,1-5.12,21.45,38.93,38.93,0,0,1-5.27,7.12c1.14-.6,2.28-1.26,3.39-2a44,44,0,0,0,14.8-16.42,41.82,41.82,0,0,0,5.92-18,43.16,43.16,0,0,0-4.87-22.44c-3.46-6.58-8-10.73-12.18-11.11C81.39,21.27,81.1,21.25,80.75,21.25Z"/><path class="cls-1" d="M56.3,96.88a37.12,37.12,0,0,1-7.12-.7A38.59,38.59,0,0,1,32.1,87.93a.62.62,0,0,1,.73-1A6.1,6.1,0,0,0,36.92,88a4.56,4.56,0,0,0,2.2-1,4.29,4.29,0,0,1,2.57-1.07,5.23,5.23,0,0,1,3.47,1.43c.84.64,1.5,1.15,2.39,1s1.58-.89,1.57-1.33S48,85.63,46.33,85.47a.59.59,0,0,1-.56-.54.61.61,0,0,1,.4-.66,6.24,6.24,0,0,1,4.56-.15,5,5,0,0,1,1.84,1.38,3.25,3.25,0,0,0,1.53,1.09,2.45,2.45,0,0,0,1.56,0,4.35,4.35,0,0,1,2.26,0,6.25,6.25,0,0,1,2.75,1.54c.58.49.85.69,1.13.61.48-.14.8-.88.87-1.36a2.82,2.82,0,0,0-1.17-2.29c-1.71-1.52-4.3-.88-4.8-.73a.63.63,0,0,1-.43-1.17c2.73-1.22,5-1.4,6.68-.52a7.13,7.13,0,0,1,2.89,3.27,13.41,13.41,0,0,0,3,3.9,12.35,12.35,0,0,0,3.56,2.08,37.71,37.71,0,0,0,6.49-8.31,37.75,37.75,0,0,0,2.61-32.19,39.76,39.76,0,0,0-6.25-10.75c-2.51-3.34-4.5-6-4.29-10.35.16-3.44,1.34-6.18,3.41-7.92a10.37,10.37,0,0,1,7.28-2.09c4.51.41,9.37,4.76,13,11.65a44.17,44.17,0,0,1,5,23,42.72,42.72,0,0,1-6,18.41A45.09,45.09,0,0,1,78.45,90.09a43.81,43.81,0,0,1-10.2,4.85A38.55,38.55,0,0,1,56.3,96.88Zm-23.8-9.6a.21.21,0,0,0-.14.07.17.17,0,0,0,0,.23,38,38,0,0,0,16.88,8.16,36.19,36.19,0,0,0,7,.69,38.3,38.3,0,0,0,11.81-1.92,43,43,0,0,0,10.1-4.8,44.55,44.55,0,0,0,15-16.62,42.24,42.24,0,0,0,6-18.22,43.68,43.68,0,0,0-4.93-22.74c-3.55-6.75-8.27-11-12.63-11.41a9.85,9.85,0,0,0-6.95,2c-2,1.65-3.09,4.28-3.25,7.59-.2,4.22,1.74,6.79,4.2,10.05a40.88,40.88,0,0,1,6.31,10.87,38.26,38.26,0,0,1,2.41,11.44A38.22,38.22,0,0,1,72.63,92.31l-.1.09-.13-.05a12.31,12.31,0,0,1-3.83-2.21,13.84,13.84,0,0,1-3.12-4A6.75,6.75,0,0,0,62.75,83c-1.58-.81-3.69-.63-6.29.53a.18.18,0,0,0-.09.22.17.17,0,0,0,.21.1c.54-.15,3.33-.85,5.22.83a3.25,3.25,0,0,1,1.32,2.7c-.09.58-.48,1.52-1.2,1.72-.54.15-1-.2-1.54-.7A6,6,0,0,0,57.81,87a3.87,3.87,0,0,0-2,.05A2.87,2.87,0,0,1,54,87a3.8,3.8,0,0,1-1.72-1.21,4.46,4.46,0,0,0-1.68-1.27,5.81,5.81,0,0,0-4.24.16.17.17,0,0,0-.11.18.16.16,0,0,0,.16.14c1.74.16,3.17,1,3.2,2,0,.71-.9,1.56-1.93,1.78s-1.89-.38-2.75-1a4.86,4.86,0,0,0-3.19-1.34,3.8,3.8,0,0,0-2.31,1A4.84,4.84,0,0,1,37,88.46a6.49,6.49,0,0,1-4.39-1.15A.16.16,0,0,0,32.5,87.28Zm23.72,8.8a35.2,35.2,0,0,1-6.88-.68A37.29,37.29,0,0,1,35,89.14l-.86-.61,1,.21A6,6,0,0,0,37,88.8a5.18,5.18,0,0,0,2.56-1.18,3.55,3.55,0,0,1,2.12-.91,4.52,4.52,0,0,1,3,1.27c.92.7,1.79,1.37,3,1.1,1.05-.23,2.21-1.15,2.19-2.12,0-.75-.76-1.49-1.92-1.92l-.83-.31L48,84.6a4.57,4.57,0,0,1,2.39.25A4.2,4.2,0,0,1,52,86a4,4,0,0,0,1.86,1.3,3.21,3.21,0,0,0,2,0,3.64,3.64,0,0,1,1.89-.05,5.59,5.59,0,0,1,2.43,1.37c.61.52,1.14,1,1.85.77a2.43,2.43,0,0,0,1.44-2,3.38,3.38,0,0,0-1.43-3,4.57,4.57,0,0,0-2.31-1.09l-1.44-.26,1.45-.18a4.78,4.78,0,0,1,2.87.4,6.53,6.53,0,0,1,2.57,3,13.9,13.9,0,0,0,3.19,4.11,12.78,12.78,0,0,0,3.27,2l.49.21-.49.2A39,39,0,0,1,56.22,96.08ZM36,89.29a36.17,36.17,0,0,0,35,3.32,12.92,12.92,0,0,1-2.91-1.87,14.32,14.32,0,0,1-3.29-4.23,6.21,6.21,0,0,0-2.38-2.78,3.7,3.7,0,0,0-1.22-.37,4.69,4.69,0,0,1,1.15.76,3.81,3.81,0,0,1,1.58,3.4,2.88,2.88,0,0,1-1.76,2.37c-1,.27-1.62-.3-2.27-.85a5.09,5.09,0,0,0-2.24-1.28,3.09,3.09,0,0,0-1.68,0,3.71,3.71,0,0,1-2.24,0,4.51,4.51,0,0,1-2.05-1.43,3.76,3.76,0,0,0-1.4-1.07A3.58,3.58,0,0,0,49,85a2.46,2.46,0,0,1,1.39,2c0,1.24-1.3,2.3-2.55,2.57a4,4,0,0,1-3.4-1.18,4.07,4.07,0,0,0-2.68-1.18,3.1,3.1,0,0,0-1.87.82,5.46,5.46,0,0,1-2.77,1.26A5.2,5.2,0,0,1,36,89.29ZM73.45,92l.9-1A38,38,0,0,0,79.59,84a39.19,39.19,0,0,0,5.1-21.33A38.68,38.68,0,0,0,82.26,51.1a41.68,41.68,0,0,0-6.36-11c-2.42-3.21-4.33-5.74-4.13-9.84C71.92,27.1,73,24.56,74.9,23A9.25,9.25,0,0,1,80.75,21a8.28,8.28,0,0,1,.85,0c4.24.38,8.87,4.58,12.36,11.23a43.37,43.37,0,0,1,4.89,22.56,42,42,0,0,1-5.94,18.07A44.4,44.4,0,0,1,78,89.42c-1.11.71-2.26,1.38-3.41,2Zm7.3-70.54a8.77,8.77,0,0,0-5.56,1.84c-1.8,1.51-2.82,3.94-3,7-.19,3.93,1.68,6.4,4,9.54a41.86,41.86,0,0,1,6.42,11.06A39,39,0,0,1,80,84.19a38.8,38.8,0,0,1-4.41,6.18c.75-.42,1.49-.86,2.22-1.33A44,44,0,0,0,92.52,72.7,41.57,41.57,0,0,0,98.4,54.82,42.88,42.88,0,0,0,93.56,32.5c-3.42-6.52-7.91-10.63-12-11A7.55,7.55,0,0,0,80.75,21.47Z"/><path class="cls-1" d="M80.69,40.53a1.08,1.08,0,1,1-1.08-1.08A1.08,1.08,0,0,1,80.69,40.53Z"/><path class="cls-1" d="M92.14,31A1.09,1.09,0,1,1,91.05,30,1.09,1.09,0,0,1,92.14,31Z"/><circle class="cls-1" cx="86.7" cy="35.72" r="1.08"/><circle class="cls-1" cx="83.34" cy="38.45" r="0.65"/><circle class="cls-1" cx="89.19" cy="33.36" r="0.65"/><path class="cls-1" d="M78.35,43.85a9.44,9.44,0,0,1-1.5,5.72c-1,1.49-1.54,1.44-2.2,2.61a6.17,6.17,0,0,0-.7,3.43c.43,3.13,4.08,3.42,4.36,6.08.25,2.38-2.42,4.51-2.08,4.79.18.16,1-.46,1.47-.93.25-.25,2.09-2.1,1.94-4.21-.22-2.9-4-3.66-4-6.19a3.74,3.74,0,0,1,1.28-2.5,2.93,2.93,0,0,0,.61,1.44c.62.72,1.25.59,1.63,1.16.67,1-.5,2.65-.27,2.76s1.06-.86,1.27-2.14a2.53,2.53,0,0,0,0-1c-.27-1.26-1.52-1.46-1.64-2.6a3.65,3.65,0,0,1,.14-.94,14.41,14.41,0,0,1,.64-2s.11-.35.7-2.67h0Z"/><path class="cls-1" d="M96.24,36.51c.51.47,1.34,1.24,2.42,2.21a10.69,10.69,0,0,0,2.67,2c1.59.8,2.06.46,3.22,1.14a6.07,6.07,0,0,1,2.33,2.6c1.23,2.91-1.78,5-.66,7.45,1,2.18,4.37,2.65,4.22,3.07-.08.23-1.08.1-1.74-.06-.35-.08-2.87-.74-3.81-2.64-1.28-2.61,1.61-5.19.29-7.36a3.76,3.76,0,0,0-2.37-1.5A2.81,2.81,0,0,1,103,45c-.16.94-.77,1.15-.81,1.82-.07,1.21,1.77,2,1.64,2.25s-1.35-.2-2.18-1.2a2.44,2.44,0,0,1-.54-.88c-.4-1.23.57-2,.1-3.07a3.86,3.86,0,0,0-.6-.74,13.55,13.55,0,0,0-1.57-1.4s-.28-.25-2-2C96.81,38.7,96.52,37.6,96.24,36.51Z"/><path class="cls-1" d="M29.69,84c-.38,0-.69,0-.89,0-4.44-.4-9.23-4.71-12.82-11.53A44,44,0,0,1,11,49.6a42.53,42.53,0,0,1,6-18.31,44.85,44.85,0,0,1,15.07-16.7A43.54,43.54,0,0,1,42.26,9.76a37.22,37.22,0,0,1,19-1.23,38.14,38.14,0,0,1,17,8.2.38.38,0,0,1,.06.53.39.39,0,0,1-.53.11,6.3,6.3,0,0,0-4.24-1.13,4.71,4.71,0,0,0-2.3,1.08,4.09,4.09,0,0,1-2.44,1A5,5,0,0,1,65.42,17c-.85-.65-1.59-1.21-2.57-1s-1.76.95-1.75,1.55,1.23,1.57,3,1.73a.37.37,0,0,1,.35.34.39.39,0,0,1-.25.42,6.08,6.08,0,0,1-4.4.16A4.83,4.83,0,0,1,58,18.83a3.5,3.5,0,0,0-1.62-1.15,2.63,2.63,0,0,0-1.69,0,4.17,4.17,0,0,1-2.15,0,6.08,6.08,0,0,1-2.66-1.49c-.6-.5-.93-.76-1.33-.65-.62.18-1,1-1,1.54a3,3,0,0,0,1.24,2.49c1.8,1.6,4.5.94,5,.79a.39.39,0,0,1,.48.24.4.4,0,0,1-.21.5c-2.66,1.19-4.85,1.37-6.49.53a7,7,0,0,1-2.79-3.18,13.5,13.5,0,0,0-3.07-4A12.32,12.32,0,0,0,38,12.34a38.11,38.11,0,0,0-6.63,8.46,38.6,38.6,0,0,0-5,21,37.8,37.8,0,0,0,2.4,11.37A40.16,40.16,0,0,0,35,64c2.49,3.3,4.45,5.91,4.25,10.21-.16,3.37-1.31,6-3.33,7.75A9.77,9.77,0,0,1,29.69,84Zm6.24-70.73c-1.15.6-2.28,1.25-3.39,2A44.17,44.17,0,0,0,17.73,31.67a41.89,41.89,0,0,0-5.91,18,43.11,43.11,0,0,0,4.86,22.44c3.46,6.59,8,10.74,12.19,11.11a9.28,9.28,0,0,0,6.53-1.86c1.85-1.55,2.9-4,3.05-7.18.19-4-1.7-6.52-4.09-9.69a41.38,41.38,0,0,1-6.38-11,38.69,38.69,0,0,1,2.68-33A38.14,38.14,0,0,1,35.93,13.29Zm3-1.42a12.71,12.71,0,0,1,3.33,2.05,14,14,0,0,1,3.24,4.17A6.39,6.39,0,0,0,48,21a4.71,4.71,0,0,0,2.75.38,4.91,4.91,0,0,1-2.43-1.15,3.59,3.59,0,0,1-1.5-3.2,2.64,2.64,0,0,1,1.6-2.18c.83-.23,1.42.27,2.06.81a5.31,5.31,0,0,0,2.33,1.32,3.39,3.39,0,0,0,1.79,0,3.37,3.37,0,0,1,2.11,0,4.29,4.29,0,0,1,2,1.36,3.9,3.9,0,0,0,1.48,1.14,4.33,4.33,0,0,0,2.27.23c-1.22-.46-2-1.25-2.06-2.13,0-1.09,1.21-2.1,2.37-2.35a3.83,3.83,0,0,1,3.22,1.15,4.25,4.25,0,0,0,2.82,1.22,3.33,3.33,0,0,0,2-.87,5.45,5.45,0,0,1,2.66-1.22,5.69,5.69,0,0,1,2,.07A37.13,37.13,0,0,0,61.06,9.3,37.54,37.54,0,0,0,38.91,11.87Z"/><path class="cls-1" d="M29.69,84.25c-.4,0-.72,0-.91,0-4.52-.4-9.38-4.76-13-11.65a44.23,44.23,0,0,1-5-23,42.74,42.74,0,0,1,6.05-18.4A45,45,0,0,1,32,14.4a43.69,43.69,0,0,1,10.2-4.86A37.54,37.54,0,0,1,61.26,8.31a38.32,38.32,0,0,1,17.08,8.25.62.62,0,0,1,.11.84.64.64,0,0,1-.84.16,6,6,0,0,0-4.08-1.09,4.43,4.43,0,0,0-2.21,1,4.35,4.35,0,0,1-2.56,1.07,5.26,5.26,0,0,1-3.48-1.44c-.84-.64-1.5-1.14-2.38-.95s-1.58.88-1.57,1.32,1.08,1.36,2.79,1.51a.63.63,0,0,1,.56.54.61.61,0,0,1-.41.66,6.24,6.24,0,0,1-4.56.15A4.89,4.89,0,0,1,57.87,19a3.29,3.29,0,0,0-1.52-1.09,2.4,2.4,0,0,0-1.57,0,4.33,4.33,0,0,1-2.25,0,6.3,6.3,0,0,1-2.76-1.54c-.58-.49-.84-.68-1.12-.6-.49.14-.8.87-.87,1.35a2.83,2.83,0,0,0,1.16,2.3c1.72,1.52,4.3.87,4.81.73a.62.62,0,0,1,.42,1.16c-2.73,1.22-5,1.4-6.68.53a7.18,7.18,0,0,1-2.89-3.27,13.28,13.28,0,0,0-3-3.9A12,12,0,0,0,38,12.6a37.9,37.9,0,0,0-6.48,8.31,38.35,38.35,0,0,0-5,20.89,37.33,37.33,0,0,0,2.38,11.3,40.27,40.27,0,0,0,6.24,10.76c2.52,3.33,4.5,6,4.29,10.35-.16,3.44-1.34,6.17-3.41,7.91A10,10,0,0,1,29.69,84.25ZM54.14,8.06A38.08,38.08,0,0,0,42.33,10a43.7,43.7,0,0,0-10.1,4.81,44.66,44.66,0,0,0-15,16.62,42.38,42.38,0,0,0-6,18.21,43.83,43.83,0,0,0,4.93,22.74c3.55,6.76,8.28,11,12.64,11.41a8.58,8.58,0,0,0,.87,0,9.56,9.56,0,0,0,6.07-2c2-1.66,3.1-4.28,3.25-7.59.2-4.22-1.74-6.8-4.2-10.06a40.46,40.46,0,0,1-6.3-10.87A38,38,0,0,1,26.1,41.83a38.68,38.68,0,0,1,5-21.14,38,38,0,0,1,6.66-8.51l.1-.1.14.05a12.4,12.4,0,0,1,3.82,2.22,13.51,13.51,0,0,1,3.12,4,6.91,6.91,0,0,0,2.71,3.1c1.57.8,3.69.62,6.29-.54a.17.17,0,0,0,.09-.21.17.17,0,0,0-.21-.11c-.54.16-3.34.85-5.23-.83a3.21,3.21,0,0,1-1.31-2.69,2.13,2.13,0,0,1,1.19-1.73c.54-.15,1,.21,1.54.7a5.85,5.85,0,0,0,2.57,1.44,3.92,3.92,0,0,0,2,0,2.86,2.86,0,0,1,1.81,0,3.72,3.72,0,0,1,1.71,1.22A4.7,4.7,0,0,0,59.89,20a5.83,5.83,0,0,0,4.23-.16.17.17,0,0,0,.11-.18.17.17,0,0,0-.15-.15c-1.74-.16-3.18-1-3.2-1.95,0-.71.9-1.55,1.92-1.77s1.9.38,2.75,1a4.86,4.86,0,0,0,3.19,1.35,3.86,3.86,0,0,0,2.31-1A4.88,4.88,0,0,1,73.46,16a6.53,6.53,0,0,1,4.39,1.15.17.17,0,0,0,.2-.27A38,38,0,0,0,61.17,8.75,36.11,36.11,0,0,0,54.14,8.06ZM29.69,83.46c-.36,0-.65,0-.84,0C24.6,83.05,20,78.85,16.48,72.2a43.41,43.41,0,0,1-4.89-22.57,42,42,0,0,1,5.95-18.07,44.21,44.21,0,0,1,14.88-16.5c1.11-.71,2.25-1.37,3.4-2L37,12.47l-.91,1a38.55,38.55,0,0,0-7.9,39.94,41.25,41.25,0,0,0,6.35,10.95c2.42,3.21,4.33,5.74,4.14,9.84-.16,3.21-1.24,5.75-3.14,7.35A9.16,9.16,0,0,1,29.69,83.46Zm5.19-69.35c-.75.42-1.49.87-2.22,1.33A43.9,43.9,0,0,0,17.93,31.78,41.74,41.74,0,0,0,12,49.67,43,43,0,0,0,16.88,72c3.43,6.51,7.91,10.62,12,11a9.05,9.05,0,0,0,6.36-1.81c1.8-1.51,2.83-3.94,3-7,.18-3.93-1.68-6.41-4-9.54a41.68,41.68,0,0,1-6.41-11.07,38.86,38.86,0,0,1-2.46-11.67,39.65,39.65,0,0,1,5.15-21.58A38.68,38.68,0,0,1,34.88,14.11Zm15,7.5a4.51,4.51,0,0,1-2-.45,6.46,6.46,0,0,1-2.56-3,14,14,0,0,0-3.2-4.11,12.81,12.81,0,0,0-3.27-2l-.48-.2.48-.21a36.69,36.69,0,0,1,36.66,3.68l.85.61-1-.2a5.48,5.48,0,0,0-1.89-.06,5.22,5.22,0,0,0-2.57,1.17,3.48,3.48,0,0,1-2.12.92,4.61,4.61,0,0,1-3-1.27c-.92-.71-1.79-1.37-3-1.11-1.06.23-2.22,1.16-2.19,2.12,0,.76.75,1.49,1.91,1.93l.84.31-.88.12A4.55,4.55,0,0,1,60,19.64a4.35,4.35,0,0,1-1.57-1.19,4,4,0,0,0-1.86-1.31,3.13,3.13,0,0,0-2,0,3.64,3.64,0,0,1-1.89,0,5.55,5.55,0,0,1-2.43-1.37c-.61-.52-1.14-1-1.85-.76A2.42,2.42,0,0,0,47,17a3.42,3.42,0,0,0,1.43,3,4.71,4.71,0,0,0,2.32,1.08l1.44.26-1.45.19A6,6,0,0,1,49.9,21.61ZM39.48,11.87a13.56,13.56,0,0,1,2.91,1.88A14.34,14.34,0,0,1,45.68,18a6.11,6.11,0,0,0,2.38,2.78,3.64,3.64,0,0,0,1.21.37,4.88,4.88,0,0,1-1.15-.76A3.8,3.8,0,0,1,46.55,17a2.88,2.88,0,0,1,1.76-2.37c.94-.26,1.61.31,2.26.86a5.31,5.31,0,0,0,2.24,1.28,3.23,3.23,0,0,0,1.69-.05,3.59,3.59,0,0,1,2.23,0,4.53,4.53,0,0,1,2.05,1.43,3.73,3.73,0,0,0,1.41,1.08,3.57,3.57,0,0,0,1.29.26,2.44,2.44,0,0,1-1.39-1.95c0-1.24,1.3-2.3,2.54-2.57A4,4,0,0,1,66,16.15a4.16,4.16,0,0,0,2.68,1.18,3.09,3.09,0,0,0,1.87-.83,5.68,5.68,0,0,1,2.77-1.26,6,6,0,0,1,1.12-.05,36.15,36.15,0,0,0-35-3.32Z"/><path class="cls-1" d="M29.75,64A1.09,1.09,0,1,1,30.84,65,1.08,1.08,0,0,1,29.75,64Z"/><path class="cls-1" d="M18.31,73.45a1.08,1.08,0,1,1,1.08,1.08A1.08,1.08,0,0,1,18.31,73.45Z"/><path class="cls-1" d="M22.66,68.77a1.09,1.09,0,1,1,1.09,1.08A1.09,1.09,0,0,1,22.66,68.77Z"/><circle class="cls-1" cx="27.1" cy="66.03" r="0.65"/><circle class="cls-1" cx="21.26" cy="71.12" r="0.65"/><path class="cls-1" d="M32.1,60.64A9.09,9.09,0,0,1,32.3,58a9.42,9.42,0,0,1,1.3-3.08c1-1.49,1.54-1.44,2.19-2.61a6.06,6.06,0,0,0,.7-3.42c-.42-3.14-4.08-3.42-4.36-6.09-.24-2.38,2.43-4.5,2.09-4.79-.19-.15-1,.46-1.47.94-.26.24-2.1,2.09-1.94,4.2.22,2.91,4,3.66,4,6.2a3.78,3.78,0,0,1-1.29,2.5,2.75,2.75,0,0,0-.61-1.45c-.61-.72-1.24-.59-1.62-1.15-.67-1,.49-2.66.27-2.77s-1.06.86-1.27,2.14a2.7,2.7,0,0,0,0,1c.28,1.27,1.53,1.46,1.65,2.6a4.06,4.06,0,0,1-.14.94,15.38,15.38,0,0,1-.64,2s-.12.36-.7,2.67h0Z"/><path class="cls-1" d="M14.21,68c-.51-.48-1.35-1.24-2.42-2.22a11.63,11.63,0,0,0-2.67-2C7.53,63,7.06,63.31,5.9,62.64A6.28,6.28,0,0,1,3.56,60c-1.23-2.92,1.78-5,.67-7.46-1-2.17-4.37-2.65-4.23-3.07.08-.23,1.09-.1,1.75.06.34.09,2.86.74,3.8,2.64,1.29,2.62-1.61,5.19-.29,7.36a3.72,3.72,0,0,0,2.38,1.5,2.8,2.8,0,0,1-.21-1.55c.16-.93.78-1.14.81-1.82.08-1.2-1.77-2-1.63-2.25s1.35.21,2.18,1.2a2.64,2.64,0,0,1,.54.89c.4,1.22-.57,2-.1,3.07a3.75,3.75,0,0,0,.6.74,15.42,15.42,0,0,0,1.56,1.4s.28.24,2,1.94Z"/><path class="cls-2" d="M53,51.13c0-.1,0-.16,0-.23a10,10,0,0,0-3.13-5.48,2.5,2.5,0,0,1-.24-.22.81.81,0,0,1,0-1.1A.83.83,0,0,1,50.63,44l.16.13a11.64,11.64,0,0,1,3.69,6.12c.06.29.11.58.17.87a18.87,18.87,0,0,0,2.26,0c0-.26.06-.53.1-.79a11.66,11.66,0,0,1,1.09-3.74,6.26,6.26,0,0,1,1.28-1.78,3.87,3.87,0,0,1,.72-.56.8.8,0,0,1,1.18.5.77.77,0,0,1-.29.88,5,5,0,0,0-1.66,2.29,10.55,10.55,0,0,0-.71,2.93,2.3,2.3,0,0,0,0,.28h.24l2,0a1.77,1.77,0,0,1,.32,0,.82.82,0,0,1-.05,1.62,1.32,1.32,0,0,1-.28,0l-2.05,0h-.22c0,.06,0,.09,0,.12a11,11,0,0,0,1,4.29,5.62,5.62,0,0,0,.75,1.16,3,3,0,0,0,1,.78.83.83,0,1,1-.67,1.51,3.49,3.49,0,0,1-1-.6,5.73,5.73,0,0,1-1.29-1.57,10.14,10.14,0,0,1-1.12-2.9,14.59,14.59,0,0,1-.36-2.64.6.6,0,0,0,0-.12H54.76a1.93,1.93,0,0,1,0,.25,9,9,0,0,1-1.84,5.22,7.79,7.79,0,0,1-2.51,2.12,2,2,0,0,1-.31.13.82.82,0,0,1-.76-1.42,1,1,0,0,1,.21-.14,6.49,6.49,0,0,0,3.24-4A8.46,8.46,0,0,0,53.1,53v-.16h-.25l-3.25,0a1.66,1.66,0,0,1-.32,0,.82.82,0,0,1,.09-1.63h.24l3.1,0Z"/><path class="cls-1" d="M63.64,75.63a.11.11,0,0,1,0-.2A6.63,6.63,0,0,0,66.15,74c.7-.73.92-2.26,1.16-3.07a.11.11,0,0,1,.22,0c.13.81.19,2.28,1,3.09a5.78,5.78,0,0,0,2.66,1.43.11.11,0,0,1,0,.21,5.62,5.62,0,0,0-2.44,1.27c-.77.79-1,2.38-1.16,3.15a.11.11,0,0,1-.22,0c-.22-.8-.46-2.5-1.35-3.34A6.08,6.08,0,0,0,63.64,75.63Z"/><path class="cls-1" d="M39.43,33.86a.11.11,0,0,1,0-.21,6.7,6.7,0,0,0,2.51-1.44c.71-.74.93-2.27,1.16-3.07a.11.11,0,0,1,.22,0c.14.81.19,2.29,1,3.1a5.75,5.75,0,0,0,2.66,1.42.12.12,0,0,1,0,.22,5.45,5.45,0,0,0-2.45,1.26c-.77.8-1,2.38-1.15,3.15a.11.11,0,0,1-.22,0c-.23-.81-.46-2.51-1.35-3.34A5.77,5.77,0,0,0,39.43,33.86Z"/><path class="cls-1" d="M64.26,32.6a1.14,1.14,0,1,1-1.14-1.14A1.15,1.15,0,0,1,64.26,32.6Z"/><circle class="cls-1" cx="52.78" cy="71.66" r="1.14"/><path class="cls-1" d="M17.35,88.21a1.15,1.15,0,1,1-1.15-1.15A1.15,1.15,0,0,1,17.35,88.21Z"/><path class="cls-1" d="M50.85,106.8a1.14,1.14,0,1,1-1.14-1.14A1.14,1.14,0,0,1,50.85,106.8Z"/><path class="cls-1" d="M27.2,9.78a1.14,1.14,0,1,1-1.14-1.14A1.14,1.14,0,0,1,27.2,9.78Z"/><circle class="cls-1" cx="86.8" cy="11.8" r="1.14"/><path class="cls-1" d="M106.14,72.46A1.14,1.14,0,1,1,105,71.32,1.14,1.14,0,0,1,106.14,72.46Z"/><path class="cls-1" d="M70.28,1.91a.84.84,0,0,1-.83.84.85.85,0,0,1-.84-.84.84.84,0,0,1,.84-.83A.83.83,0,0,1,70.28,1.91Z"/><path class="cls-1" d="M10.94,31.81a.83.83,0,0,1-.83.83.84.84,0,0,1-.84-.83.85.85,0,0,1,.84-.84A.84.84,0,0,1,10.94,31.81Z"/><path class="cls-1" d="M32.1,98.17a.83.83,0,0,1-.83.83.84.84,0,0,1-.84-.83.85.85,0,0,1,.84-.84A.84.84,0,0,1,32.1,98.17Z"/><path class="cls-1" d="M87.13,95.73a.84.84,0,0,1-.84.83.83.83,0,1,1,0-1.66A.84.84,0,0,1,87.13,95.73Z"/><path class="cls-1" d="M39,23.54a.83.83,0,1,1-.83-.83A.83.83,0,0,1,39,23.54Z"/><path class="cls-1" d="M73,104a.58.58,0,0,1-.58.58.58.58,0,0,1,0-1.16A.58.58,0,0,1,73,104Z"/><path class="cls-1" d="M48.09.58a.58.58,0,0,1-1.16,0,.58.58,0,0,1,1.16,0Z"/><path class="cls-1" d="M101.7,27.39a.58.58,0,0,1-1.15,0,.58.58,0,1,1,1.15,0Z"/><path class="cls-1" d="M71.06,47.33a.58.58,0,1,1-.58-.58A.58.58,0,0,1,71.06,47.33Z"/><path class="cls-1" d="M41.64,59.24a.58.58,0,1,1-.58-.58A.58.58,0,0,1,41.64,59.24Z"/><path class="cls-1" d="M14,22.18a.58.58,0,0,1-.58.58.58.58,0,0,1,0-1.16A.58.58,0,0,1,14,22.18Z"/><path class="cls-1" d="M7.46,74.6A.58.58,0,1,1,6.88,74,.58.58,0,0,1,7.46,74.6Z"/></g></g></svg>