<svg xmlns="http://www.w3.org/2000/svg" viewBox="0 0 107.3 108.2"><defs><style>.cls-1{fill:#fff;}.cls-2{fill:#c4ab5b;}</style></defs><g id="Layer_2" data-name="Layer 2"><g id="Text"><path class="cls-1" d="M99.34,54.33s0,0,0,0,0,0,0-.08l0-.06a.09.09,0,0,0,0-.06s0,0,0-.06l0,0a30.22,30.22,0,0,0-4.67-2.39c-.58-.23-1.17-.43-1.76-.63a.52.52,0,0,0-.16-.06A31.07,31.07,0,0,0,89.15,50a.43.43,0,0,0-.22,0,30.16,30.16,0,0,0-3.68-.51.38.38,0,0,0-.37.19.43.43,0,0,0,0,.42l2.49,3.77-4.91,0a15.51,15.51,0,0,1-1.71-1c-.48-.33-.91-.67-1.3-1-.67.33-1.35.66-2,1l-1.82,1-2.69,0c.47-5.34,3-9.66,6.83-11a8,8,0,0,1,3.66-.34,27.21,27.21,0,0,0-2.08-13.11,32.41,32.41,0,0,0-9.9-12.11c-5.64-4.47-9.06-4.55-10.65-8.35a8.64,8.64,0,0,1-.56-2.18,2.78,2.78,0,0,1,1-1.55,3,3,0,0,1,3.44.19,3.28,3.28,0,0,0-2-1.83,3.24,3.24,0,0,0-2.39.27A16.48,16.48,0,0,1,61.35,0a7.7,7.7,0,0,0-2.84,4.25c0,.2-.07.39-.1.57L21.29,49a25.76,25.76,0,0,0-4.64.58.4.4,0,0,0-.31.39h0a.41.41,0,0,0,.34.38,7.21,7.21,0,0,1,5,2.74,6.54,6.54,0,0,1,.35.64,5.67,5.67,0,0,1-.36.63,7.21,7.21,0,0,1-5,2.65.4.4,0,0,0-.35.37v0a.39.39,0,0,0,.3.38,24.6,24.6,0,0,0,4.65.67l36.28,43.2a7.14,7.14,0,0,0,.12,2.22,7.63,7.63,0,0,0,2.76,4.3,16.61,16.61,0,0,1-1-3.79,3.25,3.25,0,0,0,2.39.3,3.32,3.32,0,0,0,2.07-1.78,3,3,0,0,1-3.45.12,2.69,2.69,0,0,1-1-1.56,8.57,8.57,0,0,1,.6-2.17c1.65-3.78,5.08-3.79,10.8-8.16,2.11-1.62,7.17-5.57,10.1-11.93A27,27,0,0,0,83.2,66.16a8.11,8.11,0,0,1-3.66-.41c-3.75-1.37-6.25-5.73-6.62-11.08l2.68,0c.6.34,1.19.67,1.81,1s1.35.72,2,1.06c.39-.32.83-.65,1.31-1a15.28,15.28,0,0,1,1.74-1l4.91,0-2.56,3.73a.34.34,0,0,0-.07.22.41.41,0,0,0,0,.19.41.41,0,0,0,.37.2,30.05,30.05,0,0,0,3.68-.44.41.41,0,0,0,.22,0,33.59,33.59,0,0,0,3.43-.83.44.44,0,0,0,.16-.06c.6-.19,1.19-.38,1.77-.6a30.72,30.72,0,0,0,4.72-2.3l0,0,.06-.06a.21.21,0,0,0,0-.06.09.09,0,0,0,0-.07.19.19,0,0,0,0-.07s0,0,0-.05h0v0a.17.17,0,0,0,0-.07h0a.17.17,0,0,0,0-.07v0Zm-9.56,3.41,2-2.87,2,0-1.5,2.23C91.4,57.37,90.59,57.57,89.78,57.74Zm2.47-6.1,1.46,2.26h-2L89.83,51C90.65,51.17,91.45,51.38,92.25,51.64Zm5.18,2.29-2.78,0-1.18-1.82.71.25A30.51,30.51,0,0,1,97.43,53.93ZM86,50.33a27.41,27.41,0,0,1,2.74.42l2.05,3.13-2.46,0ZM29,53.41a7.37,7.37,0,0,0-.66-1.28,7.22,7.22,0,0,0-1.24-1.47,8.9,8.9,0,0,1,3.2,2q.34.36.66.75Zm-4.07-3.35s0,0,.06.06a7.26,7.26,0,0,1,2.69,2.43,8.68,8.68,0,0,1,.46.85l-2.05,0a.39.39,0,0,0-.1-.08h-.06a8.1,8.1,0,0,0-1.59-2.08,8.33,8.33,0,0,0-2-1.41A17,17,0,0,1,24.92,50.06Zm1,4.23H26a.39.39,0,0,0,.1-.08l2.05,0a6.92,6.92,0,0,1-.47.84,7.17,7.17,0,0,1-2.73,2.38l-.07.07a16.82,16.82,0,0,1-2.63.2,8.18,8.18,0,0,0,2.07-1.36A8.29,8.29,0,0,0,25.91,54.29Zm2.4,1.21A8.54,8.54,0,0,0,29,54.23h2a9.62,9.62,0,0,1-.68.74A9.15,9.15,0,0,1,27,57,8,8,0,0,0,28.31,55.5Zm32-37.9c1.3-.14,8.5-.79,14,4.31.81.74,5.62,5.15,5.21,11.05A14.37,14.37,0,0,1,77,39.64c-2.38,3.88-4.46,4.33-6.45,7.82a16.6,16.6,0,0,0-2,6.26l-26.7-.19a1.48,1.48,0,0,0-2.86,0H37.51l-2.77-2-2.66,1.95h-.14a9.93,9.93,0,0,0-1.09-1.32c-2.34-2.34-5.6-3-8.53-3.1l36-42.88a8.73,8.73,0,0,0,.4,2.28,20.83,20.83,0,0,0,1.51,3.22A9,9,0,0,1,60.3,17.6ZM18.65,50c.48-.07,1-.13,1.54-.17,0,0,0,.05.09.05a7.62,7.62,0,0,1,3.51,1.86,7.22,7.22,0,0,1,1.27,1.59l-2.36,0a5.45,5.45,0,0,0-.39-.66A7,7,0,0,0,18.65,50Zm3.64,4.8a5.52,5.52,0,0,0,.4-.66l2.33,0a7.31,7.31,0,0,1-1.26,1.56,7.71,7.71,0,0,1-3.55,1.8l-.08,0c-.55,0-1.07-.12-1.54-.2A7,7,0,0,0,22.29,54.84Zm48.12,6.08c1.92,3.52,4,4,6.31,7.92a14.43,14.43,0,0,1,2.46,6.73c.31,5.91-4.58,10.23-5.4,11-5.65,5-12.83,4.22-14.12,4.06a9,9,0,0,1-.17,6,22.77,22.77,0,0,0-1.57,3.2c-.07.23-.16.55-.24.91L22.28,58.5c2.91,0,6.17-.67,8.54-3a9.89,9.89,0,0,0,1.11-1.3h.14l2.63,2,2.81-2,1.44,0a1.47,1.47,0,0,0,2.85,0l26.7.28A16.62,16.62,0,0,0,70.41,60.92Zm17.92-6.09,2.45,0L88.68,58c-.91.16-1.82.29-2.75.37Zm5.82,1.62-.72.25,1.21-1.8,2.78,0A30.3,30.3,0,0,1,94.15,56.45Z"/><path class="cls-2" d="M19.72,26.77a2.31,2.31,0,0,1-.14.19L15.73,31l-.24.23a.84.84,0,0,1-1.14,0,.86.86,0,0,1-.13-1.12,2.62,2.62,0,0,1,.22-.25L18.3,25.8l.22-.23a2.07,2.07,0,0,1-.2-.15l-1.94-1.83a.92.92,0,0,1-.34-.67.84.84,0,0,1,.44-.78.82.82,0,0,1,.89,0,1.64,1.64,0,0,1,.25.21l1.86,1.75.21.2,6.25-6.56-.63-.08-4.24-.54-.81-.1a.86.86,0,0,1-.8-.86.85.85,0,0,1,.85-.85,4.2,4.2,0,0,1,.62.06l4.49.56,2.39.3a.86.86,0,0,1,.78.68l2,7.08a1,1,0,0,1,0,.51.86.86,0,0,1-.75.66.85.85,0,0,1-.84-.47,1.31,1.31,0,0,1-.12-.33c-.52-1.81-1-3.63-1.55-5.44a.19.19,0,0,0,0-.07h0c-.66.68-1.33,1.37-2,2.06l-4.4,4.61a2.07,2.07,0,0,1,.2.15l2.06,1.95a1.39,1.39,0,0,1,.21.21.86.86,0,0,1-1.18,1.23L22,28.9l-2.07-2Z"/><path class="cls-1" d="M13.85,84.34a.12.12,0,0,1,0-.21,6.8,6.8,0,0,0,2.52-1.44c.7-.74.92-2.27,1.15-3.07a.11.11,0,0,1,.22,0c.14.81.19,2.28,1,3.09a5.69,5.69,0,0,0,2.66,1.43.11.11,0,0,1,0,.21,5.59,5.59,0,0,0-2.45,1.27c-.76.79-1,2.38-1.15,3.15a.11.11,0,0,1-.22,0c-.23-.8-.46-2.5-1.35-3.33A5.77,5.77,0,0,0,13.85,84.34Z"/><path class="cls-1" d="M93.17,27.33a.11.11,0,0,1,0-.21,6.46,6.46,0,0,0,2.52-1.44c.7-.73.92-2.26,1.16-3.07a.11.11,0,0,1,.22,0c.14.82.19,2.29,1,3.1a5.86,5.86,0,0,0,2.67,1.43.11.11,0,0,1,0,.21,5.62,5.62,0,0,0-2.44,1.27c-.77.79-1,2.38-1.16,3.15a.11.11,0,0,1-.21,0c-.23-.81-.47-2.5-1.36-3.34A6.08,6.08,0,0,0,93.17,27.33Z"/><path class="cls-1" d="M90.8,77.26a.11.11,0,0,1,0-.21,6.7,6.7,0,0,0,2.51-1.44c.71-.74.92-2.27,1.16-3.07a.11.11,0,0,1,.22,0c.14.81.19,2.28,1,3.09a5.6,5.6,0,0,0,2.66,1.43.11.11,0,0,1,0,.21,5.59,5.59,0,0,0-2.45,1.27c-.77.79-1,2.38-1.15,3.15a.11.11,0,0,1-.22,0c-.23-.8-.47-2.5-1.36-3.33A5.74,5.74,0,0,0,90.8,77.26Z"/><path class="cls-1" d="M31.4,96.06a1.15,1.15,0,1,1-1.14-1.14A1.14,1.14,0,0,1,31.4,96.06Z"/><path class="cls-1" d="M2.28,66.46a1.14,1.14,0,1,1-1.14-1.14A1.14,1.14,0,0,1,2.28,66.46Z"/><path class="cls-1" d="M5.62,46.15A1.14,1.14,0,1,1,4.48,45,1.14,1.14,0,0,1,5.62,46.15Z"/><path class="cls-1" d="M36.2,6.75a1.15,1.15,0,1,1-2.29,0,1.15,1.15,0,0,1,2.29,0Z"/><path class="cls-1" d="M81.31,12.18A1.15,1.15,0,1,1,80.16,11,1.14,1.14,0,0,1,81.31,12.18Z"/><path class="cls-1" d="M107,47.79a1.14,1.14,0,1,1-1.14-1.14A1.15,1.15,0,0,1,107,47.79Z"/><path class="cls-1" d="M84.75,94.59a1.14,1.14,0,1,1-1.14-1.15A1.14,1.14,0,0,1,84.75,94.59Z"/><path class="cls-1" d="M46.21,70.9a1.15,1.15,0,1,1-1.15-1.14A1.14,1.14,0,0,1,46.21,70.9Z"/><path class="cls-1" d="M64.56,75a1.14,1.14,0,1,1-1.14-1.14A1.14,1.14,0,0,1,64.56,75Z"/><path class="cls-1" d="M60.8,37.56a1.14,1.14,0,1,1-1.14-1.15A1.14,1.14,0,0,1,60.8,37.56Z"/><path class="cls-1" d="M45.23,39.94a.84.84,0,0,1-.84.83.83.83,0,0,1-.83-.83.84.84,0,0,1,.83-.84A.85.85,0,0,1,45.23,39.94Z"/><path class="cls-1" d="M56.19,62a.84.84,0,0,1-.83.84.85.85,0,0,1-.84-.84.84.84,0,0,1,.84-.83A.83.83,0,0,1,56.19,62Z"/><path class="cls-1" d="M68.81,27.65a.83.83,0,0,1-.83.83.84.84,0,0,1-.84-.83.85.85,0,0,1,.84-.84A.84.84,0,0,1,68.81,27.65Z"/><path class="cls-1" d="M47.3,3.11a.84.84,0,1,1-.84-.84A.84.84,0,0,1,47.3,3.11Z"/><path class="cls-1" d="M13,71.1a.84.84,0,0,1-.83.84.85.85,0,0,1-.84-.84.84.84,0,0,1,.84-.83A.83.83,0,0,1,13,71.1Z"/><path class="cls-1" d="M107.3,65.64a.84.84,0,0,1-.84.83.83.83,0,0,1,0-1.66A.84.84,0,0,1,107.3,65.64Z"/><path class="cls-1" d="M41.74,106a.84.84,0,0,1-.84.83.83.83,0,0,1,0-1.66A.84.84,0,0,1,41.74,106Z"/><path class="cls-1" d="M16.51,43.7a.57.57,0,0,1-.57.58.58.58,0,0,1,0-1.16A.57.57,0,0,1,16.51,43.7Z"/><path class="cls-1" d="M31.28,83.91a.56.56,0,0,1-.57.57.57.57,0,0,1-.58-.57.58.58,0,0,1,.58-.58A.57.57,0,0,1,31.28,83.91Z"/><circle class="cls-1" cx="54.46" cy="83.93" r="0.58"/><path class="cls-1" d="M51.58,25.39a.58.58,0,1,1-.58-.58A.58.58,0,0,1,51.58,25.39Z"/><path class="cls-1" d="M93.77,65.85a.58.58,0,1,1-1.15,0,.58.58,0,0,1,1.15,0Z"/></g></g></svg>