<svg xmlns="http://www.w3.org/2000/svg" viewBox="0 0 107.87 109.02"><defs><style>.cls-1{fill:#fff;}.cls-2{fill:#c4ab5b;}</style></defs><g id="Layer_2" data-name="Layer 2"><g id="Text"><path class="cls-1" d="M65,56.32q.14-1.08.18-2.16c.45.33.89.66,1.34,1,.72.49,1,.66,1.25.8a8.22,8.22,0,0,1,.71.47l.86.65c.54.42.91.71,1.28.71a.65.65,0,0,0,.29-.07h0a20.84,20.84,0,0,0,2.12-1.18,16.7,16.7,0,0,0,2.13-1.58A8.43,8.43,0,0,0,77.72,52c1.49-.68,3-1.27,4.38-1.76l.13-.05c1.07-.37,2.4-.83,2.48-1.76a1.26,1.26,0,0,0-.35-1,1.5,1.5,0,0,0-1.29-.25,65.68,65.68,0,0,0-6.91,2.61h0a5.91,5.91,0,0,0-1.68,1.49l-.68.73a33.64,33.64,0,0,1-2.44,2.32,11.08,11.08,0,0,0-1.78-1.33l-.6-.39-.51-.35-.7-.48-.35-.22c-.65-.43-1.23-.81-2.41-1.63a22.64,22.64,0,0,0-.62-2.92.6.6,0,0,0,.36-.62c0-.53-.14-1-.22-1.56.4.26.8.54,1.21.78.74.45,1,.61,1.28.74s.36.19.74.43l.89.61a2.66,2.66,0,0,0,1.27.65.69.69,0,0,0,.34-.09h0a22.86,22.86,0,0,0,2.06-1.28A18.33,18.33,0,0,0,74.37,45a8.38,8.38,0,0,0,2.36-3c1.45-.74,2.89-1.41,4.29-2l.13-.05c1-.42,2.35-.94,2.39-1.88a1.21,1.21,0,0,0-.4-.94A1.48,1.48,0,0,0,81.85,37a64.19,64.19,0,0,0-6.78,2.95h0a6,6,0,0,0-1.61,1.57c-.19.24-.41.5-.65.77a33,33,0,0,1-2.31,2.44,11,11,0,0,0-1.85-1.24L68,43.08l-.53-.32c-.24-.15-.48-.3-.73-.44-1.16-.68-2.38-1.43-3.62-2.21-.18-.4-.39-.79-.59-1.18l.1-.1.22,0a14.76,14.76,0,0,0,2.82.28,10.37,10.37,0,0,0,2.76-.35,7.93,7.93,0,0,0,1.36-.52l.1,0a7.11,7.11,0,0,0,2.89-1.94,3.31,3.31,0,0,0,.89-2.18c3-3.47,4.13-7,3.69-9.29a10.72,10.72,0,0,0-.22-4.95c-.16-.56-1.6-5.19-4.57-5.76a10.38,10.38,0,0,0-2.48-5.66,10.54,10.54,0,0,0-7-3.49.56.56,0,0,0-.42,1,17,17,0,0,1,2.82,3.3c.25.38.48.77.7,1.17a9.23,9.23,0,0,1-1.28-.21,9,9,0,0,1-2.4-1,.58.58,0,0,0-.64.06.56.56,0,0,0-.17.62,13,13,0,0,0,2,3.68,13.15,13.15,0,0,0,4.31,3.52,8.33,8.33,0,0,0,1,6.79,12,12,0,0,0-1.15,2.53A14.47,14.47,0,0,0,67,31.53a8.37,8.37,0,0,0-2.38.71l-.11.06h0a13.32,13.32,0,0,0-2.63,1.77A.84.84,0,0,0,61.7,34,3.5,3.5,0,0,0,59.25,34a15.17,15.17,0,0,0-1.33-1.33,5.55,5.55,0,0,0,1.2-6.74,2.82,2.82,0,0,0-1.5-1.39c-.61-.2-1-.19-1.2.05s0,.73.41,1.32a6.09,6.09,0,0,1,.84,1.65c.32,1.14-.06,2.52-1.11,4.08a7.53,7.53,0,0,0-4.11-1.3h-.08a7.51,7.51,0,0,0-4,1.32c-1.06-1.57-1.44-2.95-1.12-4.1A6.09,6.09,0,0,1,48,25.86c.38-.59.65-1,.4-1.32s-.59-.25-1.19-.05a2.82,2.82,0,0,0-1.5,1.39A5.56,5.56,0,0,0,47,32.66,14.48,14.48,0,0,0,45.71,34a3.61,3.61,0,0,0-2.55,0l-.13.07A13.62,13.62,0,0,0,40.4,32.3h0l-.1,0a8.37,8.37,0,0,0-2.38-.71A14.7,14.7,0,0,0,37,26.46a12.56,12.56,0,0,0-1.15-2.53,8.37,8.37,0,0,0,1-6.79,13.15,13.15,0,0,0,4.31-3.52,13,13,0,0,0,2-3.68A.56.56,0,0,0,43,9.32a.58.58,0,0,0-.64-.06,9,9,0,0,1-2.4,1,9.23,9.23,0,0,1-1.28.21c.21-.4.45-.79.69-1.17A17.46,17.46,0,0,1,42.2,6a.56.56,0,0,0-.42-1,10.58,10.58,0,0,0-7,3.49,10.43,10.43,0,0,0-2.47,5.66c-3,.57-4.41,5.2-4.57,5.76a10.72,10.72,0,0,0-.22,4.95c-.44,2.31.64,5.82,3.69,9.29a3.31,3.31,0,0,0,.89,2.18A7.11,7.11,0,0,0,35,38.24l.1,0a7.62,7.62,0,0,0,1.36.52,10.37,10.37,0,0,0,2.76.35A14.76,14.76,0,0,0,42,38.87l.22,0c.11.11.22.22.34.32-.13.31-.26.63-.38,1-1.22.78-2.42,1.53-3.56,2.21l-.73.45-.52.33-.61.37a11,11,0,0,0-1.83,1.26,33.2,33.2,0,0,1-2.34-2.42l-.66-.76A5.86,5.86,0,0,0,30.3,40h0a63.32,63.32,0,0,0-6.8-2.88,1.51,1.51,0,0,0-1.3.2,1.19,1.19,0,0,0-.38.94c0,.94,1.35,1.45,2.4,1.86l.13,0c1.4.55,2.85,1.2,4.3,1.93a8.47,8.47,0,0,0,2.4,3,17.14,17.14,0,0,0,2.06,1.65A20.06,20.06,0,0,0,35.17,48h0a.73.73,0,0,0,.34.08,2.61,2.61,0,0,0,1.27-.66l.89-.61c.37-.25.52-.33.73-.45s.54-.29,1.27-.74c.49-.31,1-.64,1.45-1a21.37,21.37,0,0,0-.07,2.54.62.62,0,0,0,.42.56l.28.08a17.55,17.55,0,0,0-.65,2.1c-1.46.91-2.33,1.43-3.15,1.91l-.73.45-.53.32-.61.36a10.54,10.54,0,0,0-1.85,1.24c-.82-.78-1.6-1.6-2.32-2.43L31.28,51a6,6,0,0,0-1.61-1.57h0a62.8,62.8,0,0,0-6.77-2.95,1.52,1.52,0,0,0-1.3.18,1.23,1.23,0,0,0-.4.94c0,.94,1.34,1.46,2.39,1.88l.13.06c1.4.56,2.84,1.23,4.28,2a8.42,8.42,0,0,0,2.37,3.05,16.46,16.46,0,0,0,2,1.68,19,19,0,0,0,2.05,1.28h0a.82.82,0,0,0,.33.09A2.64,2.64,0,0,0,36.09,57L37,56.4a5.87,5.87,0,0,1,.73-.43c.25-.13.55-.29,1.29-.74.53-.33,1.06-.68,1.6-1a15.92,15.92,0,0,0,.1,1.95.64.64,0,0,0,.31.47l.69.37a17.78,17.78,0,0,0-.15,2.73c-1,.85-1.65,1.35-2.24,1.82l-.43.33-.66.55-.48.39-.55.45a10.56,10.56,0,0,0-1.66,1.48,32.17,32.17,0,0,1-2.63-2.09L32.15,62a5.63,5.63,0,0,0-1.81-1.33h0a63.51,63.51,0,0,0-7.12-2A1.47,1.47,0,0,0,22,59a1.19,1.19,0,0,0-.26,1c.17.93,1.53,1.26,2.63,1.53l.14,0c1.45.36,3,.82,4.51,1.36a8.51,8.51,0,0,0,2.77,2.69A17.91,17.91,0,0,0,34,67a21.89,21.89,0,0,0,2.21,1h0a.86.86,0,0,0,.27.05c.38,0,.74-.34,1.26-.83.23-.21.48-.45.8-.73s.48-.39.67-.53.5-.36,1.17-.91,1.11-.94,1.65-1.42a5,5,0,0,0,.22.58,4,4,0,0,0,.88,1.14l-.57,1.17a10.42,10.42,0,0,0-.8,1.8,1.7,1.7,0,0,0,.05.74c-.76.87-1.53,1.76-2.27,2.66-2.66,3.22-2.9,3.83-2.88,4.63a1.08,1.08,0,0,1,0,.19,15.28,15.28,0,0,0-3.39,5.25c-.28.73-2.61,7.08.08,9.68a15.39,15.39,0,0,0,1.69,3.79,14.93,14.93,0,0,0,5.3,5,4.86,4.86,0,0,0,2.32.76c.11,0,.21,0,.32,0q1.1.33,2.22.6a21.37,21.37,0,0,0,4.56.7h.05c1.37,0,2.27,0,3.1-.66a.94.94,0,0,1,.1-.1,25.18,25.18,0,0,0,3.9-.47,20.35,20.35,0,0,0,3.83-1.3,4,4,0,0,0,1.8-1.28,18.08,18.08,0,0,0,4.24-3.2c.65-.69,1.47-1.67,1.38-2.6a13,13,0,0,0,2.19-4.17,5.36,5.36,0,0,0,.26-1.7,4.67,4.67,0,0,0,2.75-2c1.43-2.34-.07-5.82-2.28-7.69a8,8,0,0,0-5.78-1.77A.62.62,0,0,0,65,76.47c1.46,1.11,2.17,2.12,2.11,3a2.83,2.83,0,0,1-.71,1.44,3.34,3.34,0,0,0-.89,2.57,3.6,3.6,0,0,0,1.32,2.26,3.7,3.7,0,0,0,.77.45,4.4,4.4,0,0,0-.31.93A16.65,16.65,0,0,1,66,90.66c-.75.19-1.4,1.07-1.82,1.65l-.08.11a12.33,12.33,0,0,1-3.19,3,6,6,0,0,0-2.74.75l-.29.13a17.76,17.76,0,0,1-4,1.16h0c-.36-.37-.74-.36-1.48-.35H50.87a16.36,16.36,0,0,1-2.06-.13,11,11,0,0,1-1.49-.33s0-.1,0-.16a1.59,1.59,0,0,0-1-.83l-.13-.06h0a7.68,7.68,0,0,1-3.7-3.1,4.26,4.26,0,0,0,1.29-2.91,12.41,12.41,0,0,1,.44-1.88,9.37,9.37,0,0,1,3.63-4.54,5.23,5.23,0,0,0,.87-.13c2.56-.57,4.06-2.42,6.13-5a24.56,24.56,0,0,0,2.95-4.63,8.6,8.6,0,0,0,.93-.65A9.53,9.53,0,0,0,61,69.51a10.53,10.53,0,0,0,.94-3.63,4.38,4.38,0,0,0,1.67-1.72,2.55,2.55,0,0,0,.14-.35c.49.43,1,.85,1.49,1.26.67.54,1,.73,1.18.89s.33.24.67.53.57.51.8.72c.53.48.88.81,1.27.81a.8.8,0,0,0,.26,0h0a20.88,20.88,0,0,0,2.21-1,17.58,17.58,0,0,0,2.24-1.39,8.5,8.5,0,0,0,2.75-2.72c1.53-.55,3-1,4.5-1.4l.13,0c1.1-.29,2.46-.64,2.62-1.56a1.2,1.2,0,0,0-.28-1,1.49,1.49,0,0,0-1.26-.35,62,62,0,0,0-7.1,2h0a5.89,5.89,0,0,0-1.79,1.35l-.74.68c-.82.73-1.7,1.44-2.62,2.12a10.32,10.32,0,0,0-1.67-1.47l-.56-.45-.48-.38c-.21-.18-.44-.36-.67-.54l-.47-.36c-.47-.36-.85-.66-1.79-1.43a17,17,0,0,0-.1-3.11l.39-.2A.66.66,0,0,0,65,56.32ZM36.82,15.88a17.55,17.55,0,0,1,1.28-4.29,10.92,10.92,0,0,0,2.13-.29,9.76,9.76,0,0,0,1.3-.4,12.52,12.52,0,0,1-1.28,2A12.21,12.21,0,0,1,36.82,15.88ZM63.14,60.52a9.07,9.07,0,0,1-.65,3.06c-1.29,2.48-6.3,2.48-9.62,2.48-3.5,0-8.29,0-9.51-2.42a9.47,9.47,0,0,1-.57-3.42,15.67,15.67,0,0,1,.1-2.65A24.17,24.17,0,0,0,53,59.78h0a24.29,24.29,0,0,0,10.13-2.22A14.64,14.64,0,0,1,63.14,60.52ZM67.6,84.76a2.38,2.38,0,0,1-.87-1.45,2.23,2.23,0,0,1,.67-1.66,3.35,3.35,0,0,0-.33-5,6.28,6.28,0,0,1,3.24,1.42c1.58,1.34,3.17,4.21,2,6.1a3.63,3.63,0,0,1-2.21,1.48v0a3.15,3.15,0,0,0-.6-.23,2.64,2.64,0,0,0-.82-.18A2.43,2.43,0,0,1,67.6,84.76Zm1.54,1.84.26.08a3.32,3.32,0,0,1-.21,1.47,11.4,11.4,0,0,1-1.63,3.28l-.19-.22L67.18,91a18,18,0,0,0,1.33-3.66,2.89,2.89,0,0,1,.31-.88Zm-2.89,5.26.24.23a2.3,2.3,0,0,1,.46.65s.12.45-1,1.67A16.45,16.45,0,0,1,62.57,97a5.71,5.71,0,0,0-.35-.65L62,96.1a13.12,13.12,0,0,0,3.07-2.95l.08-.11C65.85,92.1,66.16,91.9,66.25,91.86Zm-5.37,4.79a2,2,0,0,1,.28.4,1.94,1.94,0,0,1,.36.76c0,.06-.1.28-1.26.81a18.79,18.79,0,0,1-3.56,1.21,24.34,24.34,0,0,1-2.7.37,4,4,0,0,0,.35-1.27c0-.11,0-.22,0-.33a19.06,19.06,0,0,0,4-1.2l.3-.14C60,96.69,60.69,96.48,60.88,96.65ZM53,98.3a1,1,0,0,1,.08.55,2.63,2.63,0,0,1-.93,1.79c-.48.37-1,.39-2.35.4h0a19.72,19.72,0,0,1-4.27-.66l-.73-.2c.34-.28.65-.59,1-.93a1.89,1.89,0,0,1,.2-.2A8.43,8.43,0,0,0,47,97.81a12.69,12.69,0,0,0,1.6.35,17.08,17.08,0,0,0,2.2.14c.74,0,1.26,0,1.6,0Zm-6.91-1.4c0,.26-.78,1-1,1.28l-.2.2A3.8,3.8,0,0,1,43,99.74a3.08,3.08,0,0,1-2-.58,13.58,13.58,0,0,1-4.84-4.57,14.4,14.4,0,0,1-1.21-2.46c.92.18,2.31.36,4.48.64l.14,0a12.81,12.81,0,0,0,1.43.12,2.23,2.23,0,0,0,.27,0,9.16,9.16,0,0,0,4.44,3.8l.13.06c.1.05.26.12.32.16Zm-4.54-5.36c-.3.16-.58.18-1.89,0l-.14,0a28.58,28.58,0,0,1-5.22-.87c-2.33-2,0-8.19.12-8.45a14.17,14.17,0,0,1,2.72-4.37,10.85,10.85,0,0,0,3.64,2.9A15.89,15.89,0,0,0,45.94,83,10,10,0,0,0,43,87.25a14.46,14.46,0,0,0-.48,2.07C42.33,90.37,42.19,91.2,41.58,91.54Zm-.14-11.86c-1.71-1-3.49-2.08-3.54-3.38,0-.36.17-.87,2.6-3.8.64-.78,1.31-1.55,2-2.31a13.2,13.2,0,0,0,5.78,3.4,17.3,17.3,0,0,0,5.13.89A9.93,9.93,0,0,0,56,74.13a22.57,22.57,0,0,1-2.11,3.1c-2,2.44-3.3,4.06-5.44,4.54C45.91,82.33,43.64,81,41.44,79.68Zm7.18-7.27c-2.91-.91-5.06-2.54-5.54-3.48a.08.08,0,0,1,0,0,.7.7,0,0,1-.08-.35c.05-.15.35-.77.7-1.5l.48-1c2.32,1.24,5.89,1.24,8.71,1.24H53c2.39,0,5.34,0,7.59-.8A9.4,9.4,0,0,1,59.86,69a8.4,8.4,0,0,1-2,2.8C56.52,73,53.81,74,48.62,72.41ZM53,58.54h0A23.1,23.1,0,0,1,41.9,55.69a16.41,16.41,0,0,1,.21-4.64A16.59,16.59,0,0,1,43,48.23a31.8,31.8,0,0,0,9,1.34l1,0a31.69,31.69,0,0,0,10.28-2,21.56,21.56,0,0,1,.69,3.82,21.83,21.83,0,0,1-.07,4.5A23.18,23.18,0,0,1,53,58.54ZM42.29,46.75a16.84,16.84,0,0,1,1.52-7.38c1.07-2.34,4.06-7.78,8.57-7.84h.07c4.44,0,7.57,5.39,8.6,7.16a18.82,18.82,0,0,1,2.41,7.41,30.69,30.69,0,0,1-21.17.65ZM28.58,25a.17.17,0,0,0,0-.07,2.37,2.37,0,0,1,.57-1.09c.95-1,3.21-1.18,4.64-.35,1.14.67,1.59,1.88,2.15,3.41a13.39,13.39,0,0,1,.82,4.58,8.38,8.38,0,0,0-3.51.63,4.66,4.66,0,0,0-1.57.93C29.08,29.88,28.16,26.8,28.58,25Zm.2-4.76c.5-1.7,2-4.94,4-5h.06a3.23,3.23,0,0,1,2.23,1.18c1.31,1.5,1.27,4.1,0,6.63a4.37,4.37,0,0,0-.71-.53,5.33,5.33,0,0,0-5.94.46A9.72,9.72,0,0,1,28.78,20.19Zm7-4.77a4.45,4.45,0,0,0-2.35-1.31,9.05,9.05,0,0,1,6.76-7.72,18.67,18.67,0,0,0-1.74,2.24A18.49,18.49,0,0,0,35.76,15.42ZM32.3,34.09c.12-.42.68-.69,1.4-1a7.65,7.65,0,0,1,6.08.15l.11.06a12.1,12.1,0,0,1,2.18,1.44,2.54,2.54,0,0,0-.61,1,2.88,2.88,0,0,0,.1,2.1,11.56,11.56,0,0,1-4.85-.08,8,8,0,0,1-1.19-.46l-.1,0A6,6,0,0,1,33,35.6C32.67,35.25,32.16,34.61,32.3,34.09Zm11.29,1A2.37,2.37,0,0,1,45,34.93a23.67,23.67,0,0,0-1.91,3.15,2,2,0,0,1-.53-2A1.84,1.84,0,0,1,43.59,35.05Zm18.76,1A2,2,0,0,1,62,37.86a27.43,27.43,0,0,0-2-3,2.34,2.34,0,0,1,1.23.14A1.84,1.84,0,0,1,62.35,36.08Zm6.76-20.66a18.49,18.49,0,0,0-2.67-6.79A18.67,18.67,0,0,0,64.7,6.39a9.05,9.05,0,0,1,6.76,7.72A4.45,4.45,0,0,0,69.11,15.42Zm.65,1a3.19,3.19,0,0,1,2.3-1.18c2,.06,3.53,3.3,4,5a9.72,9.72,0,0,1,.35,2.74,5.34,5.34,0,0,0-5.94-.46,4.37,4.37,0,0,0-.71.53C68.5,20.47,68.46,17.87,69.76,16.37Zm1.31,7.07c1.43-.83,3.69-.66,4.64.35a2.47,2.47,0,0,1,.57,1.09.17.17,0,0,0,0,.07c.42,1.85-.51,4.93-3.11,8a4.66,4.66,0,0,0-1.57-.93,8.38,8.38,0,0,0-3.51-.63,13.39,13.39,0,0,1,.82-4.58C69.48,25.32,69.93,24.11,71.07,23.44Zm.1,9.66c.72.3,1.28.57,1.39,1s-.36,1.16-.64,1.51a6,6,0,0,1-2.47,1.61l-.1,0a8,8,0,0,1-1.19.46,11.56,11.56,0,0,1-4.85.08,2.88,2.88,0,0,0,.1-2.1,2.67,2.67,0,0,0-.61-1A12.1,12.1,0,0,1,65,33.31h0l.1,0A7.61,7.61,0,0,1,71.17,33.1ZM68.05,15.88a12.21,12.21,0,0,1-3.43-3,12.57,12.57,0,0,1-1.29-2,10.38,10.38,0,0,0,1.31.4,10.92,10.92,0,0,0,2.13.29A18,18,0,0,1,68.05,15.88ZM83.21,48c.13,0,.47-.08.61,0a.43.43,0,0,1,.1.31c0,.42-1.28.85-2,1.08l-.13.05c-1.31.45-2.67,1-4,1.61,0-.05,0-.1,0-.15a2,2,0,0,0-.4-.79A50.25,50.25,0,0,1,83.21,48Zm-8.85,4.61.69-.75c.69-.75,1.29-1.4,1.58-1.32s.34.34.4.58c.22,1-1.14,2.16-2.34,3.21a16.46,16.46,0,0,1-2,1.5l-1,.63v-.05a3.13,3.13,0,0,0,.13-1.21.44.44,0,0,0,0-.1C72.66,54.3,73.54,53.47,74.36,52.61ZM67,52.27l.34.22c.24.15.47.32.7.47l.51.35.6.4c1.38.92,1.78,1.2,1.84,1.61a2.38,2.38,0,0,1-.12.9,3.39,3.39,0,0,1-.22.74,4.29,4.29,0,0,1-.77-.54c-.24-.18-.53-.41-.89-.67s-.56-.38-.77-.51-.51-.3-1.21-.77-1.18-.83-1.76-1.27c0-.65,0-1.31-.08-2a1.23,1.23,0,0,1,0-.2C65.94,51.59,66.44,51.91,67,52.27ZM82,37.73c.13,0,.46-.1.61,0a.42.42,0,0,1,.12.31c0,.42-1.24.91-1.9,1.18l-.13,0c-1.28.52-2.61,1.13-3.94,1.8,0-.05,0-.1,0-.15a1.86,1.86,0,0,0-.44-.76A49.47,49.47,0,0,1,82,37.73Zm-8.62,5,.66-.78c.65-.79,1.21-1.46,1.51-1.39s.36.31.43.56c.26,1-1,2.2-2.18,3.31a15.17,15.17,0,0,1-2,1.6c-.33.24-.67.46-1,.68v0a3.12,3.12,0,0,0,.08-1.21l0-.1A36,36,0,0,0,73.4,42.77Zm-7,.23.72.43.53.33.62.37c1.42.84,1.84,1.11,1.92,1.51a2.51,2.51,0,0,1-.08.91,3.55,3.55,0,0,1-.19.75,4.71,4.71,0,0,1-.8-.5c-.24-.18-.55-.39-.91-.63s-.58-.35-.8-.47-.52-.28-1.24-.71-1.21-.77-1.81-1.17a20.57,20.57,0,0,0-.73-2.5C64.55,41.91,65.48,42.48,66.37,43ZM24.5,39.36c-.66-.25-1.89-.73-1.91-1.16a.41.41,0,0,1,.12-.3c.14-.13.48-.06.61,0A50.19,50.19,0,0,1,29,40.26a2,2,0,0,0-.43.77s0,.1,0,.15c-1.34-.66-2.67-1.26-4-1.77Zm7.08,5.17c-1.15-1.1-2.46-2.34-2.21-3.29a.84.84,0,0,1,.42-.57c.3-.07.87.6,1.53,1.38l.66.77a34.34,34.34,0,0,0,2.53,2.6l0,.1a3.34,3.34,0,0,0,.09,1.21v.05c-.35-.21-.69-.43-1-.67A15.31,15.31,0,0,1,31.58,44.53Zm7.69.45c-.71.44-1,.59-1.24.72a7.92,7.92,0,0,0-.79.48l-.91.63a4,4,0,0,1-.79.51,3,3,0,0,1-.2-.75,2.46,2.46,0,0,1-.08-.9c.07-.41.48-.67,1.9-1.54l.62-.37.52-.33L39,43c.89-.54,1.82-1.11,2.76-1.71a17.21,17.21,0,0,0-.52,2.39C40.6,44.12,39.93,44.56,39.27,45ZM23.88,48.79C23.22,48.53,22,48,22,47.61a.41.41,0,0,1,.12-.3c.15-.13.48-.05.61,0a49.47,49.47,0,0,1,5.7,2.45,1.86,1.86,0,0,0-.44.76s0,.1,0,.15c-1.33-.67-2.66-1.29-3.94-1.8Zm7,5.24c-1.15-1.11-2.45-2.36-2.18-3.31.07-.25.25-.52.43-.56s.86.6,1.51,1.39l.65.78c.78.9,1.62,1.78,2.5,2.62,0,0,0,.07,0,.1a3.12,3.12,0,0,0,.07,1.21v.05c-.35-.22-.69-.44-1-.68A15.26,15.26,0,0,1,30.91,54Zm7.68.52c-.72.44-1,.59-1.25.72a6,6,0,0,0-.79.47c-.37.23-.67.45-.92.62a4,4,0,0,1-.8.5,3.71,3.71,0,0,1-.18-.75,2.51,2.51,0,0,1-.08-.91c.08-.4.49-.66,1.92-1.51l.62-.37.53-.32.72-.44c.69-.4,1.42-.83,2.5-1.5a17.9,17.9,0,0,0-.25,2.19C39.94,53.7,39.26,54.14,38.59,54.55ZM24.65,60.81l-.14,0c-.69-.17-2-.49-2-.91a.4.4,0,0,1,.07-.31c.13-.15.47-.12.61-.11a51.85,51.85,0,0,1,6,1.63,1.89,1.89,0,0,0-.33.82c0,.05,0,.1,0,.15C27.39,61.57,26,61.15,24.65,60.81ZM32.2,65c-1.29-.94-2.75-2-2.62-3,0-.25.17-.55.35-.62s.93.48,1.69,1.17c.22.21.48.44.76.68a35.55,35.55,0,0,0,2.84,2.25.36.36,0,0,0,0,.1,3.14,3.14,0,0,0,.25,1.19v0c-.37-.17-.74-.34-1.1-.53A17.3,17.3,0,0,1,32.2,65Zm7.68-.56c-.65.53-.92.73-1.13.88s-.36.26-.73.58-.6.54-.82.74a3.7,3.7,0,0,1-.72.61,3.82,3.82,0,0,1-.29-.72,2.79,2.79,0,0,1-.2-.88c0-.41.4-.73,1.69-1.77l.56-.45.48-.4.65-.53.42-.33c.51-.4,1-.81,1.79-1.43a14.8,14.8,0,0,0,.23,2C41.18,63.34,40.53,63.9,39.88,64.43ZM82.4,59.31c.13,0,.47,0,.6.1a.42.42,0,0,1,.08.32c-.07.42-1.35.74-2,.92l-.14,0c-1.34.34-2.74.78-4.15,1.28,0-.06,0-.1,0-.16a2,2,0,0,0-.34-.81A50.34,50.34,0,0,1,82.4,59.31Zm-9.2,3.88L74,62.5c.75-.69,1.4-1.29,1.68-1.18s.32.36.35.61c.14,1-1.31,2-2.59,3a17,17,0,0,1-2.15,1.34c-.35.19-.72.36-1.09.53l0,0a3.39,3.39,0,0,0,.23-1.19.43.43,0,0,0,0-.11A35.39,35.39,0,0,0,73.2,63.19Zm-7-.68.65.52.49.39.56.45c1.31,1,1.68,1.34,1.71,1.75a2.55,2.55,0,0,1-.19.89,3.92,3.92,0,0,1-.28.71,3.68,3.68,0,0,1-.73-.59c-.22-.21-.5-.46-.83-.74a7.38,7.38,0,0,0-.73-.57c-.22-.16-.48-.34-1.14-.87S64.57,63.5,64,63a12.47,12.47,0,0,0,.33-2c.66.54,1,.8,1.4,1.1Z"/><path class="cls-2" d="M93.14,47.08l.1-.14a8.73,8.73,0,0,1,1.1-1.46,3.22,3.22,0,0,1,1.14-.83,2,2,0,0,1,1.67,0A2.89,2.89,0,0,1,98.6,46l.13.22a1,1,0,0,1,.1-.15,8.28,8.28,0,0,1,1.51-1.26,2.59,2.59,0,0,1,.79-.37,1.93,1.93,0,0,1,2.07.5,3.54,3.54,0,0,1,1,1.75,10.67,10.67,0,0,1,.26,2.39,32.38,32.38,0,0,1-.17,3.81,48.67,48.67,0,0,0-.24,5.79,5.65,5.65,0,0,0,.23,1.64,2.19,2.19,0,0,0,.51.9,1,1,0,0,0,1.37.07l.47-.38a.83.83,0,0,1,.48-.18.75.75,0,0,1,.71.43.68.68,0,0,1-.07.82,3.34,3.34,0,0,1-1.42,1,2.66,2.66,0,0,1-1.65,0,2.8,2.8,0,0,1-1.37-1,4.2,4.2,0,0,1-.67-1.67,11.18,11.18,0,0,1-.18-2.52c0-.82,0-1.65.07-2.47s.11-1.5.16-2.24.14-1.63.17-2.45c0-.65,0-1.29,0-1.94a7.81,7.81,0,0,0-.19-1.53,2.2,2.2,0,0,0-.44-.94L102,46a.37.37,0,0,0-.34-.07,2.07,2.07,0,0,0-.58.28,6.29,6.29,0,0,0-1.3,1.17,7.17,7.17,0,0,0-.45.63.23.23,0,0,0,0,.16,28.38,28.38,0,0,1,.11,3.91c0,1.73,0,3.46,0,5.18,0,.47,0,.93,0,1.39a1.79,1.79,0,0,1,0,.4A.78.78,0,0,1,97.86,59c0-.54-.07-1.08-.07-1.62,0-2,0-4,.06-6,0-.86,0-1.72-.07-2.58a1.12,1.12,0,0,0-.1-.4,1.85,1.85,0,0,1-.07-.41,1.32,1.32,0,0,0,0-.28c-.11-.3-.22-.6-.35-.88a1.44,1.44,0,0,0-.58-.66.57.57,0,0,0-.68,0,2.71,2.71,0,0,0-.49.39,8.39,8.39,0,0,0-1.38,2A1.62,1.62,0,0,0,94,49a.62.62,0,0,0,0,.27,15.63,15.63,0,0,1,.26,2.36c.06,1.85.13,3.7.18,5.56,0,.45,0,.91,0,1.37a.75.75,0,0,1-.46.72.78.78,0,0,1-1.1-.62,1.21,1.21,0,0,1,0-.19c0-1.16,0-2.31-.08-3.47,0-.81,0-1.63-.07-2.45a22.81,22.81,0,0,0-.19-2.47,10.87,10.87,0,0,0-.27-1.26,3.79,3.79,0,0,0-.81-1.45,1,1,0,0,0-.49-.32.49.49,0,0,0-.44.05,2.64,2.64,0,0,0-.79.7c-.1.14-.2.28-.31.41a.74.74,0,0,1-.82.25.77.77,0,0,1-.46-1.13,4.38,4.38,0,0,1,1.67-1.64,2,2,0,0,1,1.49-.18,2.71,2.71,0,0,1,1.6,1.15Z"/><path class="cls-1" d="M90.64,83.43a.11.11,0,0,1,0-.21,6.7,6.7,0,0,0,2.51-1.44c.71-.74.93-2.27,1.16-3.08a.11.11,0,0,1,.22,0c.14.81.19,2.28,1,3.09a5.69,5.69,0,0,0,2.66,1.43.11.11,0,0,1,0,.21,5.59,5.59,0,0,0-2.45,1.27c-.77.79-1,2.38-1.15,3.15a.11.11,0,0,1-.22,0c-.23-.8-.46-2.5-1.35-3.33A5.77,5.77,0,0,0,90.64,83.43Z"/><path class="cls-1" d="M11.07,26.27a.11.11,0,0,1,0-.21,6.72,6.72,0,0,0,2.52-1.44c.7-.74.92-2.27,1.16-3.07a.11.11,0,0,1,.22,0c.13.81.19,2.28.95,3.09a5.69,5.69,0,0,0,2.66,1.43.11.11,0,0,1,0,.21,5.62,5.62,0,0,0-2.44,1.27c-.77.79-1,2.38-1.16,3.15a.11.11,0,0,1-.22,0c-.22-.8-.46-2.5-1.35-3.33A5.8,5.8,0,0,0,11.07,26.27Z"/><path class="cls-1" d="M13.59,73.51a.11.11,0,0,1,0-.21,6.43,6.43,0,0,0,2.51-1.44c.71-.73.93-2.26,1.16-3.07a.11.11,0,0,1,.22,0c.14.81.19,2.29,1,3.1a5.75,5.75,0,0,0,2.66,1.42.12.12,0,0,1,0,.22,5.59,5.59,0,0,0-2.45,1.27c-.77.79-1,2.38-1.15,3.14a.11.11,0,0,1-.22,0c-.23-.81-.46-2.5-1.35-3.34A6,6,0,0,0,13.59,73.51Z"/><path class="cls-1" d="M89.6,28.33a.1.1,0,0,1,0-.2,6.61,6.61,0,0,0,2.51-1.45c.71-.73.93-2.26,1.16-3.07a.11.11,0,0,1,.22,0c.14.81.19,2.28,1,3.09a5.74,5.74,0,0,0,2.66,1.43.11.11,0,0,1,0,.21,5.59,5.59,0,0,0-2.45,1.27c-.77.79-1,2.38-1.15,3.15a.11.11,0,0,1-.22,0c-.23-.8-.46-2.5-1.35-3.34A6,6,0,0,0,89.6,28.33Z"/><path class="cls-1" d="M84.05,95.67a1.14,1.14,0,1,1-1.14-1.15A1.14,1.14,0,0,1,84.05,95.67Z"/><path class="cls-1" d="M86.82,74.14A1.14,1.14,0,1,1,85.68,73,1.14,1.14,0,0,1,86.82,74.14Z"/><path class="cls-1" d="M105,70.25a1.15,1.15,0,1,1-1.15-1.14A1.14,1.14,0,0,1,105,70.25Z"/><path class="cls-1" d="M28.6,90.05a1.14,1.14,0,1,1-1.14-1.14A1.14,1.14,0,0,1,28.6,90.05Z"/><circle class="cls-1" cx="1.14" cy="59.33" r="1.14"/><path class="cls-1" d="M9.56,44.15A1.15,1.15,0,1,1,8.41,43,1.15,1.15,0,0,1,9.56,44.15Z"/><path class="cls-1" d="M21.66,13.37a1.15,1.15,0,1,1-1.15-1.14A1.15,1.15,0,0,1,21.66,13.37Z"/><path class="cls-1" d="M54.92,1.14A1.14,1.14,0,1,1,53.78,0,1.14,1.14,0,0,1,54.92,1.14Z"/><path class="cls-1" d="M85.08,12.59a1.14,1.14,0,1,1-1.14-1.15A1.14,1.14,0,0,1,85.08,12.59Z"/><path class="cls-1" d="M69.59,105.19a.84.84,0,0,1-.84.83.83.83,0,0,1,0-1.66A.84.84,0,0,1,69.59,105.19Z"/><circle class="cls-1" cx="33.83" cy="103.31" r="0.83"/><circle class="cls-1" cx="11.71" cy="85.88" r="0.83"/><path class="cls-1" d="M32.41,76.64a.85.85,0,0,1-.84.84.84.84,0,0,1-.83-.84.83.83,0,0,1,.83-.83A.84.84,0,0,1,32.41,76.64Z"/><path class="cls-1" d="M57.54,13.23a.84.84,0,0,1-.84.83.83.83,0,0,1,0-1.66A.84.84,0,0,1,57.54,13.23Z"/><path class="cls-1" d="M73.87,3.25a.83.83,0,0,1-.83.83.83.83,0,1,1,0-1.66A.83.83,0,0,1,73.87,3.25Z"/><circle class="cls-1" cx="105.76" cy="36.19" r="0.83"/><path class="cls-1" d="M14.21,56.21a.58.58,0,1,1-.58-.58A.58.58,0,0,1,14.21,56.21Z"/><path class="cls-1" d="M5.86,73.47a.58.58,0,1,1-.57-.58A.58.58,0,0,1,5.86,73.47Z"/><path class="cls-1" d="M32.73,4.48a.58.58,0,1,1-.58-.57A.58.58,0,0,1,32.73,4.48Z"/><path class="cls-1" d="M3,34a.57.57,0,0,1-.58.57A.56.56,0,0,1,1.85,34a.57.57,0,0,1,.57-.58A.58.58,0,0,1,3,34Z"/><path class="cls-1" d="M95.73,15.44a.58.58,0,1,1-1.15,0,.58.58,0,0,1,1.15,0Z"/><path class="cls-1" d="M47.76,18.8a.57.57,0,0,1-.57.58.58.58,0,0,1,0-1.16A.57.57,0,0,1,47.76,18.8Z"/><path class="cls-1" d="M49.78,108.44a.58.58,0,1,1-.58-.57A.58.58,0,0,1,49.78,108.44Z"/><circle class="cls-1" cx="53.48" cy="88.08" r="0.58"/><path class="cls-1" d="M90.91,63.64a.58.58,0,0,1-1.16,0,.58.58,0,0,1,1.16,0Z"/><path class="cls-1" d="M91.3,37.49a.58.58,0,1,1-1.16,0,.58.58,0,0,1,1.16,0Z"/></g></g></svg>