<svg xmlns="http://www.w3.org/2000/svg" viewBox="0 0 109.72 109.86"><defs><style>.cls-1{fill:#c4ab5b;}.cls-2{fill:#fff;}</style></defs><g id="Layer_2" data-name="Layer 2"><g id="Text"><path class="cls-1" d="M60.73,22.73a5.37,5.37,0,1,1-5.3-5.36A5.36,5.36,0,0,1,60.73,22.73Zm-5.36,3.58a3.59,3.59,0,1,0-3.6-3.59A3.57,3.57,0,0,0,55.37,26.31Z"/><path class="cls-1" d="M55.73,16.56c.05-.08.07-.13.1-.18.29-.54.55-1.1.86-1.62a5.89,5.89,0,0,1,3-2.58,6.06,6.06,0,0,1,1.43-.44,6,6,0,0,1,.95-.05.86.86,0,0,1,.85.63.88.88,0,0,1-.64,1.1,1.46,1.46,0,0,1-.36,0,2.57,2.57,0,0,0-.91.13,6.19,6.19,0,0,0-1.53.69,4.58,4.58,0,0,0-1.29,1.41c-.23.4-.44.81-.65,1.22s-.23.54-.36.8a4.2,4.2,0,0,1-.36.7,1.37,1.37,0,0,1-1.51.59,1.19,1.19,0,0,1-.86-.74c-.11-.26-.19-.53-.3-.8s-.21-.48-.33-.71-.32-.61-.47-.91a3.07,3.07,0,0,0-.75-1,5.54,5.54,0,0,0-1.8-1.17,4.1,4.1,0,0,0-1.43-.29.85.85,0,0,1-.86-.74.9.9,0,0,1,.62-1,1.92,1.92,0,0,1,.86,0,6.46,6.46,0,0,1,3.33,1.5l.61.53a4.4,4.4,0,0,1,1,1.28Z"/><path class="cls-2" d="M72.47,46.47A.65.65,0,0,1,72,46.3a24.2,24.2,0,0,0-32.53,0,.67.67,0,0,1-1,0,.68.68,0,0,1,.05-1,25.56,25.56,0,0,1,34.33,0,.67.67,0,0,1-.45,1.18Z"/><path class="cls-2" d="M90.4,58.43A16.23,16.23,0,0,1,82,56.05a6.83,6.83,0,0,0-3.75-1.21,8.07,8.07,0,0,0-4.81,2,.71.71,0,0,1-.56.13.65.65,0,0,1-.46-.34C70,52.15,69.86,47.85,72,45.36a7.45,7.45,0,0,1,4.92-2.29c3.59-.47,6.42,1,8.92,2.3s4.53,2.36,6.81,1.46a5.48,5.48,0,0,0,1.3-.75c1.89-1.48,2.14-3.69,2.42-6.25.26-2.31.55-4.94,2.3-7.15a10.22,10.22,0,0,1,4.85-3.23.68.68,0,0,1,.76,1.05,14.56,14.56,0,0,0-2.68,5.55,13.81,13.81,0,0,0,.24,6.74,12.52,12.52,0,0,1,.11,6.94,13.07,13.07,0,0,1-6.19,7.51A11.87,11.87,0,0,1,90.4,58.43Zm-12-4.94a8.11,8.11,0,0,1,4.27,1.38,15.48,15.48,0,0,0,3.59,1.59A12.08,12.08,0,0,0,95.12,56a11.66,11.66,0,0,0,5.49-6.69,11.27,11.27,0,0,0-.13-6.26,15,15,0,0,1-.24-7.34,15.32,15.32,0,0,1,1.6-4.07,8.11,8.11,0,0,0-2.15,1.85c-1.5,1.91-1.76,4.22-2,6.46-.29,2.62-.6,5.33-2.94,7.16a6.69,6.69,0,0,1-1.63.94c-2.85,1.13-5.32-.15-7.93-1.51-2.44-1.26-5-2.57-8.13-2.16A6.23,6.23,0,0,0,73,46.23c-1.6,1.9-1.48,5.38.26,9a9,9,0,0,1,5-1.76Z"/><path class="cls-2" d="M65.59,88.64a.67.67,0,0,1-.67-.61,9.54,9.54,0,0,1,.61-4.58,9.71,9.71,0,0,1,2.59-3.55l.21-.2c4.23-4.08,5-11.58,5.14-14.61a25.84,25.84,0,0,0-1.1-8.63.67.67,0,1,1,1.29-.39,27.21,27.21,0,0,1,1.17,9.08c-.18,4-1.15,11.26-5.56,15.52a2.49,2.49,0,0,1-.23.22,7.78,7.78,0,0,0-2.77,7,.69.69,0,0,1-.61.74Z"/><path class="cls-2" d="M80.48,70.52a5.21,5.21,0,0,1-2.9-.79,5.4,5.4,0,0,1-.92-.77,4,4,0,0,0-1.14-.85A4.46,4.46,0,0,0,74,67.68a.57.57,0,0,1-.51-.62.56.56,0,0,1,.61-.51,5.61,5.61,0,0,1,2,.55,5.16,5.16,0,0,1,1.42,1.05,4.24,4.24,0,0,0,.75.63,4.39,4.39,0,0,0,2.84.59,6.15,6.15,0,0,0,3.76-2,6.74,6.74,0,0,0,.75-.91A9.2,9.2,0,0,1,86.86,65a11.54,11.54,0,0,1,1.92-1.53,10.76,10.76,0,0,1,2.27-1.08,6.06,6.06,0,0,0-1.43-.69,5,5,0,0,0-2.48-.15,9.88,9.88,0,0,1-1.63.1,7.07,7.07,0,0,1-4.2-1.68,7.05,7.05,0,0,0-3.6-1.6,8.18,8.18,0,0,0-3.94.58.57.57,0,0,1-.73-.32.56.56,0,0,1,.32-.73,9.28,9.28,0,0,1,4.48-.65A8.25,8.25,0,0,1,82,59a5.89,5.89,0,0,0,3.58,1.47A9.45,9.45,0,0,0,87,60.38a6.07,6.07,0,0,1,2.95.2,7.5,7.5,0,0,1,2.7,1.57.56.56,0,0,1-.25,1,9.81,9.81,0,0,0-3,1.26,10.24,10.24,0,0,0-1.74,1.39,8.26,8.26,0,0,0-1.19,1.36,8.07,8.07,0,0,1-5.33,3.36C80.91,70.51,80.69,70.52,80.48,70.52Z"/><path class="cls-2" d="M56.28,65.71a5.8,5.8,0,0,0,2.08.9,4,4,0,0,0,1.09.07h.29l.27,0a5.23,5.23,0,0,0,.54-.12,5.69,5.69,0,0,0,2-1A7,7,0,0,0,64,63.81c.42-.62.71-1.35,1.15-2.08a4.92,4.92,0,0,1,.8-1,5.53,5.53,0,0,1,1-.77,5.72,5.72,0,0,1,1.16-.52,6.45,6.45,0,0,1,1.23-.28A8.48,8.48,0,0,1,70.61,59a9.87,9.87,0,0,1,1.22.07.22.22,0,0,1,.2.24.21.21,0,0,1-.21.19h0a11.94,11.94,0,0,0-2.32.25,6.32,6.32,0,0,0-2.09.81,4.94,4.94,0,0,0-.87.68,4.74,4.74,0,0,0-.66.87c-.19.33-.35.68-.53,1a11.79,11.79,0,0,1-.6,1.09,7,7,0,0,1-.78,1,8.39,8.39,0,0,1-.94.85,6.41,6.41,0,0,1-2.27,1.15c-.21,0-.42.09-.64.12l-.32,0h-.31a4.05,4.05,0,0,1-1.29-.17A4.68,4.68,0,0,1,56.06,66a.18.18,0,0,1,0-.25.2.2,0,0,1,.22,0Z"/><path class="cls-2" d="M62.79,84.64a.41.41,0,0,1-.39-.31,24.33,24.33,0,0,1-.16-10c.53-2.74,1.43-7.34,5.2-9.75a6.7,6.7,0,0,1,2.44-1,13.38,13.38,0,0,1,2.41-.15h0a3.3,3.3,0,0,0,1.07-.1,3.52,3.52,0,0,0,.62-.22.25.25,0,0,1,.12,0,8.21,8.21,0,0,0,2.5-.74,6.21,6.21,0,0,0,1.46-1,2.53,2.53,0,0,1,1.36-.7,2.91,2.91,0,0,1,2,.46,3,3,0,0,0,1.93.47,7.61,7.61,0,0,0,1.83-.42,8.09,8.09,0,0,1,1.07-.4,7.33,7.33,0,0,1,1.13-.24.4.4,0,0,1,.44.34.38.38,0,0,1-.34.44,7,7,0,0,0-1,.22,6.52,6.52,0,0,0-1,.36h0a8,8,0,0,1-2.05.47,3.68,3.68,0,0,1-2.39-.55,2.17,2.17,0,0,0-1.53-.38,1.86,1.86,0,0,0-1,.53A6.79,6.79,0,0,1,77,63a9.36,9.36,0,0,1-2.67.79,3.79,3.79,0,0,1-.71.26,4.08,4.08,0,0,1-1.31.12h0a13.39,13.39,0,0,0-2.25.14,6.14,6.14,0,0,0-2.13.92c-3.49,2.24-4.35,6.62-4.86,9.24a23.65,23.65,0,0,0,.16,9.69.39.39,0,0,1-.3.47Z"/><path class="cls-2" d="M64.74,68.8a.38.38,0,0,1-.35-.21.4.4,0,0,1,.17-.53,4.54,4.54,0,0,1,2.7-.57,4,4,0,0,1,.81.19,3.11,3.11,0,0,0,.83.17,3.89,3.89,0,0,0,1.87-.41c2.09-1,2.81-3.91,2.84-4a.39.39,0,1,1,.76.18c-.08.36-.88,3.48-3.28,4.57a4.54,4.54,0,0,1-2.24.49,4.2,4.2,0,0,1-1-.21,2.87,2.87,0,0,0-.67-.16,3.84,3.84,0,0,0-2.24.49A.37.37,0,0,1,64.74,68.8Z"/><path class="cls-2" d="M69.12,68.64l-.13,0a2.69,2.69,0,0,1-1.79-2.13,2.81,2.81,0,0,1,.71-2.18.4.4,0,0,1,.58.54,1.91,1.91,0,0,0-.5,1.53,1.87,1.87,0,0,0,1.26,1.49.41.41,0,0,1,.24.51A.4.4,0,0,1,69.12,68.64Z"/><path class="cls-2" d="M69.73,64A2.33,2.33,0,0,0,69,66.42a2.45,2.45,0,0,0,1.62,1.52l1.71-1.22,1.21-2,.16-.79-1.17-.3Z"/><path class="cls-2" d="M75.88,53.27a.4.4,0,0,1-.33-.17,6.45,6.45,0,0,1,.79-8.24.39.39,0,1,1,.55.56,5.65,5.65,0,0,0-.69,7.23.39.39,0,0,1-.1.55A.47.47,0,0,1,75.88,53.27Z"/><path class="cls-2" d="M78.21,52.63a.4.4,0,0,1-.37-.26A6.36,6.36,0,0,1,80,45.16a.4.4,0,1,1,.48.63,5.59,5.59,0,0,0-1.9,6.31.39.39,0,0,1-.23.51Z"/><path class="cls-2" d="M80.87,52.57a.4.4,0,0,1-.38-.31,5.5,5.5,0,0,1,2.16-5.64.4.4,0,0,1,.45.65,4.69,4.69,0,0,0-1.84,4.81.4.4,0,0,1-.29.48Z"/><path class="cls-2" d="M57.7,82.89a.39.39,0,0,1-.25-.7,3.72,3.72,0,0,1,3.74-.53.39.39,0,0,1,.2.52.38.38,0,0,1-.51.2A2.93,2.93,0,0,0,58,82.8.4.4,0,0,1,57.7,82.89Z"/><path class="cls-2" d="M21.08,58.43a11.9,11.9,0,0,1-5.32-1.19,13.09,13.09,0,0,1-6.19-7.51,12.52,12.52,0,0,1,.11-6.94,13.79,13.79,0,0,0,.25-6.74A14.71,14.71,0,0,0,7.25,30.5a.68.68,0,0,1,0-.8A.67.67,0,0,1,8,29.45a10.22,10.22,0,0,1,4.85,3.23c1.75,2.21,2,4.84,2.3,7.15.28,2.56.53,4.77,2.43,6.25a5.42,5.42,0,0,0,1.29.75c2.28.9,4.38-.19,6.81-1.46S31,42.6,34.6,43.07a7.49,7.49,0,0,1,4.93,2.29c2.09,2.49,1.91,6.79-.47,11.23a.65.65,0,0,1-.46.34.68.68,0,0,1-.55-.13,8.12,8.12,0,0,0-4.82-2,6.77,6.77,0,0,0-3.74,1.21,17,17,0,0,1-3.89,1.72A16.7,16.7,0,0,1,21.08,58.43ZM9.64,31.67a15.32,15.32,0,0,1,1.6,4.07A15,15,0,0,1,11,43.08a11.27,11.27,0,0,0-.13,6.26A11.66,11.66,0,0,0,16.36,56a12.08,12.08,0,0,0,8.87.43,15.48,15.48,0,0,0,3.59-1.59,8.06,8.06,0,0,1,4.44-1.38,9,9,0,0,1,5,1.76c1.74-3.64,1.86-7.12.26-9a6.23,6.23,0,0,0-4.06-1.82c-3.17-.41-5.69.9-8.13,2.16-2.61,1.36-5.08,2.64-7.93,1.51a6.69,6.69,0,0,1-1.63-.94C14.4,45.31,14.1,42.6,13.8,40c-.25-2.24-.5-4.55-2-6.46A8.11,8.11,0,0,0,9.64,31.67Z"/><path class="cls-2" d="M46.18,89.17h0a.68.68,0,0,1-.65-.71,9.21,9.21,0,0,0-3.14-7.64s-.11-.1-.15-.15c-4.41-4.26-5.37-11.55-5.55-15.52a27,27,0,0,1,1.16-9.08.67.67,0,1,1,1.29.39A25.84,25.84,0,0,0,38,65.09c.13,3,.91,10.53,5.14,14.61l.14.14a10.87,10.87,0,0,1,2.65,3.59,11,11,0,0,1,.91,5.1A.66.66,0,0,1,46.18,89.17Z"/><path class="cls-2" d="M31,70.52l-.64,0A8.07,8.07,0,0,1,25,67.13a8.59,8.59,0,0,0-1.18-1.36,10.84,10.84,0,0,0-1.75-1.39,9.81,9.81,0,0,0-3-1.26.55.55,0,0,1-.41-.41.54.54,0,0,1,.17-.56,7.37,7.37,0,0,1,2.69-1.57,6.07,6.07,0,0,1,2.95-.2,9.45,9.45,0,0,0,1.46.09A5.89,5.89,0,0,0,29.51,59a8.25,8.25,0,0,1,4.13-1.8,9.28,9.28,0,0,1,4.48.65.56.56,0,0,1,.32.73.57.57,0,0,1-.73.32,8.18,8.18,0,0,0-3.94-.58,7.05,7.05,0,0,0-3.6,1.6A7.07,7.07,0,0,1,26,61.6a9.88,9.88,0,0,1-1.63-.1,5,5,0,0,0-2.47.15,6,6,0,0,0-1.44.69,10.84,10.84,0,0,1,2.28,1.08A11.81,11.81,0,0,1,24.62,65a9.2,9.2,0,0,1,1.32,1.52,6.74,6.74,0,0,0,.75.91,6.15,6.15,0,0,0,3.76,2,4.37,4.37,0,0,0,2.84-.59,4.24,4.24,0,0,0,.75-.63,5.16,5.16,0,0,1,1.42-1.05,5.61,5.61,0,0,1,2-.55.56.56,0,0,1,.61.51.56.56,0,0,1-.5.62,4.51,4.51,0,0,0-1.57.43,3.84,3.84,0,0,0-1.13.85,5.94,5.94,0,0,1-.93.77A5.18,5.18,0,0,1,31,70.52Z"/><path class="cls-2" d="M55.42,66a4.68,4.68,0,0,1-2.13,1.3,4.05,4.05,0,0,1-1.29.17h-.31l-.32,0c-.22,0-.43-.07-.64-.12a6.41,6.41,0,0,1-2.27-1.15,8.39,8.39,0,0,1-.94-.85,7,7,0,0,1-.78-1c-.22-.36-.42-.73-.6-1.09s-.34-.71-.53-1a4.34,4.34,0,0,0-.66-.87,5.26,5.26,0,0,0-.86-.68,6.46,6.46,0,0,0-2.1-.81,11.86,11.86,0,0,0-2.32-.25h0a.22.22,0,0,1-.22-.22.22.22,0,0,1,.2-.21A9.87,9.87,0,0,1,40.87,59a8.73,8.73,0,0,1,1.24.09,6.53,6.53,0,0,1,1.22.28,5.72,5.72,0,0,1,1.16.52,5.53,5.53,0,0,1,1,.77,5.33,5.33,0,0,1,.81,1c.44.73.72,1.46,1.14,2.08A7,7,0,0,0,49,65.47a5.74,5.74,0,0,0,2,1,4.54,4.54,0,0,0,.53.12l.27,0H52a4,4,0,0,0,1.09-.07,5.8,5.8,0,0,0,2.08-.9h0a.18.18,0,0,1,.24.05A.17.17,0,0,1,55.42,66Z"/><path class="cls-2" d="M48.78,84.18H48.7a.39.39,0,0,1-.31-.46,23.39,23.39,0,0,0,.08-9.24c-.94-4.81-3.18-8.16-4.86-9.24a6.23,6.23,0,0,0-2.13-.92,13.39,13.39,0,0,0-2.25-.14h0a4.08,4.08,0,0,1-1.31-.12,3.46,3.46,0,0,1-.7-.26A9.42,9.42,0,0,1,34.52,63a6.79,6.79,0,0,1-1.62-1.06,1.86,1.86,0,0,0-1-.53,2.17,2.17,0,0,0-1.53.38,3.68,3.68,0,0,1-2.39.55,8,8,0,0,1-2-.47l-.17-.07a5.74,5.74,0,0,0-.81-.3,6.46,6.46,0,0,0-1-.22.39.39,0,0,1-.34-.44.4.4,0,0,1,.44-.34,7.21,7.21,0,0,1,1.14.24,7.34,7.34,0,0,1,.9.34l.15.06a7.55,7.55,0,0,0,1.84.42A3,3,0,0,0,30,61.09a2.93,2.93,0,0,1,2-.46,2.53,2.53,0,0,1,1.36.7,6.21,6.21,0,0,0,1.46,1,8.21,8.21,0,0,0,2.5.74.28.28,0,0,1,.13,0,3.16,3.16,0,0,0,.61.22,3.3,3.3,0,0,0,1.07.1h0a13.38,13.38,0,0,1,2.41.15,6.7,6.7,0,0,1,2.44,1c1.82,1.16,4.22,4.71,5.21,9.75a24.39,24.39,0,0,1-.09,9.55A.39.39,0,0,1,48.78,84.18Z"/><path class="cls-2" d="M46.74,68.8a.37.37,0,0,1-.18,0,3.84,3.84,0,0,0-2.24-.49,3,3,0,0,0-.67.16,4.2,4.2,0,0,1-1,.21,4.54,4.54,0,0,1-2.24-.49c-2.4-1.09-3.2-4.21-3.28-4.57a.39.39,0,1,1,.76-.18c0,.13.75,3.08,2.84,4a3.89,3.89,0,0,0,1.87.41,3,3,0,0,0,.83-.17,4.78,4.78,0,0,1,.81-.2,4.63,4.63,0,0,1,2.7.58.4.4,0,0,1,.17.53A.38.38,0,0,1,46.74,68.8Z"/><path class="cls-2" d="M42.36,68.64a.4.4,0,0,1-.37-.26.41.41,0,0,1,.24-.51,1.89,1.89,0,0,0,1.27-1.49A1.94,1.94,0,0,0,43,64.85a.4.4,0,1,1,.58-.54,2.77,2.77,0,0,1,.71,2.18,2.67,2.67,0,0,1-1.79,2.13Z"/><path class="cls-2" d="M41.75,64a2.36,2.36,0,0,1,.72,2.46,2.46,2.46,0,0,1-1.63,1.52l-1.71-1.22-1.21-2L37.76,64l1.17-.3Z"/><path class="cls-2" d="M35.6,53.27a.47.47,0,0,1-.22-.07.4.4,0,0,1-.1-.55,5.65,5.65,0,0,0-.69-7.23.39.39,0,1,1,.55-.56,6.42,6.42,0,0,1,.79,8.24A.4.4,0,0,1,35.6,53.27Z"/><path class="cls-2" d="M33.27,52.63l-.13,0a.39.39,0,0,1-.24-.51A5.55,5.55,0,0,0,31,45.79a.4.4,0,0,1,.48-.63,6.36,6.36,0,0,1,2.16,7.21A.4.4,0,0,1,33.27,52.63Z"/><path class="cls-2" d="M30.61,52.57h-.09a.4.4,0,0,1-.3-.48,4.69,4.69,0,0,0-1.84-4.81.39.39,0,0,1-.09-.55.4.4,0,0,1,.55-.1A5.49,5.49,0,0,1,31,52.26.39.39,0,0,1,30.61,52.57Z"/><path class="cls-2" d="M53.78,82.89a.4.4,0,0,1-.25-.09,2.93,2.93,0,0,0-2.93-.42.38.38,0,0,1-.51-.2.39.39,0,0,1,.2-.52,3.72,3.72,0,0,1,3.74.53.39.39,0,0,1-.25.7Z"/><path class="cls-2" d="M56.46,91a1,1,0,0,1,.83-.45,4.72,4.72,0,0,0,1-.06,2.32,2.32,0,0,0,1.17-1.16,2.34,2.34,0,0,1,1.16-1.18,1.3,1.3,0,0,1,1.47.64A1.77,1.77,0,0,1,62,90.39a2.75,2.75,0,0,1-1.22,1.14A4.48,4.48,0,0,1,58,92.3c-.34,0-1.3-.13-1.55-.72A.77.77,0,0,1,56.46,91Z"/><path class="cls-2" d="M55.09,91a1,1,0,0,0-.83-.45,4.67,4.67,0,0,1-1-.06,2.3,2.3,0,0,1-1.18-1.16,2.3,2.3,0,0,0-1.16-1.18,1.31,1.31,0,0,0-1.47.64,1.8,1.8,0,0,0,.07,1.65,2.78,2.78,0,0,0,1.23,1.14,4.48,4.48,0,0,0,2.78.77c.34,0,1.29-.13,1.55-.72A.79.79,0,0,0,55.09,91Z"/><path class="cls-2" d="M60.66,95.79a7.46,7.46,0,0,1-1.4-.18,11.71,11.71,0,0,0-3.64-.19c-.63.06-1.06.13-1.44.2a6.41,6.41,0,0,1-2,.11A7.22,7.22,0,0,1,47.8,94a6.92,6.92,0,0,1-2.13-4.21,5.86,5.86,0,0,1,.82-4.61h0a5.38,5.38,0,0,1,3.62-2,6.86,6.86,0,0,1,2.31.08,6.2,6.2,0,0,1,2.28.86,2.57,2.57,0,0,0,1.15.45,1.87,1.87,0,0,0,1.24-.28,8.19,8.19,0,0,1,2.69-.81,6.53,6.53,0,0,1,3.51.26,5,5,0,0,1,2,1.7c1.71,2.41.79,5.38.59,6a7.07,7.07,0,0,1-3.77,4.13A4.06,4.06,0,0,1,60.66,95.79ZM56.87,94a13.29,13.29,0,0,1,2.64.27,3.4,3.4,0,0,0,2.14,0,5.73,5.73,0,0,0,3-3.32c.1-.28.93-2.81-.42-4.71A3.64,3.64,0,0,0,62.73,85,5.13,5.13,0,0,0,60,84.8a7.09,7.09,0,0,0-2.3.69,3.14,3.14,0,0,1-2,.4A4,4,0,0,1,54,85.27a4.86,4.86,0,0,0-1.83-.7,5.46,5.46,0,0,0-1.86-.07A4.1,4.1,0,0,0,47.56,86h0A4.61,4.61,0,0,0,47,89.58,5.73,5.73,0,0,0,48.71,93a5.9,5.9,0,0,0,3.57,1.38,5,5,0,0,0,1.66-.09,15.67,15.67,0,0,1,1.56-.22C56,94,56.46,94,56.87,94Z"/><path class="cls-2" d="M55.69,90.13c-1.16,0-2-1-2.82-2S51.05,86,49.64,85.88a4.31,4.31,0,0,0-3,1.11.4.4,0,0,1-.55-.07.39.39,0,0,1,.06-.55,5,5,0,0,1,3.51-1.27c1.73.14,2.81,1.42,3.76,2.55.79.94,1.48,1.76,2.33,1.69s1.15-.7,1.71-1.52a5.61,5.61,0,0,1,2.88-2.54,6.22,6.22,0,0,1,5,.85.41.41,0,0,1,.16.54.4.4,0,0,1-.54.15A5.5,5.5,0,0,0,60.63,86a4.85,4.85,0,0,0-2.47,2.24c-.62.91-1.21,1.77-2.3,1.86Z"/><path class="cls-2" d="M55.71,99a7.08,7.08,0,0,1-5.41-2A6,6,0,0,1,49,94.62a.69.69,0,0,1,.45-.84.68.68,0,0,1,.85.45,4.69,4.69,0,0,0,1,1.79,5.86,5.86,0,0,0,4.56,1.59c.9,0,3,0,4.26-1.47a3.67,3.67,0,0,0,.71-1.34.68.68,0,1,1,1.3.4,5.12,5.12,0,0,1-1,1.81C59.51,99,57,99,55.86,99Z"/><path class="cls-2" d="M66.65,45.18a.31.31,0,0,1-.18,0A23.7,23.7,0,0,0,46.78,44a.4.4,0,1,1-.29-.74,24.46,24.46,0,0,1,20.35,1.16A.38.38,0,0,1,67,45,.39.39,0,0,1,66.65,45.18Z"/><path class="cls-2" d="M83.9,89.24a.11.11,0,0,1,0-.21,6.61,6.61,0,0,0,2.51-1.45c.71-.73.93-2.26,1.16-3.07a.11.11,0,0,1,.22,0c.14.81.19,2.28,1,3.09a5.78,5.78,0,0,0,2.66,1.43.11.11,0,0,1,0,.21A5.59,5.59,0,0,0,89,90.53c-.77.79-1,2.38-1.15,3.15a.11.11,0,0,1-.22,0c-.23-.8-.46-2.5-1.35-3.34A5.87,5.87,0,0,0,83.9,89.24Z"/><path class="cls-2" d="M23,24.37a.11.11,0,0,1,0-.21,6.56,6.56,0,0,0,2.51-1.44c.71-.74.93-2.27,1.16-3.07a.11.11,0,0,1,.22,0c.14.81.19,2.29,1,3.1a5.75,5.75,0,0,0,2.66,1.42.12.12,0,0,1,0,.22A5.55,5.55,0,0,0,28,25.66c-.77.8-1,2.38-1.15,3.15a.11.11,0,0,1-.22,0c-.23-.81-.46-2.51-1.35-3.34A5.91,5.91,0,0,0,23,24.37Z"/><path class="cls-2" d="M15.79,80a.11.11,0,0,1,0-.21A6.7,6.7,0,0,0,18.3,78.3c.71-.74.93-2.27,1.16-3.08a.11.11,0,0,1,.22,0c.14.81.19,2.28,1,3.09a5.78,5.78,0,0,0,2.66,1.43.11.11,0,0,1,0,.21,5.59,5.59,0,0,0-2.45,1.27c-.77.79-1,2.38-1.15,3.15a.11.11,0,0,1-.22,0c-.23-.8-.46-2.5-1.35-3.33A5.77,5.77,0,0,0,15.79,80Z"/><path class="cls-2" d="M77.58,30.18A1.14,1.14,0,1,1,76.44,29,1.14,1.14,0,0,1,77.58,30.18Z"/><path class="cls-2" d="M78.14,11.26A1.14,1.14,0,1,1,77,10.12,1.14,1.14,0,0,1,78.14,11.26Z"/><path class="cls-2" d="M90.93,24.62a1.14,1.14,0,1,1-1.14-1.14A1.15,1.15,0,0,1,90.93,24.62Z"/><path class="cls-2" d="M39.45,13.67a1.15,1.15,0,1,1-1.15-1.14A1.15,1.15,0,0,1,39.45,13.67Z"/><path class="cls-2" d="M7.66,63.86a1.15,1.15,0,1,1-1.14-1.14A1.14,1.14,0,0,1,7.66,63.86Z"/><path class="cls-2" d="M33.3,99a1.14,1.14,0,1,1-1.14-1.14A1.15,1.15,0,0,1,33.3,99Z"/><path class="cls-2" d="M57.33,108.72a1.15,1.15,0,1,1-1.15-1.15A1.14,1.14,0,0,1,57.33,108.72Z"/><circle class="cls-2" cx="104.36" cy="65.23" r="1.14"/><circle class="cls-2" cx="102.59" cy="81.59" r="1.14"/><path class="cls-2" d="M79.88,82.15A1.15,1.15,0,1,1,78.73,81,1.15,1.15,0,0,1,79.88,82.15Z"/><circle class="cls-2" cx="39.79" cy="33.23" r="0.83"/><path class="cls-2" d="M63.28,33.45a.84.84,0,1,1-1.67,0,.84.84,0,0,1,1.67,0Z"/><path class="cls-2" d="M72.11,20.22a.83.83,0,0,1-.83.83.84.84,0,0,1-.84-.83.85.85,0,0,1,.84-.84A.84.84,0,0,1,72.11,20.22Z"/><path class="cls-2" d="M57.76.83a.85.85,0,0,1-.84.84.84.84,0,0,1-.83-.84A.83.83,0,0,1,56.92,0,.84.84,0,0,1,57.76.83Z"/><path class="cls-2" d="M25.2,11.73a.83.83,0,0,1-.83.84.84.84,0,1,1,0-1.67A.83.83,0,0,1,25.2,11.73Z"/><path class="cls-2" d="M33.13,84.77a.84.84,0,0,1-.83.84.85.85,0,0,1-.84-.84.84.84,0,0,1,.84-.83A.83.83,0,0,1,33.13,84.77Z"/><path class="cls-2" d="M17.59,92a.84.84,0,0,1-.84.83.83.83,0,0,1-.83-.83.84.84,0,0,1,.83-.84A.85.85,0,0,1,17.59,92Z"/><circle class="cls-2" cx="75.77" cy="105.59" r="0.83"/><circle class="cls-2" cx="42.44" cy="106.8" r="0.83"/><circle class="cls-2" cx="91.2" cy="74.23" r="0.83"/><path class="cls-2" d="M109.72,50.18a.84.84,0,1,1-.84-.84A.84.84,0,0,1,109.72,50.18Z"/><path class="cls-2" d="M1.67,49.36a.84.84,0,0,1-.84.83A.83.83,0,0,1,0,49.36a.84.84,0,0,1,.83-.84A.85.85,0,0,1,1.67,49.36Z"/><path class="cls-2" d="M28.32,37a.58.58,0,1,1-.58-.57A.58.58,0,0,1,28.32,37Z"/><path class="cls-2" d="M68.37,1.78a.58.58,0,0,1-1.16,0,.58.58,0,0,1,1.16,0Z"/><path class="cls-2" d="M73.81,93.34a.58.58,0,0,1-1.16,0,.58.58,0,0,1,1.16,0Z"/><path class="cls-2" d="M7.67,75.92a.57.57,0,0,1-.57.58.58.58,0,0,1-.58-.58.57.57,0,0,1,.58-.57A.56.56,0,0,1,7.67,75.92Z"/></g></g></svg>