<svg xmlns="http://www.w3.org/2000/svg" viewBox="0 0 108.64 108.48"><defs><style>.cls-1{fill:#fff;}.cls-2{fill:#c4ab5b;}</style></defs><g id="Layer_2" data-name="Layer 2"><g id="Text"><path class="cls-1" d="M53.7,27.06a10,10,0,1,1,10-9.95A10,10,0,0,1,53.7,27.06Zm0-19.12a9.17,9.17,0,1,0,9.17,9.17A9.17,9.17,0,0,0,53.7,7.94Z"/><path class="cls-1" d="M45.18,12.78a8.41,8.41,0,0,0,16.82,0c.34.72.68,1.43,1,2.15v4.35l-1.67,3.58L58,25.66l-3,1H52.16l-3.49-1.43L46.17,23l-1.59-3-.44-3.41Z"/><path class="cls-1" d="M64,98.73a9.92,9.92,0,0,1-5.57-1.85A11.07,11.07,0,0,1,54.18,90c-1-4.57.81-7.86,3.1-12a61.14,61.14,0,0,0,3.4-6.87c1.09-2.67,6.23-16.67,1.08-30.11a35.23,35.23,0,0,0-6.85-11.07.68.68,0,0,1,.05-1,.67.67,0,0,1,.95,0A36.5,36.5,0,0,1,63,40.47c5.34,13.92,0,28.34-1.08,31.1a65.5,65.5,0,0,1-3.47,7c-2.24,4.08-3.86,7-3,11.09a9.82,9.82,0,0,0,3.68,6.1,8,8,0,0,0,6.9,1.28,7.83,7.83,0,0,0,4.77-4.55c1.1-2.89.54-7.06-1.87-8.33a4.38,4.38,0,0,0-3.14-.2,4.85,4.85,0,0,0-3,3c-.55,1.7-.15,4,1.47,5,1.42.86,3.51.67,4.21-.37a2.07,2.07,0,0,0-.06-2.38,1.21,1.21,0,0,0-.89-.19,1.3,1.3,0,0,0-.78.5.68.68,0,0,1-1,.16.68.68,0,0,1-.15-1,2.63,2.63,0,0,1,1.65-1,2.51,2.51,0,0,1,2,.46c1.19.94,1.16,3,.35,4.2-1.21,1.79-4.18,1.88-6,.77-2.28-1.38-2.76-4.43-2.06-6.61a6.31,6.31,0,0,1,3.88-3.83,5.71,5.71,0,0,1,4.17.29c3.1,1.64,3.81,6.59,2.5,10a9.24,9.24,0,0,1-5.62,5.36A8.6,8.6,0,0,1,64,98.73Z"/><path class="cls-1" d="M74.57,81.24a.66.66,0,0,1-.42-.14,15.55,15.55,0,0,1-3.86-4.29c-3.21-5.36-1.86-11.08-.43-17.14,1.18-5,2.52-10.71,1.44-17a31.09,31.09,0,0,0-6.41-13.82A.68.68,0,1,1,66,28a32.44,32.44,0,0,1,6.69,14.43C73.76,49,72.39,54.83,71.17,60c-1.42,6-2.65,11.25.28,16.14A14.2,14.2,0,0,0,75,80a.68.68,0,0,1-.41,1.21Z"/><path class="cls-1" d="M83.14,100a13.38,13.38,0,0,1-5.72-1.28,13.76,13.76,0,0,1-6.33-6.3.67.67,0,0,1,.31-.91.66.66,0,0,1,.9.31A12.44,12.44,0,0,0,78,97.49a12.3,12.3,0,0,0,10.63-.16c5.76-2.92,7.74-10.6,6.67-16.35a18,18,0,0,0-2.41-5.85,22.86,22.86,0,0,0-6.5-7.39,23.19,23.19,0,0,1-4.56-4.5c-2.5-3.43-2.71-6.13-3-9.87A55.59,55.59,0,0,0,76.92,41.7a54.79,54.79,0,0,0-5.43-12.91.67.67,0,0,1,.24-.92.68.68,0,0,1,.93.24,55.88,55.88,0,0,1,5.56,13.23,57.63,57.63,0,0,1,2,11.92c.28,3.65.46,6.06,2.74,9.18a21.56,21.56,0,0,0,4.31,4.25,24,24,0,0,1,6.83,7.78,18.91,18.91,0,0,1,2.56,6.26,19.85,19.85,0,0,1-.74,9.74,13.66,13.66,0,0,1-6.65,8.07A13.42,13.42,0,0,1,83.14,100Z"/><path class="cls-1" d="M80.64,93.84l-.37,0c-2-.18-4.16-1.86-4.17-4.07a3.89,3.89,0,0,1,2.2-3.47,4.08,4.08,0,0,1,3.48.1.68.68,0,1,1-.62,1.2,2.72,2.72,0,0,0-2.29-.07,2.54,2.54,0,0,0-1.42,2.23c0,1.46,1.56,2.61,2.94,2.73,1.92.18,3.29-1.79,3.44-2C85.46,88,84.72,84,82.25,82a6.72,6.72,0,0,0-7.36-.82,6.92,6.92,0,0,0-3.23,4.25.67.67,0,0,1-.82.48.68.68,0,0,1-.49-.83A8.28,8.28,0,0,1,74.25,80a8,8,0,0,1,8.87,1,8.32,8.32,0,0,1,2.8,5,7.38,7.38,0,0,1-1,5.27C84.65,91.66,83.08,93.84,80.64,93.84Z"/><path class="cls-1" d="M83.31,82.73a.68.68,0,0,1-.3-1.29,5.25,5.25,0,0,0,2.29-2.17,4.53,4.53,0,0,0,.27-4,3.68,3.68,0,0,0-2.36-1.93,2.89,2.89,0,0,0-3.8,2.61.68.68,0,0,1-1.35-.11,4.39,4.39,0,0,1,1.51-3,4.46,4.46,0,0,1,4-.82,5.09,5.09,0,0,1,3.26,2.64,5.71,5.71,0,0,1-.29,5.29,6.66,6.66,0,0,1-2.88,2.75A.82.82,0,0,1,83.31,82.73Z"/><path class="cls-1" d="M54.64,63.57c-7.49,0-13.49-9.33-15.24-15.89a34.88,34.88,0,0,1-.82-11.07,41.49,41.49,0,0,1,1-6.56.67.67,0,0,1,.81-.51.68.68,0,0,1,.51.81,38.76,38.76,0,0,0-.92,6.34,33.68,33.68,0,0,0,.77,10.64A27.45,27.45,0,0,0,46,57.38c1.92,2.25,4.94,4.84,8.6,4.84q.31,0,.63,0c4.22-.34,7.31-4.1,8.77-6.31a.68.68,0,0,1,1.13.74c-1.6,2.42-5,6.53-9.79,6.92C55.14,63.56,54.89,63.57,54.64,63.57Z"/><path class="cls-1" d="M24.36,89.93a.69.69,0,0,1-.68-.67c0-6.28,1.49-10.84,4.57-13.58,2.55-2.27,5.49-2.79,8.34-3.3s5.65-1,7.77-3.31c1.9-2.08,2.84-5.09,2.77-9a.66.66,0,0,1,.66-.68h0a.67.67,0,0,1,.67.66c.08,4.23-1,7.57-3.12,9.9-2.44,2.65-5.54,3.2-8.53,3.73-2.79.5-5.42,1-7.68,3C26.38,79.16,25,83.38,25,89.25a.69.69,0,0,1-.67.68Z"/><path class="cls-1" d="M32.76,61.52a.35.35,0,0,1-.25-.1.39.39,0,0,1,0-.55,15.6,15.6,0,0,0,4-8.83c.23-2.9-.61-5.13-1.49-7.5-1-2.53-1.93-5.16-1.43-8.6a15.05,15.05,0,0,1,2.87-6.75.4.4,0,0,1,.55-.08.39.39,0,0,1,.09.55,14.29,14.29,0,0,0-2.73,6.4c-.47,3.23.43,5.65,1.39,8.21A17.45,17.45,0,0,1,37.3,52.1a16.42,16.42,0,0,1-4.24,9.28A.41.41,0,0,1,32.76,61.52Z"/><path class="cls-1" d="M26.6,79.16h-.06a9.55,9.55,0,0,1-4.92-2.27c-3.63-3.27-3.24-8.43-3.13-9.43.48-4.16,3.1-6.25,5.64-8.27,2.36-1.88,4.59-3.65,5.16-7,.42-2.49-.37-4.28-1.19-6.18a12.65,12.65,0,0,1-1.38-7.83,16.51,16.51,0,0,1,4.87-9,.4.4,0,0,1,.56,0,.4.4,0,0,1,0,.56,15.77,15.77,0,0,0-4.65,8.58,12.11,12.11,0,0,0,1.32,7.4,10.9,10.9,0,0,1,1.25,6.62C29.45,56,27,57.91,24.62,59.8s-4.91,3.91-5.35,7.74c-.06.57-.54,5.68,2.88,8.75a8.78,8.78,0,0,0,4.51,2.09.39.39,0,0,1,.33.45A.4.4,0,0,1,26.6,79.16Z"/><path class="cls-1" d="M33.86,74h-.09a.39.39,0,0,1-.3-.47,5.29,5.29,0,0,0-.33-3.41A4.85,4.85,0,0,0,29,67.27c-.1,0-2.54,0-3.26,1.66a2.21,2.21,0,0,0,.37,2.56,2.1,2.1,0,0,0,2.65-.28.4.4,0,0,1,.54.58,2.9,2.9,0,0,1-3.68.32,3,3,0,0,1-.61-3.5c.94-2.13,3.87-2.13,4-2.13a5.66,5.66,0,0,1,4.85,3.31,6,6,0,0,1,.39,3.92A.38.38,0,0,1,33.86,74Z"/><path class="cls-1" d="M65.72,12.78l10.8-6.65,1,3Z"/><path class="cls-1" d="M65.72,15.46l17.61-4c.08,1.1.15,2.21.22,3.32Z"/><path class="cls-1" d="M65.72,20.17l10.8,6.66,1-3Z"/><path class="cls-1" d="M65.72,17.49l17.61,4c.08-1.11.15-2.22.22-3.33Z"/><path class="cls-1" d="M41.23,12.78,30.44,6.13c-.36,1-.71,2-1.06,3Z"/><path class="cls-1" d="M41.23,15.46l-17.61-4c-.07,1.1-.15,2.21-.22,3.32Z"/><path class="cls-1" d="M41.23,20.17,30.44,26.83c-.36-1-.71-2-1.06-3Z"/><path class="cls-1" d="M41.23,17.49l-17.61,4c-.07-1.11-.15-2.22-.22-3.33Z"/><path class="cls-2" d="M36.2,91.39l.2-.34a7.28,7.28,0,0,1,1.17-1.54,3,3,0,0,1,1.08-.73,1.79,1.79,0,0,1,1.79.29,2.92,2.92,0,0,1,.77.94c.11.22.21.45.33.68l.09-.08c.2-.25.41-.51.62-.75a2.82,2.82,0,0,1,.89-.76,2.19,2.19,0,0,1,2.37.1,3.32,3.32,0,0,1,1.06,1.2,5.23,5.23,0,0,1,.54,1.72c.06.48.09,1,.14,1.44,0,0,0,.11,0,.19l.17-.1a2.38,2.38,0,0,1,1-.34,1.61,1.61,0,0,1,1.16.33,2.32,2.32,0,0,1,.9,1.51,6.14,6.14,0,0,1,0,2.18c-.14.79-.42,1.53-.63,2.3a37.52,37.52,0,0,1-1.57,4.22c-.15.39-.37.75-.56,1.13,0,.08-.09.16-.14.26a1.61,1.61,0,0,0,1.4.67.68.68,0,0,0,.46-.23,1.12,1.12,0,0,1,.44-.3.78.78,0,0,1,.89.3.77.77,0,0,1-.05.94,2.29,2.29,0,0,1-1.48.85,3,3,0,0,1-2.36-.71c-.08-.06-.15-.13-.24-.21l-.14.15A4.23,4.23,0,0,1,45,107.79a2.81,2.81,0,0,1-2.2.13,1.88,1.88,0,0,1-1-.75.78.78,0,0,1,1.21-1h0a.84.84,0,0,0,.94.29,2.12,2.12,0,0,0,1-.61c.2-.2.38-.43.57-.64a.24.24,0,0,0,0-.23,10,10,0,0,1-.28-3.27c0-.77.1-1.53.13-2.3.06-1.29.1-2.58.13-3.87,0-.68,0-1.37,0-2A7.6,7.6,0,0,0,45.48,92a3.86,3.86,0,0,0-.32-.88,1.58,1.58,0,0,0-.52-.6.63.63,0,0,0-.73,0,1.23,1.23,0,0,0-.35.29,12.11,12.11,0,0,0-.9,1.11,9.93,9.93,0,0,0-.52,1,.38.38,0,0,0,0,.15,38.53,38.53,0,0,1,.34,7.2c0,.87-.08,1.74-.13,2.61a1.09,1.09,0,0,1,0,.26.78.78,0,0,1-1.54-.13c0-.2,0-.41,0-.61.11-1.54.16-3.08.13-4.63a32.52,32.52,0,0,0-.22-3.55,12.88,12.88,0,0,0-.6-2.82,4.79,4.79,0,0,0-.4-.82c-.25-.4-.44-.42-.81-.13a4.18,4.18,0,0,0-.87,1,13.86,13.86,0,0,0-1,1.81.33.33,0,0,0,0,.24,22.41,22.41,0,0,1,.7,4.45,36.27,36.27,0,0,1,0,4.89,1.11,1.11,0,0,1,0,.19.79.79,0,0,1-1.56-.17c0-.19,0-.39,0-.59a29.94,29.94,0,0,0,0-4.34,20.59,20.59,0,0,0-.67-4.12,8.53,8.53,0,0,0-.67-1.72,3.44,3.44,0,0,0-.5-.7.64.64,0,0,0-1,0c-.19.18-.35.4-.53.6a1.87,1.87,0,0,1-.32.31.77.77,0,0,1-.89-.06.79.79,0,0,1-.24-.88l.09-.19a4.24,4.24,0,0,1,1.13-1.18,2.1,2.1,0,0,1,2.13-.22,2.6,2.6,0,0,1,.73.51,4.64,4.64,0,0,1,.71.94ZM47,102.76h0l0-.07c.3-.77.62-1.54.9-2.32s.42-1.33.62-2c.12-.42.24-.85.33-1.27a4.44,4.44,0,0,0,.1-1.5,1.17,1.17,0,0,0-.19-.57c-.12-.17-.2-.19-.39-.11a1.23,1.23,0,0,0-.47.35,2.69,2.69,0,0,0-.59,1.15c0,.06,0,.11-.05.17a.94.94,0,0,0-.06.29c0,.87-.07,1.74-.11,2.61s-.1,1.8-.15,2.7C47,102.39,47,102.58,47,102.76Z"/><path class="cls-1" d="M89.93,58.26a.11.11,0,0,1,0-.21,6.43,6.43,0,0,0,2.51-1.44c.71-.73.93-2.26,1.16-3.07a.11.11,0,0,1,.22,0c.14.82.19,2.29,1,3.1a5.88,5.88,0,0,0,2.66,1.43.11.11,0,0,1,0,.21A5.59,5.59,0,0,0,95,59.56c-.77.79-1,2.38-1.15,3.15a.11.11,0,0,1-.22,0c-.23-.81-.46-2.5-1.35-3.34A6,6,0,0,0,89.93,58.26Z"/><path class="cls-1" d="M91.63,30.79a.11.11,0,0,1,0-.21,6.43,6.43,0,0,0,2.51-1.44c.71-.73.93-2.26,1.16-3.07a.11.11,0,0,1,.22,0c.14.81.19,2.29,1,3.1a5.7,5.7,0,0,0,2.66,1.42.12.12,0,0,1,0,.22,5.55,5.55,0,0,0-2.45,1.26c-.77.8-1,2.38-1.15,3.15a.11.11,0,0,1-.22,0c-.23-.81-.46-2.5-1.35-3.34A5.91,5.91,0,0,0,91.63,30.79Z"/><path class="cls-1" d="M10.7,34.75a.11.11,0,0,1,0-.21,6.65,6.65,0,0,0,2.52-1.44c.71-.74.92-2.27,1.16-3.07a.11.11,0,0,1,.22,0c.14.81.19,2.28.95,3.09a5.67,5.67,0,0,0,2.67,1.43.12.12,0,0,1,0,.22A5.45,5.45,0,0,0,15.77,36c-.77.79-1,2.38-1.16,3.15a.11.11,0,0,1-.21,0c-.23-.8-.47-2.5-1.36-3.33A5.8,5.8,0,0,0,10.7,34.75Z"/><path class="cls-1" d="M.26,64.5a.11.11,0,0,1,0-.21,6.72,6.72,0,0,0,2.52-1.44c.7-.74.92-2.27,1.16-3.07a.11.11,0,0,1,.22,0c.13.81.19,2.28.95,3.09a5.69,5.69,0,0,0,2.66,1.43.11.11,0,0,1,0,.22,5.55,5.55,0,0,0-2.45,1.26c-.76.8-1,2.38-1.15,3.15A.11.11,0,0,1,4,69c-.22-.81-.46-2.51-1.35-3.34A5.8,5.8,0,0,0,.26,64.5Z"/><path class="cls-1" d="M12.76,52a1.15,1.15,0,1,1-1.15-1.14A1.15,1.15,0,0,1,12.76,52Z"/><path class="cls-1" d="M105.11,48A1.14,1.14,0,1,1,104,46.84,1.14,1.14,0,0,1,105.11,48Z"/><path class="cls-1" d="M65.06,104.94a1.15,1.15,0,1,1-1.15-1.14A1.15,1.15,0,0,1,65.06,104.94Z"/><path class="cls-1" d="M12.68,83.2a1.15,1.15,0,1,1-1.14-1.14A1.15,1.15,0,0,1,12.68,83.2Z"/><path class="cls-1" d="M63.15,3.37A1.14,1.14,0,1,1,62,2.23,1.15,1.15,0,0,1,63.15,3.37Z"/><path class="cls-1" d="M17.41,21.42a1.14,1.14,0,1,1-1.14-1.15A1.14,1.14,0,0,1,17.41,21.42Z"/><path class="cls-1" d="M107.67,71.33a1.15,1.15,0,0,1-2.29,0,1.15,1.15,0,1,1,2.29,0Z"/><path class="cls-1" d="M84.9,42.16a.84.84,0,1,1-1.67,0,.84.84,0,0,1,1.67,0Z"/><circle class="cls-1" cx="88.82" cy="17.66" r="0.83"/><circle class="cls-1" cx="41.29" cy="1.9" r="0.83"/><path class="cls-1" d="M1.67,42.06a.84.84,0,0,1-.84.83A.83.83,0,0,1,0,42.06a.84.84,0,0,1,.83-.84A.85.85,0,0,1,1.67,42.06Z"/><path class="cls-1" d="M43.3,80.5a.84.84,0,0,1-.84.83.83.83,0,0,1-.83-.83.84.84,0,0,1,.83-.84A.85.85,0,0,1,43.3,80.5Z"/><path class="cls-1" d="M92.12,45.72a.58.58,0,1,1-.58-.58A.58.58,0,0,1,92.12,45.72Z"/><path class="cls-1" d="M86.22,27.82a.58.58,0,0,1-.58.58.58.58,0,0,1,0-1.16A.58.58,0,0,1,86.22,27.82Z"/><path class="cls-1" d="M52.06.58a.58.58,0,0,1-1.16,0,.58.58,0,0,1,1.16,0Z"/><path class="cls-1" d="M19.87,42.1a.57.57,0,0,1-.58.57.56.56,0,0,1-.57-.57.57.57,0,0,1,.57-.58A.58.58,0,0,1,19.87,42.1Z"/><path class="cls-1" d="M9.35,75.2a.57.57,0,0,1-.57.58.58.58,0,1,1,0-1.15A.57.57,0,0,1,9.35,75.2Z"/><path class="cls-1" d="M21.73,100.83a.58.58,0,1,1-.57-.58A.58.58,0,0,1,21.73,100.83Z"/><path class="cls-1" d="M76.05,107.9a.57.57,0,0,1-.57.58.58.58,0,0,1-.58-.58.57.57,0,0,1,.58-.57A.56.56,0,0,1,76.05,107.9Z"/><path class="cls-1" d="M54.45,74.57a.58.58,0,0,1-.58.58.58.58,0,0,1,0-1.15A.58.58,0,0,1,54.45,74.57Z"/><path class="cls-1" d="M32.55,84.15a.57.57,0,0,1-.57.58.58.58,0,1,1,0-1.15A.57.57,0,0,1,32.55,84.15Z"/><path class="cls-1" d="M108.64,60.33a.58.58,0,1,1-.58-.58A.58.58,0,0,1,108.64,60.33Z"/></g></g></svg>